<svg width="103" height="104" viewBox="0 0 103 104" fill="none" xmlns="http://www.w3.org/2000/svg">
<path d="M44.5022 8.56303C45.8881 7.70811 47.3344 6.9126 48.9518 6.58252C50.737 6.22273 52.539 6.46369 54.3208 6.75086C54.2235 6.55611 53.6497 5.66819 53.9282 5.58896C54.0658 5.54936 54.5154 5.79032 54.6563 5.83983L55.0389 5.97186L55.3409 6.07749C55.4516 6.15341 55.5187 6.1105 55.5422 5.94546C55.8778 5.59227 56.0925 4.98491 56.361 4.5657C56.5932 4.18856 56.8765 3.8443 57.2033 3.54244C57.8533 2.95142 58.7145 2.63701 59.5992 2.66772C60.4481 2.70403 61.5488 3.17605 61.9716 3.95175C62.0618 4.14718 62.1131 4.35785 62.1226 4.5723C62.1461 4.75715 62.0991 5.17966 62.2098 5.3282C62.2769 5.41732 62.5756 5.48994 62.6796 5.55596C62.958 5.72762 63.1802 5.97462 63.3194 6.26736C63.4587 6.56009 63.5092 6.88613 63.4648 7.20638C63.4044 7.6619 63.0353 7.94907 62.7165 8.24614C62.3978 8.54322 62.3575 8.72807 62.4246 9.18028C62.5053 9.65168 62.4099 10.1359 62.1561 10.5435C61.8846 10.9691 61.515 11.3257 61.0771 11.5843C60.6392 11.843 60.1455 11.9964 59.6361 12.0322C58.4851 12.1015 57.3073 11.2631 56.4717 10.5468C56.0704 10.2193 55.7507 9.80555 55.5372 9.33748C55.3237 8.86942 55.2221 8.35945 55.2402 7.84674C54.9483 8.20984 54.2335 9.46416 53.596 9.01524C52.9584 8.56633 53.7872 7.81043 54.1463 7.57607C52.0597 6.94691 49.8215 7.00369 47.7706 7.73781C45.8765 8.48722 44.1897 9.66697 42.8479 11.1806C44.1902 10.834 45.3579 10.23 46.7639 10.1903C48.1699 10.1507 49.5223 10.6327 50.8645 11.1113C51.5081 11.346 52.1751 11.5131 52.8544 11.6097C53.1959 11.6554 53.5399 11.6796 53.8845 11.6823C54.04 11.6559 54.1989 11.6559 54.3543 11.6823C54.4315 11.7153 54.7268 11.9431 54.7268 12.0289C54.7268 12.5042 53.4315 12.6231 53.1262 12.6891C52.406 12.8997 51.6981 13.1488 51.0054 13.4351C49.7404 13.9269 48.5122 14.4253 47.1331 14.4946C45.7539 14.564 44.2976 14.1646 42.9553 13.785C41.6131 13.4054 40.2708 12.864 38.8447 13.2766C38.5293 13.3724 37.5964 13.9005 37.5595 13.237C37.5226 12.6297 38.7709 12.5339 39.1299 12.2468C39.2474 12.1543 39.3614 12.2006 39.2943 12.0322C39.0292 11.9489 38.7559 11.8936 38.4789 11.8672C38.0997 11.7979 37.7205 11.7516 37.338 11.7153C36.63 11.646 35.724 11.4381 35.0293 11.613C34.3347 11.7879 33.8079 12.359 33.3247 12.8178C33.0395 13.0918 32.761 13.3724 32.4824 13.6529C32.2811 13.8576 31.8314 14.1382 31.8583 14.4484C32.4589 14.1448 33.0462 13.7586 33.7408 13.7883C34.3566 13.7563 34.9704 13.8814 35.5226 14.1514C35.7568 14.2907 35.9571 14.4787 36.1095 14.7022C36.262 14.9257 36.3629 15.1793 36.4051 15.4453C36.5025 16.1055 35.9991 16.5049 35.422 16.6732C34.7904 16.8807 34.119 16.9439 33.4589 16.858C32.761 16.7392 32.2274 16.3035 31.5764 16.0691C30.0563 15.5146 28.7913 16.66 27.6201 17.4687C28.7644 17.9044 29.855 18.2939 30.6201 19.3007C30.9993 19.8024 31.0328 20.1226 30.563 20.5517C30.2275 20.8554 29.8281 21.4 29.3047 21.2119C29.0463 21.1161 28.9121 20.9181 28.6335 20.8554C28.355 20.7927 28.1168 20.796 27.8517 20.7266C27.3461 20.6095 26.8822 20.3597 26.5094 20.0037C26.1739 19.6737 25.9759 19.2347 25.5732 18.9904C25.3719 18.8863 25.1512 18.8236 24.9245 18.806C24.6978 18.7884 24.4699 18.8163 24.2545 18.8881C23.0834 19.1851 22.0867 19.9278 21.1572 20.6573C20.7131 20.9701 20.2946 21.3166 19.9056 21.6938C19.5197 22.1163 19.3586 22.7468 18.9761 23.1396C18.8184 23.3013 18.919 23.2947 18.6875 23.265C18.6405 23.265 18.5231 23.265 18.4929 23.2089C18.4191 23.1098 18.4694 23.0537 18.4929 22.9349C18.6256 22.3909 18.8983 21.8896 19.2848 21.4792C20.0035 20.6859 20.8131 19.977 21.6975 19.3667C22.7481 18.6363 23.8937 18.0479 25.1034 17.6172C26.1571 17.2145 27.3114 16.9043 28.1235 16.1055C28.4591 15.7754 28.7577 15.376 28.6235 14.8775C28.4893 14.3791 28.0228 13.8873 27.7477 13.4417C27.1101 12.3722 27.3853 11.415 27.9188 10.3554C28.1872 9.90317 28.3718 9.57308 28.9121 9.46746C29.3516 9.38824 30.0597 9.44435 30.3617 9.81735C30.6637 10.1903 30.516 10.6789 30.4825 11.0783C30.4221 11.7979 30.3717 12.5207 30.2912 13.237C30.2669 13.5807 30.2085 13.9212 30.1167 14.2537C29.9783 14.513 29.866 14.7849 29.7812 15.0657C29.7442 15.4783 30.1738 14.9535 30.3248 14.8181C30.6603 14.5277 30.9657 14.2339 31.2912 13.9467C32.1905 13.138 33.0898 12.3491 33.7542 11.3291C34.5126 10.1639 32.912 9.09116 32.5261 8.04479C32.3273 7.51496 32.3002 6.93756 32.4487 6.39199C32.5971 5.84642 32.9137 5.35947 33.3549 4.99811C33.5633 4.83785 33.8037 4.72267 34.0604 4.6601C34.3172 4.59754 34.5845 4.58899 34.8448 4.63502C35.4924 4.80006 35.724 5.62527 35.6501 6.20292C35.5629 6.86309 35.073 7.43084 34.8012 8.03159C34.5059 8.69176 34.4924 9.35193 34.3951 10.0517C35.1535 9.50377 35.8011 8.50031 36.2407 7.685C36.7306 6.77727 36.7206 5.65828 36.979 4.68123C37.1904 3.87913 37.687 3.03081 38.6031 2.94169C39.3984 2.86247 40.1936 3.27177 40.3245 4.08378C40.3968 4.50679 40.3687 4.94051 40.2424 5.35107C40.116 5.76162 39.8949 6.13789 39.5963 6.45049C39.3588 6.77253 39.0346 7.0229 38.6601 7.17337C38.2061 7.25857 37.7752 7.43621 37.3951 7.6949C37.0291 7.99971 36.6921 8.33669 36.3884 8.70166C36.2038 8.90961 36.0226 9.12087 35.8414 9.33212C35.6602 9.54338 35.4287 9.85366 35.9152 9.616C36.7441 9.21329 37.4857 8.73467 38.4521 8.98223C38.8381 9.09289 39.1917 9.29258 39.4836 9.5647C39.7754 9.83683 39.997 10.1735 40.1299 10.5468C40.1859 10.7349 40.1953 10.9334 40.1573 11.1258C40.1194 11.3181 40.0352 11.4988 39.9118 11.6526C39.8546 11.7297 39.8062 11.8127 39.7675 11.9002C39.7943 12.1114 39.9453 11.9563 40.0359 11.9233C40.3154 11.7868 40.5816 11.6255 40.8312 11.4414C41.1366 11.2532 41.754 10.9957 41.8379 10.636C41.9587 10.1738 41.5963 9.54338 41.5829 9.06145C41.5356 8.01129 41.7378 6.96474 42.1735 6.00487C42.6365 5.15325 43.0761 4.23232 43.8009 3.56555C44.5323 2.90761 45.3386 2.33497 46.2035 1.85901C48.1431 0.759829 50.3544 0.479258 52.5121 0.0435461C52.8477 -0.0224708 53.7134 -0.0917886 53.3376 0.472656C53.0658 0.87866 52.3309 1.16583 51.9215 1.4365C50.8544 2.14948 49.7706 2.84596 48.7404 3.61176C47.8708 4.24895 47.0742 4.97721 46.3646 5.78371C45.681 6.66792 45.0588 7.59646 44.5022 8.56303ZM57.9079 10.8736C59.0455 11.24 60.0388 11.5536 61.1126 10.8175C61.6226 10.4709 62.5018 9.19679 61.3911 9.04495C61.0555 8.99874 60.4079 9.07135 60.2468 8.65875C60.0857 8.24614 60.5824 8.0679 60.8709 8.0877C61.3736 8.1401 61.8779 8.00459 62.2837 7.70811C62.6628 7.42753 63.0286 6.9093 62.6528 6.47029C62.2623 6.11896 61.7489 5.92972 61.2199 5.94216C60.8441 5.96196 59.7367 6.60232 59.4482 6.19962C58.777 5.24568 62.1729 5.28199 61.3005 4.37755C60.5186 3.56225 59.3911 3.30148 58.4247 3.90884C57.9678 4.17538 57.5706 4.53021 57.2569 4.9519C57.1563 5.09714 56.8711 5.52955 56.9516 5.721C57.0321 5.91245 57.7838 6.15341 57.9583 6.24913C58.512 6.54291 58.8374 6.76076 58.4113 7.34171C58.1563 7.6916 57.7603 7.97878 58.1428 8.35507C58.5254 8.73137 59.1495 8.87661 59.0623 9.54008C59.0019 10.0748 58.2905 10.5171 57.9079 10.8637V10.8736ZM48.8948 1.96134C45.6901 2.52248 42.1835 5.44703 42.3949 8.89311C43.2204 7.51996 43.9486 5.99827 45.0157 4.79346C46.0827 3.58865 47.5424 2.80635 48.8948 1.94813V1.96134ZM42.7808 12.6957C43.0258 12.3656 43.9016 12.6033 44.2976 12.6726C44.7707 12.7551 45.2204 12.8871 45.7002 12.93C46.7262 12.9927 47.7542 12.8466 48.7203 12.5009C48.3847 12.2666 47.831 12.2468 47.4317 12.2006C46.6973 12.1235 45.9589 12.0893 45.2203 12.0982C44.5037 12.0944 43.7875 12.1352 43.0761 12.2204C42.6835 12.2732 42.0694 12.3128 41.7741 12.6033C43.2305 13.4912 45.1935 13.6661 46.868 13.6595C47.9921 13.6595 50.2236 13.6595 50.8947 12.5471C49.5251 12.9361 48.1363 13.2567 46.7337 13.5077C46.053 13.5927 45.3621 13.5513 44.6969 13.3856C44.0392 13.237 43.2506 13.1578 42.7808 12.6957ZM25.8383 18.3203C26.1537 18.6504 26.4725 18.9805 26.788 19.3106C27.0945 19.6515 27.4996 19.8922 27.949 20.0005C28.3886 20.1358 30.1704 20.796 29.9624 19.7067C29.8651 19.1455 28.9288 18.6735 28.4322 18.4854C27.6336 18.185 26.6839 18.3203 25.8383 18.3203ZM37.489 6.78717C38.1793 6.70535 38.8124 6.36919 39.2608 5.84643C39.5963 5.40742 39.895 4.5624 39.6769 4.02767C39.6079 3.87152 39.4907 3.74066 39.342 3.65359C39.1933 3.56652 39.0205 3.52764 38.848 3.54244C38.4856 3.61176 38.338 4.00126 38.1769 4.27193C37.6798 5.01617 37.4398 5.89817 37.4924 6.78717H37.489ZM29.3953 14.1943C29.7778 13.3889 29.704 12.4151 29.7577 11.5305C29.7912 11.0156 30.0932 9.71172 29.1235 10.1375C28.4523 10.4247 28.2476 11.4249 28.308 12.0586C28.3819 12.8739 28.9053 13.5704 29.3953 14.1943ZM31.8314 15.3628C32.4755 15.7904 33.2292 16.0307 34.0059 16.0559C34.4891 16.0559 35.5562 15.7985 35.4857 15.1284C35.4152 14.4583 34.3314 14.4682 33.8649 14.5409C33.138 14.6817 32.4468 14.9634 31.8314 15.3694V15.3628ZM33.8113 8.64555C34.0764 8.18013 35.8246 5.20937 34.4589 5.28859C33.7878 5.3282 33.4321 6.02138 33.2844 6.60893C33.2012 6.96619 33.2056 7.3378 33.2972 7.69308C33.3888 8.04835 33.565 8.37709 33.8113 8.65215V8.64555ZM57.7167 7.03804L56.3409 6.30525C56.3425 6.55284 56.3821 6.79876 56.4583 7.03473C56.5523 7.23609 56.7268 7.36482 56.6429 7.59918C56.559 7.83354 56.2805 7.86985 56.1831 8.0712C56.1042 8.33293 56.1042 8.61158 56.1831 8.8733C56.2917 9.34777 56.5515 9.77569 56.9247 10.0946C56.9784 10.1441 57.1697 10.3455 57.2301 10.3455C57.2905 10.3455 57.5053 10.1045 57.5657 10.0583L58.3274 9.39814C57.9516 9.2397 57.0254 9.04165 56.9415 8.55642C56.8576 8.0712 57.5019 7.39783 57.7167 7.03804ZM44.6298 11.3918L50.5692 11.8243C49.18 10.8373 45.7841 10.4808 44.6298 11.3918ZM35.8213 10.8373C36.6401 10.9297 37.4634 10.9793 38.2877 10.9858C38.8883 10.9858 39.5125 10.8439 39.0024 10.1672C38.083 8.93932 36.63 10.1936 35.8246 10.8373H35.8213ZM42.358 10.1045L42.6332 10.2927C43.5191 8.97233 44.311 7.57937 45.1734 6.24583C45.5231 5.67381 45.9385 5.14328 46.4116 4.66473C46.6495 4.44113 46.9091 4.24102 47.1867 4.06728C47.2874 4.00126 48.0122 3.47972 47.6867 3.40711C47.5693 3.384 47.0659 3.93194 46.9485 4.02436C46.6901 4.22572 46.4015 4.35445 46.1331 4.5459C45.5863 4.98038 45.1305 5.5151 44.7908 6.1204C43.9452 7.42974 43.1354 8.75778 42.3614 10.1045H42.358Z" fill="#ADD0F0"/>
<path d="M80.4442 88.559C79.2105 89.6424 77.7745 90.4799 76.2162 91.0247C75.4062 91.302 74.5818 91.5367 73.7464 91.7278C72.8978 91.9479 72.0631 92.2169 71.2465 92.5332C71.676 92.7643 72.1727 93.0976 72.1022 93.6489C72.0116 94.3487 71.2331 93.8601 70.864 93.6984C71.1995 95.7152 70.3338 98.2899 68.5452 99.4485C68.1258 99.7052 67.6747 99.9082 67.203 100.053C66.75 100.204 66.401 100.597 65.8943 100.567C65.5587 100.548 64.7869 100.369 64.646 100.013C64.5051 99.6564 64.8843 98.8675 64.9816 98.5011C63.9749 98.4318 62.9112 98.6199 62.4078 97.5802C62.17 97.1653 62.0747 96.6861 62.136 96.2136C62.2535 95.7119 62.6326 95.3422 62.9414 94.9494C62.0454 94.6193 61.1528 94.1704 61.3005 93.0679C61.3804 92.5371 61.5789 92.0303 61.8818 91.5839C62.1847 91.1376 62.5844 90.7629 63.0521 90.4867C64.1158 89.9486 65.3843 90.0807 66.5218 90.2787C67.15 90.4051 67.7645 90.5896 68.3573 90.83C68.9128 91.0582 69.3936 91.4329 69.7465 91.9126C69.921 91.3812 69.9982 91.1204 70.4445 90.7738C70.6743 91.0838 70.7849 91.464 70.7566 91.8466C72.129 91.3482 73.5149 90.9719 74.9175 90.5593C76.266 90.2126 77.5379 89.6239 78.6691 88.823C79.6423 88.0771 80.4442 87.0043 81.159 86.0206C81.946 84.9288 82.53 83.7085 82.8838 82.4161C82.0449 83.1786 81.2429 84.0203 80.253 84.5947C79.2261 85.1332 78.1333 85.5403 77.0014 85.8061C75.7799 86.1527 74.5484 86.4662 73.3371 86.8656C72.7686 87.0492 72.2262 87.3032 71.723 87.6215C71.317 87.8823 71.0519 88.2058 70.6056 88.4434C70.4949 88.1134 70.3573 87.9648 70.4814 87.605C70.6056 87.2452 70.817 86.8062 70.9646 86.4101C71.2762 85.6097 71.6428 84.8311 72.0619 84.0797C72.9109 82.6076 74.0753 81.6965 75.5652 80.901C75.9405 80.6795 76.3359 80.4928 76.7464 80.3432C77.1591 80.2177 77.6054 80.1913 78.0282 80.0956C78.9074 79.8976 79.7832 79.6896 80.6758 79.5378C81.1019 79.4652 81.5315 79.4024 81.9576 79.3298C82.3838 79.2572 82.8737 79.244 83.1992 78.9997C83.6086 78.6994 83.5012 77.7883 84.2294 77.9897C84.9576 78.191 84.5079 79.2539 84.3972 79.7754C84.2754 80.1298 84.1932 80.4961 84.1522 80.868C84.1522 81.1585 84.4374 81.5282 84.4878 81.8418C84.6321 82.6307 84.6857 83.4361 84.8233 84.2283C84.992 85.0763 85.0237 85.9452 84.9173 86.8029C84.7333 88.3829 84.2375 89.9123 83.4576 91.3053C82.669 92.6256 81.4979 93.6159 80.5349 94.7943C80.2416 95.0962 80.0134 95.4532 79.8637 95.8439C79.7832 96.1113 79.706 96.3688 79.3503 96.3093C78.6792 96.1938 79.2295 94.6358 79.3033 94.2232C79.4879 93.2066 79.6657 92.1932 79.8469 91.1765C79.9308 90.6847 80.0214 90.1863 80.1087 89.7044C80.1993 89.305 80.3637 88.9584 80.4442 88.559ZM69.5788 96.1509C69.0687 96.1509 68.3204 96.3028 67.8406 96.0915C67.3607 95.8802 67.4043 95.4313 67.4412 95.0088C67.4714 94.7085 67.6426 94.2034 67.4211 93.9361C67.1493 93.606 66.4681 93.6456 66.1057 93.4838C64.8775 92.9293 67.0553 90.8432 65.3473 90.8432C64.6762 90.8432 63.9246 90.7672 63.3105 91.094C63.0079 91.2539 62.7409 91.4718 62.5253 91.7348C62.3098 91.9979 62.15 92.3008 62.0555 92.6256C61.6192 94.3619 63.8977 93.7743 64.6762 93.1174C64.8272 92.9887 64.8306 92.926 64.9883 92.9689C65.0856 92.9953 65.2165 93.2033 65.2634 93.2825C65.336 93.3871 65.3775 93.5095 65.3834 93.6359C65.3893 93.7624 65.3594 93.888 65.297 93.9988C64.9849 94.517 64.0554 94.7051 63.5856 95.0913C63.1763 95.4214 62.7467 95.9165 62.7971 96.4744C62.8062 96.6007 62.8405 96.7241 62.8981 96.8373C62.9556 96.9506 63.0353 97.0516 63.1326 97.1346C63.4682 97.4118 63.7836 97.2963 64.1729 97.2402C64.8448 97.1704 65.4901 96.9441 66.0554 96.58C66.2533 96.448 66.5487 96.0948 66.8104 96.1707C67.0721 96.2466 67.1929 96.7484 67.146 96.9827C66.9916 97.6264 66.1862 97.94 65.8037 98.4351C65.6863 98.5935 65.3574 99.1382 65.4883 99.3395C65.6191 99.5409 66.0956 99.2933 66.3171 99.2075C67.0852 98.9345 67.8061 98.5471 68.4546 98.0588C69.0224 97.5605 69.4158 96.8986 69.5788 96.1674V96.1509ZM83.0012 80.6138C82.3119 81.2513 81.5625 81.8227 80.763 82.3204C80.0463 82.7076 79.3029 83.0451 78.5383 83.3304C77.8235 83.6143 77.1121 84.0137 76.3538 84.0896C75.9444 84.1325 75.5753 84.5022 75.2565 84.7498C74.8739 85.0403 74.4981 85.3374 74.1156 85.6278C75.944 85.4023 77.7284 84.9118 79.4107 84.1722C80.1355 83.8326 80.8041 83.3875 81.3939 82.8518C82.0319 82.1876 82.5739 81.44 83.0046 80.6303L83.0012 80.6138ZM72.1458 85.8226L72.2901 85.9645C74.594 83.5943 77.3932 81.744 80.4946 80.5412C78.7195 80.8713 76.9343 81.2509 75.3336 82.1157C73.733 82.9805 73.0418 84.3537 72.1458 85.8226ZM68.2801 95.164C68.6862 95.121 69.5284 95.2036 69.8506 94.9164C70.1727 94.6292 69.7063 93.9558 69.5855 93.6489C69.2499 92.7808 68.7399 91.7707 67.8137 91.3911C67.6032 91.2956 67.3744 91.245 67.1426 91.2426C66.8641 91.2624 66.9614 91.2261 66.8305 91.4307C66.7633 91.5841 66.7149 91.7447 66.6862 91.9093C66.5621 92.3252 66.1896 92.8996 66.7768 93.0382C67.1124 93.1141 67.4849 93.0184 67.8171 93.1009C67.9506 93.1275 68.0721 93.1954 68.1638 93.2945C68.2555 93.3936 68.3127 93.5189 68.3271 93.6522C68.4546 94.1407 68.2063 94.649 68.2868 95.1541L68.2801 95.164ZM81.2295 92.6718C82.1181 91.8561 82.8253 90.8682 83.3066 89.7704C83.5012 89.3314 84.5381 86.6676 84.0683 86.4695L81.2295 92.6718ZM83.7361 82.8947C83.5213 83.5549 83.2563 84.2151 83.0985 84.8752C83.0546 85.0014 83.0385 85.1353 83.0516 85.268C83.0818 85.4034 83.2428 85.4364 83.2663 85.5981C83.2898 85.7599 83.112 85.9579 83.0247 86.1064C82.6633 86.7637 82.3472 87.4441 82.0784 88.1431C81.9107 88.5491 81.7429 88.9551 81.5885 89.3644C81.4912 89.6284 81.2026 90.1896 81.253 90.4603C81.31 90.8663 81.5885 90.1302 81.6489 90.0114C81.81 89.6549 81.9677 89.2951 82.1288 88.9386C82.4137 88.2395 82.7375 87.5563 83.0985 86.8921C83.418 86.2725 83.6494 85.6128 83.7864 84.9314C83.9677 84.2085 84.1623 83.5483 83.7428 82.8848L83.7361 82.8947ZM75.6189 83.8421C75.6424 83.9015 75.6659 83.9609 75.686 84.0203C76.8101 83.5318 77.9477 83.0697 79.0416 82.5481C79.5813 82.2943 80.1057 82.0099 80.612 81.6965L81.3201 81.2509C81.404 81.1981 81.6221 81.1123 81.6758 81.0297C81.7966 80.8383 81.7026 80.8284 81.4878 80.8845C81.0032 81.0701 80.5333 81.2907 80.0818 81.5447C79.5785 81.7658 79.0751 81.9837 78.5718 82.2048C77.5346 82.6527 76.5454 83.2012 75.6189 83.8421ZM80.4778 92.1536L80.5583 92.2262C80.7697 91.7773 80.9845 91.3284 81.1959 90.8828C81.0919 90.8828 80.8603 90.8168 80.7832 90.8597C80.706 90.9026 80.6758 91.0511 80.6422 91.2327C80.5885 91.5529 80.5349 91.8598 80.4778 92.1668V92.1536Z" fill="#ADD0F0"/>
<path d="M12.3051 71.0282C12.5534 70.9952 13.2581 70.7773 13.3386 71.1272C13.4192 71.4771 12.5635 71.6917 12.332 71.7874C13.2715 73.0186 14.3453 74.2036 15.0165 75.5999C15.7144 77.0555 16.3084 78.5706 16.9627 80.0329C17.5835 81.4292 18.2781 82.7792 19.3687 83.885C19.8888 84.4131 20.4962 84.8422 21.0465 85.3341C21.6284 85.8997 22.2977 86.3709 23.0297 86.7303C22.231 85.8226 21.2613 85.0964 20.5029 84.1359C19.7679 83.2157 19.1691 82.1977 18.7244 81.1123C18.2378 79.8976 18.2378 78.6598 17.9526 77.4021C17.6674 76.1445 17.3486 74.8902 16.9996 73.6524C16.9215 73.3504 16.809 73.0581 16.6641 72.781C16.5567 72.5862 16.2849 72.3353 16.305 72.1043C16.3587 71.4936 17.0063 71.794 17.2312 72.0779C17.9459 72.9856 18.9794 73.5467 19.9157 74.1904C21.718 75.359 23.0486 77.1103 23.6773 79.1417C24.1177 80.5465 24.4101 81.9922 24.5498 83.4559C24.6001 84.2151 24.6773 84.971 24.7444 85.7236C24.7554 85.8696 24.7847 86.0137 24.8316 86.1527C24.892 86.3144 24.986 86.2946 25.0565 86.4365C25.1974 86.727 25.1034 86.869 24.8786 87.1264L26.345 87.8724C26.1168 88.1563 27.1973 88.4336 27.3517 88.4666C27.8785 88.5755 28.5832 88.5854 29.0295 88.8693C29.3013 89.0343 29.5731 89.4667 29.1201 89.5723C28.6671 89.678 27.9624 89.3347 27.5262 89.2225C26.9854 89.0388 26.4201 88.9342 25.8484 88.9122C25.2467 88.9492 24.65 89.0432 24.0666 89.1927C23.5531 89.3116 23.0297 89.612 22.5062 89.612C21.9157 89.5621 21.3294 89.4728 20.7512 89.3446C19.5667 89.1796 18.2982 89.1201 17.258 88.4996C16.2849 87.9186 15.1305 87.3179 14.342 86.4993C13.6205 85.7533 13.248 84.7795 12.7078 83.9147C12.4321 83.536 12.1148 83.1884 11.7615 82.8782C11.4897 82.601 11.5602 82.0266 12.0501 82.0629C12.2716 82.0629 12.5434 82.3171 12.7212 82.4227C12.9997 82.5878 13.2816 82.7528 13.5769 82.8881C14.1843 83.1786 14.8252 83.4163 15.4527 83.6572C16.0802 83.8982 16.7949 84.1689 17.4895 84.3966C18.0634 84.5881 18.8955 85.0172 19.5029 84.9677C18.96 84.4854 18.4645 83.9538 18.0231 83.38C17.5902 82.7198 17.1708 82.0596 16.7849 81.3995C15.9963 80.0098 15.4896 78.498 14.7715 77.0687C14.0534 75.6395 13.399 74.2135 12.295 73.0813C12.1172 72.8998 11.9595 72.7512 11.6709 72.8272C11.3823 72.9031 11.3018 73.2134 10.9662 73.1572C10.4025 73.0747 10.7246 72.1241 10.7951 71.7742C10.0703 71.8798 9.38238 72.1769 8.63407 72.1043C7.93459 72.0046 7.27827 71.7116 6.74151 71.2593C5.52342 70.2954 4.42613 68.7902 4.50331 67.1695C4.53687 66.5093 5.1241 66.3443 5.71804 66.4004C5.79522 66.4004 6.16434 66.5093 6.23145 66.4631C6.29856 66.4169 6.33212 66.0472 6.36232 65.9581C6.43074 65.7074 6.53228 65.4666 6.66433 65.2418C7.26498 64.2912 8.42267 64.6939 9.27164 65.0603C9.6072 64.2285 10.1005 63.3108 11.1541 63.2943C12.2078 63.2778 12.7749 64.4166 13.1239 65.2253C13.5333 66.1727 14.0265 67.3082 13.9494 68.3611C13.9091 68.8959 13.5266 69.3118 13.2111 69.7178C13.0165 69.9785 12.2011 70.7344 12.3051 71.0282ZM13.2078 67.6085C12.9192 66.7107 12.2984 63.4627 10.7682 63.9347C10.0401 64.1624 9.90921 64.9844 10.0971 65.6082C10.1777 65.8855 10.3622 66.2684 10.2011 66.5457C9.97968 66.9352 9.55016 66.5853 9.34882 66.3443C8.89581 65.803 8.42267 64.9711 7.56028 65.2946C6.63748 65.6412 7.17102 66.7206 7.47639 67.2949C7.64417 67.6085 7.87906 68.206 7.34216 68.1532C6.93949 68.1169 6.79855 67.7637 6.53681 67.493C6.27508 67.2223 6.05025 66.9319 5.67778 66.9682C5.3053 67.0045 5.37242 67.2751 5.36906 67.5755C5.36906 68.3149 5.99656 69.2061 6.44621 69.7772C6.98196 70.4611 7.71003 70.9753 8.54012 71.256C8.54012 70.6684 8.29516 69.5494 8.6777 69.051C9.06024 68.5526 9.92263 69.0015 10.379 69.1401C10.4707 68.7493 10.5313 68.3519 10.5602 67.9518C10.5569 67.8071 10.5955 67.6644 10.6716 67.5405C10.7476 67.4166 10.858 67.3165 10.9897 67.252C11.3253 67.1068 11.6441 67.252 11.9628 67.3379C12.3756 67.4336 12.7917 67.5128 13.2078 67.6085ZM23.174 85.7203C23.5095 85.5552 22.8048 84.8224 22.6471 84.6112C22.3686 84.2415 22.0733 83.8817 21.8216 83.4955C21.2995 82.654 20.8869 81.7513 20.5935 80.8086C19.9593 78.9469 19.5197 77.0225 18.4023 75.3688C18.2378 75.7748 18.4962 76.4086 18.5734 76.8179C18.6774 77.3658 18.7848 77.9171 18.8821 78.4683C19.0112 79.4403 19.2731 80.3907 19.6606 81.2938C20.1049 82.1205 20.6073 82.9157 21.1639 83.6737C21.7084 84.4653 22.3885 85.1577 23.174 85.7203ZM23.382 88.866C23.4122 88.2454 21.6841 88.1629 21.2411 88.0771C20.7982 87.9912 20.3485 87.8724 19.8989 87.747C19.4492 87.6215 19.0935 87.374 18.6674 87.232C17.873 87.0253 17.1228 86.6798 16.4527 86.2121C15.6842 85.6377 14.8755 85.1327 14.0769 84.598C14.7883 86.2286 16.1775 87.0835 17.7009 87.8988C19.3788 88.8197 21.5129 88.965 23.382 88.866ZM18.6237 74.2696C18.4325 74.4281 18.7479 74.6789 18.8687 74.8539L19.221 75.3523C19.4996 75.7418 19.7848 76.1214 20.0834 76.4944C20.6805 77.1985 21.2405 77.9323 21.7612 78.6928C22.221 79.4123 22.533 80.2112 22.9391 80.9604C23.1612 81.339 23.3476 81.7368 23.4961 82.1487C23.637 82.5779 23.6437 83.0235 23.778 83.4526C24.0095 83.1885 23.7008 82.4128 23.637 82.0992C23.5464 81.6602 23.4491 81.2179 23.335 80.7789C23.0964 79.8414 22.759 78.9309 22.3283 78.0623C21.5096 76.3723 20.1338 75.3688 18.6237 74.2696ZM9.35889 71.2989C10.3122 71.1188 11.2014 70.6979 11.9394 70.0776C12.2549 69.7844 12.5282 69.4501 12.7514 69.084C13.0299 68.6318 12.8286 68.4502 12.3789 68.2423C12.1038 68.1136 11.3723 67.8297 11.2145 68.1069C11.0568 68.3842 11.1843 68.8562 11.134 69.1269C11.1138 69.381 11.0128 69.6223 10.8454 69.8168C10.6206 70.0049 10.436 69.9026 10.1743 69.8168C10.0132 69.7607 9.46627 69.4405 9.3052 69.4867C8.9797 69.5395 9.32533 71.0282 9.35889 71.2989ZM23.4122 84.5353C22.9928 81.9837 21.8015 79.782 20.315 77.7124C20.8955 80.2111 21.7411 82.5581 23.4122 84.5485V84.5353ZM21.3519 87.3773C19.7647 86.1527 18.0734 85.1624 15.9527 84.9281C17.5097 86.4068 19.4626 86.8558 21.3519 87.3905V87.3773ZM23.4894 85.6938L23.3283 85.8226L23.7981 86.3441C23.9927 86.5587 24.0364 86.8029 24.2981 86.5719L23.4894 85.6938Z" fill="#ADD0F0"/>
<path d="M35.3515 96.1872C36.4085 97.6759 35.8112 100.426 33.5797 100.062C32.7207 99.9238 31.922 99.2306 32.1838 98.3163C32.2901 97.89 32.5238 97.5048 32.8549 97.2105C33.0697 97.0356 33.3046 96.9002 33.526 96.7187C33.8247 96.4546 33.9052 96.2665 33.4052 96.3886C32.8012 96.5239 32.1972 96.6758 31.5865 96.7946C31.0152 96.852 30.4524 96.9727 29.9087 97.1544C28.9557 97.5703 28.3718 98.379 27.2242 98.3493C26.4356 98.3328 25.3048 97.9103 24.9826 97.1346C24.8662 96.787 24.8755 96.4106 25.0088 96.0689C25.1421 95.7273 25.3913 95.4414 25.7142 95.2597C26.939 94.5269 28.3685 95.1442 29.5798 95.5568C30.1805 95.7581 30.7744 96.009 31.412 95.8605C32.0626 95.7349 32.7056 95.574 33.3381 95.3785C32.4925 95.1772 31.6603 95.0319 30.9422 94.5434C30.4187 94.1935 29.6939 93.5003 29.959 92.8171C30.157 92.3021 30.7375 91.5826 31.3382 91.5925C32.0093 91.5925 32.6167 92.1041 33.016 92.5992C33.4153 93.0943 33.5898 93.7149 33.8515 94.3223C34.1871 95.1475 35.1938 95.1937 35.9521 95.0814C37.814 94.8685 39.6892 94.7891 41.5627 94.8438C40.4146 94.3085 39.3194 93.6698 38.291 92.9359C37.8383 92.5934 37.4132 92.2171 37.0192 91.8103C36.6166 91.3977 36.3045 91.1931 35.7475 91.5099C34.8146 92.0447 34.0696 92.9755 32.9724 92.2559C31.8751 91.5363 32.469 90.424 33.5327 90.0741C34.1502 89.8694 34.6703 90.0279 35.2676 90.1995C35.5864 90.2886 35.8213 90.3084 35.4924 89.9751C35.2496 89.7263 34.9882 89.4957 34.7106 89.2852C34.2307 88.9254 33.9153 88.6844 33.3046 88.6877C32.7665 88.71 32.2287 88.6362 31.7174 88.4699C30.8382 88.1398 29.7241 87.199 30.1436 86.1593C30.3843 85.6757 30.7695 85.276 31.2476 85.0139C31.6804 84.7894 32.3381 84.9545 32.7878 85.1228C33.0657 85.2285 33.3149 85.3962 33.5158 85.6127C33.7167 85.8292 33.8638 86.0886 33.9455 86.3705C34.0817 86.9471 34.3516 87.4848 34.7341 87.9417C35.1804 88.4468 35.6803 88.9023 36.1166 89.4172C36.5528 89.9321 36.7877 90.7012 37.385 90.9818C37.2508 89.7836 37.2038 87.5423 38.8145 87.2122C39.4856 87.0736 39.9722 87.572 40.1567 88.1662C40.3413 88.7603 40.1299 89.5756 39.8514 90.1467C39.7103 90.4427 39.5334 90.7209 39.3245 90.9752C39.0695 91.2855 38.8111 91.4439 38.8883 91.8796C39.0091 92.5596 39.7104 92.9986 40.2675 93.3122C41.7506 94.1539 43.4318 94.55 45.0761 94.9626C44.3311 93.9229 43.2137 92.1173 44.4049 90.9521C45.5257 89.8397 46.9653 90.8927 46.9854 92.2724C46.9439 93.0294 46.7913 93.7766 46.5324 94.4906C46.3445 95.1508 46.5123 95.3587 47.2035 95.4445C48.0984 95.5612 48.9865 95.6646 49.8679 95.7548C50.7303 95.8407 51.5692 95.7548 52.4316 95.7713C53.294 95.7878 54.153 95.8043 55.0087 95.8803C55.2805 95.9067 57.1026 96.1245 56.6865 96.7616C56.455 97.0917 55.2738 96.6428 54.9516 96.5899C54.5523 96.5206 54.1463 96.4513 53.7403 96.4084C53.3639 96.3253 52.9761 96.3041 52.5926 96.3457C52.445 96.3886 52.3007 96.5569 52.1329 96.6097C51.9731 96.651 51.8083 96.671 51.643 96.6692C51.3645 96.6692 51.086 96.6229 50.8041 96.6328C50.1934 96.6328 49.2974 96.8606 48.8612 97.3128C48.7538 97.4251 48.378 97.8707 48.4149 98.0324C48.4518 98.1941 49.039 98.5308 49.1599 98.6662C49.5668 99.104 49.8532 99.6369 49.992 100.214C50.1967 101.205 49.7806 102.921 48.4183 102.551C47.6867 102.35 47.2035 101.455 47.076 100.766C46.9418 99.9436 47.2169 99.0359 47.3847 98.2304C46.8814 98.5374 46.2472 98.6431 45.915 99.1745C45.5828 99.7059 45.2069 100.257 45.3412 100.96C45.5232 101.58 45.4949 102.242 45.2606 102.845C45.165 103.103 45.0054 103.334 44.7962 103.516C44.587 103.698 44.3348 103.826 44.0627 103.888C43.7603 103.996 43.4348 104.027 43.1171 103.976C42.7994 103.926 42.5 103.797 42.2473 103.601C41.5762 103.06 41.6701 102.578 42.1097 101.927C42.3245 101.597 42.5526 101.29 42.7808 100.977C42.8551 100.838 42.9604 100.717 43.0888 100.623C43.2172 100.529 43.3654 100.465 43.5224 100.435C43.7992 100.368 44.0436 100.208 44.2137 99.9832C44.3722 99.7759 44.5115 99.5549 44.6298 99.323C43.4385 99.6366 41.6332 100.241 40.7272 99.0392C39.942 97.9961 40.7104 96.7913 41.8211 96.3985C42.1024 96.2686 42.4193 96.2338 42.7228 96.2995C43.0262 96.3652 43.2991 96.5276 43.4989 96.7616C43.9083 97.1775 44.3747 97.9829 44.9251 98.2107C45.4754 98.4384 46.3848 97.9763 46.878 97.7122C47.5217 97.3371 48.1445 96.9283 48.7437 96.4876C47.7136 96.3061 46.68 96.1575 45.6532 95.9595C44.6764 95.7375 43.6758 95.6334 42.6734 95.6492C40.6366 95.7284 38.5527 95.5865 36.526 95.8605C36.0323 95.8863 35.5471 95.998 35.0931 96.1905C34.7274 96.4199 34.3965 96.6988 34.1099 97.0191C33.7744 97.3491 33.4757 97.6627 33.167 97.9895C32.8583 98.3163 32.6804 98.577 33.0462 98.9434C33.2627 99.1284 33.5443 99.2223 33.8305 99.205C34.1166 99.1877 34.3845 99.0606 34.5763 98.851C34.8314 98.5506 34.8213 98.1017 34.875 97.732C34.966 97.1992 35.1261 96.68 35.3515 96.1872ZM29.2711 96.2632C28.5027 96.1014 27.7946 95.603 26.9859 95.6459C26.4859 95.6624 25.2544 96.0882 25.6437 96.7616C26.486 98.1314 28.5463 97.1742 29.2711 96.2632ZM30.7174 86.4827C31.3348 87.473 32.4422 88.1629 33.6535 87.8031C33.4086 87.1132 33.2509 86.2979 32.5428 85.915C31.7442 85.4727 31.2509 85.9051 30.7174 86.4827ZM44.368 98.5407C43.868 98.1611 43.2942 97.5274 42.6902 97.3161C42.4285 97.2494 42.1526 97.2601 41.8971 97.347C41.6416 97.4339 41.4179 97.5931 41.254 97.8046C40.8446 98.4318 41.6198 98.7256 42.1164 98.8345C42.8794 99.0092 43.681 98.901 44.368 98.5308V98.5407ZM45.6801 94.3322C46.0995 93.7215 46.6431 91.8169 45.7304 91.3878C45.5915 91.3274 45.4353 91.3175 45.2897 91.3598C45.144 91.4021 45.0184 91.4939 44.9351 91.6189C44.7237 91.8697 44.7942 92.1668 44.8177 92.4771C44.8747 93.1835 45.0559 93.8799 45.6801 94.3223V94.3322ZM42.4251 102.617C42.8681 102.947 43.5358 103.277 44.0727 102.947C44.5291 102.67 44.5761 102.01 44.5224 101.538C44.5109 101.409 44.4873 101.282 44.4519 101.158C44.3815 100.914 44.415 100.917 44.1868 100.917C43.9083 100.962 43.648 101.082 43.4352 101.264C42.9942 101.626 42.6478 102.087 42.4251 102.607V102.617ZM38.2541 90.9686C38.9923 91.0181 40.1601 88.3807 39.1601 88.054C38.5796 87.8658 38.2306 88.6811 38.1736 89.0904C38.1165 89.7172 38.1436 90.3487 38.2541 90.9686ZM33.016 94.4048C33.1099 93.6786 31.9623 92.0942 31.1133 92.5431C30.4892 92.8732 30.9355 93.4244 31.3046 93.7017C31.7878 94.104 32.3855 94.3495 33.016 94.4048ZM48.1867 98.5869C47.9073 99.1274 47.8052 99.7398 47.8948 100.34C47.9552 100.749 48.1532 101.445 48.5659 101.66C49.086 101.921 49.1968 100.881 49.0894 100.558C48.827 99.8811 48.5256 99.2198 48.1867 98.577V98.5869ZM35.177 91.028C35.12 90.721 34.8683 90.7805 34.5763 90.7408C34.333 90.6882 34.0825 90.6749 33.8348 90.7012C33.5629 90.7573 33.1099 91.0313 33.2005 91.3614C33.2704 91.4817 33.3708 91.5821 33.492 91.6527C33.6132 91.7233 33.751 91.7617 33.8918 91.7641C34.328 91.7047 34.8247 91.2327 35.177 91.0181V91.028Z" fill="#ADD0F0"/>
<path d="M91.9674 38.2112C91.8006 38.2684 91.6201 38.2754 91.4492 38.2313C91.2783 38.1872 91.1246 38.094 91.0077 37.9636C90.6357 37.6642 90.2207 37.4206 89.7762 37.2408C88.8232 36.848 87.8635 36.5344 87.0682 35.8544C85.517 34.5126 84.4102 32.7443 83.8905 30.7777C83.4073 28.9556 83.3368 27.1699 81.8335 25.8264C81.5214 25.5426 81.1623 25.3379 80.8268 25.0837C80.4316 24.748 80.092 24.3538 79.8201 23.9152C79.6288 23.6545 79.4845 23.3838 79.8033 23.1197C80.1959 22.7897 80.4073 23.539 80.5885 23.7799C81.716 25.3445 83.669 26.4965 85.6421 26.3546C86.6857 26.2787 87.6387 25.8627 88.6621 25.6548C89.7591 25.4191 90.8927 25.3989 91.9976 25.5954C93.0244 25.7988 94.0112 26.1632 94.9204 26.6748C95.8226 27.1251 96.6608 27.69 97.4136 28.3549C98.0145 28.9487 98.4851 29.6577 98.7961 30.4377C98.9605 30.8404 99.7256 32.6196 98.7626 32.5767C98.3196 32.5503 97.6485 32.0188 97.3129 31.7845C96.8234 31.4616 96.3507 31.1146 95.8969 30.7447C95.0042 29.9845 94.0427 29.3061 93.0245 28.718C91.0346 27.6386 88.4608 26.3018 86.1488 27.2293C87.179 27.632 88.2729 27.8399 89.2762 28.312C90.2406 28.772 91.1143 29.3968 91.8567 30.1571C93.5009 31.8076 94.256 34.0389 95.0311 36.1746C95.1379 35.979 95.2626 35.7934 95.4036 35.62C95.5479 35.4682 95.615 35.3989 95.7727 35.5144C96.0579 35.7323 95.8096 36.4486 95.7727 36.7291C97.2123 36.9107 98.4404 37.254 99.4639 38.3333C100.236 39.1519 101.158 40.535 100.766 41.7035C100.663 41.9739 100.501 42.2188 100.292 42.4212C100.083 42.6237 99.831 42.7786 99.5545 42.8753C99.4044 42.8949 99.2562 42.9269 99.1115 42.971C99.0411 43.0304 99.0109 43.2615 98.974 43.3572C98.8982 43.5745 98.7956 43.7818 98.6686 43.9745C98.0747 44.7964 96.917 44.0999 96.2291 43.7698C96.0411 44.2154 95.9136 44.8327 95.464 45.0902C95.0143 45.3476 94.5412 45.1727 94.1217 44.9746C93.2724 44.5539 92.614 43.8356 92.2762 42.9611C92.0815 42.4957 91.7493 42.0633 91.7158 41.5583C91.6748 40.9661 91.7131 40.3713 91.8299 39.789C91.9324 39.1984 92.1611 38.6358 92.501 38.1386C92.8063 37.7227 93.3567 37.4784 93.7895 37.1945C93.3466 36.98 92.2594 36.6631 92.7426 35.9897C93.1721 35.3923 93.9103 36.3726 94.3298 36.5839C93.8063 34.435 92.9506 32.3159 91.397 30.6787C89.8433 29.0415 87.7058 28.5001 85.6387 27.8961C87.3166 29.0976 89.3299 30.3189 90.4037 32.1278C90.9435 33.0424 91.3405 34.0316 91.5815 35.0622C91.7057 35.5969 91.7594 36.1416 91.9171 36.6697C92.0165 36.9196 92.0863 37.1798 92.1251 37.4454C92.1103 37.7068 92.0572 37.9647 91.9674 38.2112ZM92.0144 27.3184L91.8366 27.0411C92.5916 26.9982 93.2694 27.2722 93.964 27.5066C92.7929 26.754 91.3869 26.6219 90.0346 26.4635C90.3805 26.6838 90.7455 26.8737 91.1252 27.0312C91.3155 27.1109 91.5119 27.176 91.7124 27.226C91.863 27.2733 92.003 27.3484 92.1251 27.4472C92.7292 27.84 93.4238 28.1073 94.0479 28.4968C95.3902 29.3154 96.3465 30.6556 97.7592 31.3917C98.0948 31.5666 98.4673 31.8868 98.3532 31.3554C98.2659 30.9626 98.0948 30.9493 97.7794 30.7909C97.5321 30.6383 97.3111 30.4477 97.125 30.2265C96.8777 30.0122 96.6141 29.8169 96.3364 29.6422C95.7449 29.2006 95.1287 28.7917 94.4909 28.4176C93.7056 27.9786 92.8365 27.6617 92.0144 27.3052V27.3184ZM92.6855 40.7727C92.35 41.9346 93.0547 43.6114 94.0882 44.2749C94.6486 44.6347 95.1687 44.6313 95.1284 43.9019C95.1049 43.4893 95.0412 43.08 95.0076 42.6673C95.0076 42.5287 94.917 42.1128 95.0479 42.0072C95.2694 41.8223 95.7459 42.0534 95.8834 42.2316C96.021 42.4099 96.1284 42.7565 96.2928 42.9908C96.4471 43.2216 96.6508 43.4165 96.8895 43.5619C97.1283 43.7073 97.3965 43.7997 97.6753 43.8325C98.4035 43.9085 98.4673 43.2978 98.3934 42.707C98.3413 42.3601 98.2277 42.0249 98.0579 41.7167C97.9626 41.5717 97.898 41.4092 97.868 41.2391C97.8381 41.0689 97.8433 40.8946 97.8834 40.7264C98.2189 40.809 98.3699 40.7661 98.5713 41.0301C98.6794 41.1659 98.7717 41.3132 98.8464 41.4691C98.9236 41.6375 98.88 41.8421 98.9404 41.9874C99.1921 42.6079 99.9169 42.1458 99.9169 41.6309C99.8509 41.2613 99.7094 40.9086 99.5008 40.5944C99.3132 40.2326 99.1001 39.884 98.8632 39.5513C98.4706 38.977 98.031 38.4357 97.2995 38.3036C97.2995 38.9869 97.4639 39.624 96.5848 39.6735C96.1217 39.6966 95.6821 39.5117 95.4271 39.9772C95.1419 40.4954 95.2962 41.2117 94.6083 41.4163C93.9204 41.621 93.209 41.2249 92.6889 40.7595L92.6855 40.7727ZM85.3032 32.0815C86.7797 34.6232 87.9877 35.8577 90.6319 36.6037C90.3064 35.4913 86.5515 32.8242 85.3133 32.0683L85.3032 32.0815ZM84.7059 29.2527C84.4945 29.4772 85.1153 30.3882 85.2629 30.649C85.5133 31.1146 85.8555 31.5264 86.2696 31.8604C87.2763 32.679 88.3367 33.4382 89.3735 34.2238C88.4742 32.0188 86.5515 30.6358 84.716 29.2395L84.7059 29.2527ZM96.3968 38.7228C96.2458 38.2145 96.2928 37.6534 95.5747 37.7623C95.2627 37.8085 95.1184 38.0627 94.8365 38.1452C94.5854 38.1804 94.3367 38.23 94.0915 38.2937C93.8286 38.3974 93.5895 38.5518 93.3883 38.748C93.1872 38.9442 93.028 39.1781 92.9204 39.4358C92.7124 40.096 93.6721 40.3799 94.1284 40.6571C94.2023 40.1158 94.2425 39.4655 94.5915 39.0067C95.0345 38.4324 95.7962 38.5281 96.4069 38.7096L96.3968 38.7228ZM90.8232 35.6927C91.1117 35.5672 90.9037 35.3395 90.8232 35.0853C90.7661 34.9071 90.7091 34.7288 90.6554 34.5506C90.5304 34.1435 90.3744 33.7463 90.189 33.3623C89.8374 32.6178 89.3336 31.9526 88.7091 31.4082C87.387 30.3024 86.2226 29.0349 84.6455 28.2493C85.1052 28.9457 85.9877 29.4376 86.6186 29.9525C87.2745 30.457 87.8792 31.023 88.4239 31.6425C89.4507 32.8539 90.0245 34.3294 90.8332 35.6795L90.8232 35.6927Z" fill="#ADD0F0"/>
<path d="M17.1506 20.2678C16.8956 23.2683 15.7715 26.0773 14.248 28.652C15.5668 27.7244 16.9661 26.9091 18.3217 26.0377C19.3821 25.3577 20.4123 24.5919 21.0599 23.4993C21.3619 22.991 21.4727 22.4002 21.7847 21.905C22.3116 21.0633 22.4022 22.9778 22.4189 23.2551C22.5486 24.764 22.4673 26.2834 22.1773 27.7706C21.8854 29.0613 21.1002 29.7181 19.9257 30.2859C18.55 30.9445 17.117 31.4803 15.644 31.8868C14.2682 32.2697 12.8554 32.547 11.5501 33.1477C10.3119 33.699 9.76156 34.4879 9.34211 35.7323C9.06102 36.4867 8.88493 37.275 8.81863 38.0759C8.7985 38.4324 9.09044 39.5348 8.48307 39.5216C7.67437 39.5216 8.14751 38.1782 8.2314 37.7722C8.31529 37.3662 8.40254 36.9437 8.46629 36.5245C8.49875 36.3358 8.51447 36.1448 8.51327 35.9534C8.51327 35.6729 8.53676 35.5936 8.26496 35.5342C8.75711 34.8146 9.25151 34.0962 9.74814 33.3788C10.1844 32.7516 10.832 32.1608 10.6172 31.3554C10.1877 29.7313 9.7582 28.1733 9.78169 26.4767C9.80518 24.8263 10.3421 23.2815 10.7716 21.707C10.9964 20.8752 11.2045 20.0401 11.4159 19.2049C11.5199 18.7857 11.6139 18.3632 11.7347 17.9473C11.8546 17.5885 12.0902 17.2779 12.4058 17.0627C12.7011 17.4065 12.8918 17.8252 12.9561 18.2708C13.0568 18.8253 13.1407 19.3832 13.2447 19.9212C13.4527 20.9973 13.748 22.0569 13.9896 23.1263C14.269 24.1144 14.3308 25.1497 14.1708 26.1631C13.9762 27.1237 13.4997 27.9951 13.0736 28.883C13.8453 28.2228 14.3353 27.2095 14.7514 26.3249C15.292 25.1964 15.7408 24.0275 16.0936 22.8293C16.237 22.3786 16.3535 21.9201 16.4426 21.4561C16.4761 21.2647 16.6171 20.7167 16.4728 20.5352C16.2614 20.2579 15.1305 21.4132 14.795 20.7233C14.4292 19.9641 15.7715 19.9113 16.1708 19.8057C15.2681 19.0828 14.5265 18.4358 14.0702 17.3499C13.6078 16.3253 13.4162 15.2023 13.5131 14.0853C13.6138 13.2832 13.9829 11.6361 15.1708 12.0817C15.503 12.2138 15.7715 12.8046 16.107 12.6429C16.2715 12.5702 16.409 12.2336 16.5298 12.0883C16.6793 11.9011 16.8569 11.7375 17.0567 11.6031C17.2515 11.4654 17.4733 11.369 17.7079 11.3199C17.9426 11.2708 18.185 11.2701 18.42 11.3179C18.6549 11.3657 18.8772 11.4609 19.0729 11.5975C19.2685 11.734 19.4332 11.909 19.5566 12.1114C19.6582 12.3027 19.7273 12.5089 19.7613 12.7221C19.8418 13.1215 19.8687 13.0522 20.2881 13.0522C20.5394 13.0153 20.796 13.0351 21.0384 13.11C21.2807 13.1849 21.5027 13.313 21.6874 13.4846C22.3384 14.1448 22.3317 15.3099 22.1874 16.1253C21.9756 17.1624 21.4435 18.1099 20.664 18.8386C20.2253 19.2736 19.7104 19.6269 19.1439 19.8816C18.7211 20.0698 17.9795 20.1193 18.3687 20.6936C18.5097 20.895 18.6841 21.0435 18.5633 21.301C18.4862 21.4693 18.2076 21.6641 18.0197 21.5948C17.8318 21.5254 17.7848 21.126 17.7177 20.9676C17.5992 20.6866 17.4027 20.4441 17.1506 20.2678ZM15.1373 17.066C15.4728 16.6798 15.8755 15.9767 16.4594 15.9239C16.6088 15.9243 16.7561 15.9594 16.8891 16.0266C17.0221 16.0937 17.137 16.1909 17.2245 16.3101C17.3788 16.4784 17.4996 16.7887 17.7647 16.8151C18.3251 16.8712 18.6707 16.0394 19.2848 16.3695C19.5301 16.5534 19.7422 16.7766 19.9123 17.0297C20.1707 17.3334 20.4324 17.6337 20.6942 17.9341C21.163 17.4599 21.5084 16.8812 21.7008 16.2474C21.8418 15.6796 21.9391 14.8214 21.7008 14.2669C21.5398 13.884 20.966 13.5473 20.5633 13.7751C20.3183 13.9104 20.2277 14.2207 20.0465 14.4121C19.9637 14.494 19.8686 14.563 19.7647 14.6168C19.5465 14.7356 19.5734 14.7389 19.4291 14.6168C18.9325 14.1613 19.3318 13.1611 19.0935 12.5901C18.8788 12.0685 18.1774 11.9827 17.6976 12.1642C16.4694 12.6264 16.56 14.3098 16.248 15.3397C15.9124 15.1647 15.7413 15.1086 15.6406 14.7257C15.5399 14.3428 15.7111 13.8972 15.7144 13.478C15.7178 13.0588 15.0701 12.4448 14.8319 13.0225C14.7722 13.3149 14.7642 13.6153 14.8084 13.9104C14.8084 14.2867 14.6876 14.6366 14.6809 15.0129C14.6885 15.7204 14.8426 16.419 15.1339 17.066H15.1373ZM21.0633 25.087C20.8384 24.9088 20.768 25.087 20.5599 25.2356C20.3519 25.3841 20.1875 25.503 20.0029 25.6416C19.6036 25.9387 19.211 26.239 18.8083 26.5262C18.0499 27.061 17.2211 27.4802 16.4594 27.9819C15.6838 28.4937 14.9356 29.0445 14.2178 29.6323C13.4796 30.2265 12.6474 30.8206 12.0937 31.5864C13.842 30.6985 15.5366 29.7082 17.2446 28.7378C17.9901 28.3399 18.6928 27.8687 19.3418 27.3316C20.07 26.688 20.5264 25.8826 21.0633 25.087ZM12.0031 29.3583C13.7011 26.9289 13.04 23.902 12.6138 21.1987C12.5937 21.0666 12.634 20.8323 12.4226 20.9181C12.3555 20.9445 12.3085 21.3769 12.295 21.4396C12.2112 21.8225 12.1474 22.2054 12.0937 22.5916C12.0043 23.3268 11.955 24.0661 11.9461 24.8065C11.9058 26.3249 11.9998 27.84 11.9897 29.3583H12.0031ZM18.9526 17.0462C18.6875 17.3169 18.4358 17.7064 18.0264 17.7526C17.6171 17.7988 17.3889 17.5314 17.1171 17.264C16.909 17.0561 16.7815 16.9109 16.4862 17.0297C16.1909 17.1485 15.7278 17.5875 15.7077 17.8417C15.6607 18.5019 17.0332 19.0168 17.5265 19.1356C18.4962 19.3766 19.2244 19.0531 20.023 18.5382C19.6977 18.0165 19.3355 17.5179 18.9392 17.0462H18.9526ZM19.2882 28.1007L13.2447 31.6887C14.4719 31.6212 15.6635 31.2589 16.7153 30.6334C17.7672 30.0078 18.6471 29.1383 19.2781 28.1007H19.2882ZM18.3352 30.1935C19.342 29.999 20.2337 29.4298 20.8245 28.6046C21.4152 27.7794 21.6594 26.7617 21.5062 25.7637C21.0901 27.6881 19.3452 28.6718 18.3251 30.1935H18.3352ZM11.2884 23.7139C10.9293 23.7139 10.7716 25.0342 10.7213 25.3643C10.6312 25.974 10.5997 26.5907 10.6273 27.2062C10.7027 28.4526 10.9279 29.6858 11.2984 30.88L11.2884 23.7139Z" fill="#ADD0F0"/>
<path d="M91.3265 69.3184C91.9507 70.2822 92.7527 71.1833 93.0043 72.3221C93.2023 73.1572 92.9775 74.57 91.9305 74.7648C90.9742 74.9397 90.2963 73.6821 90.1185 72.9295C90.0077 72.4515 90.0077 71.9551 90.1185 71.4771C90.1823 71.1965 90.2729 70.9226 90.3467 70.642C90.4406 70.2921 90.4239 70.028 90.1017 70.4373C89.4306 71.2791 88.538 72.1505 88.1219 73.1473C87.8904 73.7052 88.0414 74.1574 88.0246 74.7284C88.0144 75.2175 87.8831 75.6968 87.6421 76.1247C87.1723 76.9565 86.1689 77.7124 85.2025 77.1678C84.3468 76.6858 84.3468 75.6098 84.773 74.8308C85.2898 73.8801 86.4206 73.4048 87.1421 72.6291C88.0548 71.6455 88.9619 70.6552 89.8635 69.6583C88.8333 69.8399 86.981 70.4637 86.075 69.688C85.9078 69.5044 85.7729 69.2947 85.6757 69.0675C85.6052 68.952 85.4408 68.8496 85.4039 68.7374C85.3669 68.6252 85.4341 68.5526 85.5381 68.4073C85.8747 67.9341 86.3398 67.5635 86.8803 67.3379C88.1118 66.879 89.491 67.4732 90.7561 67.5128C91.4708 67.5326 91.8131 67.1563 92.256 66.6381C92.7 66.1287 93.0539 65.5496 93.303 64.9249C92.4876 65.0009 91.8232 65.09 91.0178 64.8787C90.4507 64.7302 89.6756 64.6147 89.2628 64.1492C89.0836 63.9631 88.9868 63.7147 88.9938 63.4585C89.0007 63.2022 89.1107 62.9592 89.2997 62.7827C89.8098 62.2711 90.548 62.2512 91.2191 62.3668C92.2829 62.5516 94.1687 63.192 94.756 61.9311C95.3801 60.5843 95.5714 59.2013 95.7626 57.7555C94.5446 58.6665 93.2157 60.1684 91.5413 59.4059C90.8232 59.0758 90.397 58.3563 90.7259 57.5938C91.0547 56.8313 91.8802 56.9105 92.5446 56.8049C92.9909 56.7322 93.4372 56.6332 93.8869 56.5738C94.0886 56.5404 94.293 56.5249 94.4976 56.5276C94.6251 56.5276 94.7459 56.6068 94.8633 56.6167C95.2425 56.6497 95.2324 56.2503 95.3499 55.94C95.51 55.6608 95.6083 55.3515 95.6385 55.0323C95.5949 54.1015 95.2526 53.1343 95.0882 52.2167C94.9976 51.7282 94.9137 51.2264 94.8466 50.7511C94.7794 50.2758 94.8465 50.2428 95.1586 49.8863C95.3676 50.1181 95.4917 50.4121 95.511 50.7214C95.5512 51.1571 95.568 51.5961 95.6284 52.0417C95.778 52.88 95.99 53.7064 96.2626 54.5141C96.5316 55.322 96.7017 56.1586 96.7693 57.0062C96.8416 57.892 96.9615 58.7735 97.1284 59.6469C97.1519 59.7822 97.1284 60.076 97.2425 60.1816C97.3566 60.2873 97.474 60.2278 97.6787 60.1816C98.0702 60.0763 98.4742 60.023 98.88 60.0232C99.5511 60.0232 100.454 60.2245 100.914 60.7494C101.096 60.9793 101.23 61.243 101.307 61.5249C101.384 61.8068 101.402 62.101 101.361 62.39C101.319 62.679 101.219 62.9568 101.066 63.2069C100.913 63.457 100.711 63.6742 100.471 63.8456C99.6652 64.3605 98.9639 63.6145 98.3465 63.1623C98.0061 62.938 97.7076 62.6577 97.4639 62.3338C97.2802 62.0085 97.0546 61.7079 96.7928 61.4393C96.7156 63.0897 96.0915 64.7863 96.4573 66.4433C96.5344 66.7734 96.5915 66.7272 96.9304 66.7107L97.5378 66.6711C97.9418 66.6331 98.3485 66.6331 98.7525 66.6711C99.5439 66.7797 100.282 67.1255 100.867 67.6613C101.326 68.1301 101.088 68.8925 100.823 69.4042C100.487 70.0643 100.101 70.5661 99.3095 70.4869C98.6193 70.4043 97.9715 70.1151 97.4539 69.6583C97.208 69.447 96.9924 69.2038 96.813 68.9355C96.6385 68.678 96.5713 68.2753 96.2224 68.2324C96.3868 69.1038 96.4136 70.137 96.776 70.9556C97.0847 71.6587 97.7995 72.1571 98.2458 72.7677C99.0109 73.8174 99.3901 76.0224 97.6384 76.3228C96.4573 76.5274 95.1989 75.5107 95.5647 74.3422C95.6964 73.9887 95.8084 73.6284 95.9002 73.2629C95.9841 72.8371 96.2056 72.4311 96.2358 71.9986C96.323 71.1437 95.9841 70.137 95.7425 69.325C94.7358 70.1106 93.6553 71.1272 92.3567 70.1964C92.2466 70.1312 92.1508 70.045 92.0752 69.9427C91.9996 69.8405 91.9457 69.7243 91.9166 69.6012C91.8875 69.478 91.8838 69.3504 91.9058 69.2258C91.9278 69.1013 91.975 68.9823 92.0446 68.8761C92.3802 68.3644 93.1922 68.2588 93.6889 67.9254C94.2374 67.5455 94.7376 67.1022 95.1788 66.6051C95.6788 66.0637 95.672 65.3871 95.766 64.684C95.9942 63.0105 96.3734 61.2643 96.2861 59.5743C95.3432 63.0963 93.5043 66.3476 91.3265 69.3184ZM96.823 67.6679C97.1586 68.3281 97.4941 68.9619 98.1418 69.3844C98.6049 69.6848 99.6518 70.0445 99.9572 69.3844C100.263 68.7242 100.226 68.1037 99.484 67.8033C98.6015 67.4369 97.7425 67.6052 96.823 67.6679ZM97.5143 60.9804C97.6805 61.5928 98.0621 62.1274 98.5914 62.4889C99.0042 62.7827 99.9974 63.6508 100.356 62.819C100.588 62.2909 100.598 61.5581 100.095 61.1686C99.4907 60.7362 98.2223 60.9903 97.5143 60.9903V60.9804ZM96.8432 72.6126C96.7693 73.0252 96.7223 73.4444 96.6217 73.8537C96.5255 74.1099 96.4634 74.3773 96.4371 74.6492C96.4835 74.864 96.5836 75.064 96.7283 75.2311C96.873 75.3983 97.0578 75.5273 97.266 75.6065C97.8968 75.7979 97.9572 74.5601 97.9539 74.1574C97.943 73.822 97.8318 73.4972 97.6343 73.2236C97.4367 72.95 97.1615 72.7398 96.8432 72.6192V72.6126ZM90.2661 68.3281C89.6319 68.1466 88.9239 67.8462 88.2528 67.8561C87.7226 67.8561 86.9642 68.1532 86.7461 68.678C86.4105 69.4702 87.7528 69.1104 88.0884 69.0444C88.8458 68.911 89.5795 68.6697 90.2661 68.3281ZM91.6621 74.0584C92.2359 73.1869 91.9037 71.3814 91.0816 70.7575C90.4943 72.2627 90.5749 73.5599 91.6755 74.065L91.6621 74.0584ZM87.1588 74.032C86.6102 74.2466 86.1262 74.5954 85.7528 75.0453C85.5448 75.3358 85.169 76.1214 85.5247 76.4383C85.9777 76.841 86.6589 76.1577 86.8669 75.821C87.196 75.2869 87.3052 74.6493 87.1723 74.0386L87.1588 74.032ZM94.7123 57.2901C93.9875 57.4287 93.256 57.5509 92.5345 57.7093C92.0513 57.8116 91.1923 58.0823 91.7963 58.65C92.7426 59.5215 94.2291 58.0262 94.7258 57.2967L94.7123 57.2901ZM93.3265 63.4528C92.6251 63.3438 91.8869 63.1227 91.1722 63.1953C90.6118 63.2481 89.7527 63.5254 90.6621 63.9182C91.7661 64.3869 92.4976 64.3275 93.3399 63.4594L93.3265 63.4528ZM95.1016 67.526C94.5982 67.9287 94.0949 68.3248 93.5916 68.7341C93.372 68.877 93.1902 69.0694 93.0614 69.2952C92.9238 69.5923 93.1251 69.6814 93.4372 69.731C93.9204 69.8102 94.2962 69.2655 94.5815 68.9388C94.7739 68.7602 94.922 68.5405 95.0145 68.2967C95.107 68.0529 95.1414 67.7915 95.115 67.5326L95.1016 67.526Z" fill="#ADD0F0"/>
<path d="M5.82207 55.2535C5.6006 56.4286 3.97312 57.8017 2.71477 57.3528C0.963136 56.7289 2.10069 54.8607 3.23153 54.2731C3.50096 54.13 3.79221 54.0308 4.09393 53.9793C4.33553 53.9364 4.90934 54.0388 5.05028 53.9034C5.35228 53.6096 4.90263 52.5237 4.76505 52.2299C4.70465 52.1012 4.46975 51.5697 4.28855 51.5697C4.10735 51.5697 3.7181 52.0814 3.58387 52.1771C2.98504 52.5771 2.25842 52.7484 1.5403 52.659C-0.120728 52.4643 -0.503268 50.7511 0.711465 49.7213C0.942049 49.5104 1.22827 49.3677 1.53743 49.3093C1.84658 49.2509 2.1662 49.2793 2.45974 49.3912C2.75674 49.504 3.03672 49.6561 3.29193 49.8434C3.4228 49.9391 3.6879 50.2428 3.83554 50.1438C3.98319 50.0447 3.69796 49.6123 3.61407 49.4374C3.42616 49.0314 3.23824 48.6254 3.04697 48.2194C2.8557 47.8134 2.58725 47.6681 2.18794 47.4041C1.57721 47.0047 0.84569 46.6779 0.583952 45.955C0.174566 44.7931 0.885957 43.3143 2.28189 43.3737C2.59507 43.3945 2.89276 43.5154 3.12962 43.718C3.36648 43.9206 3.52953 44.1938 3.59394 44.496C3.85568 45.4302 3.31878 46.3181 3.50669 47.2357C3.70132 48.226 4.21473 49.1964 4.59391 50.1206C4.98281 51.1349 5.45062 52.1182 5.9932 53.0617C6.17441 52.0186 6.28514 50.9591 6.56701 49.9391C6.83546 48.9819 7.27169 48.0741 7.6341 47.1532C7.73477 46.899 7.93946 46.5326 7.75155 46.2719C7.56363 46.0111 6.93613 45.9418 6.64084 45.813C5.95454 45.4889 5.38548 44.9659 5.01001 44.3145C4.53687 43.3638 5.01001 41.3866 6.31199 41.4163C6.64594 41.428 6.96987 41.5316 7.24691 41.7154C7.52394 41.8993 7.74297 42.1559 7.87906 42.4561C7.99663 42.8721 8.07747 43.2973 8.12066 43.7269C8.22469 44.2881 8.34214 44.8459 8.45623 45.4037C8.99984 44.6115 9.56022 43.8391 10.134 43.0734C10.7078 42.3076 11.3421 41.5715 11.6038 40.6736C11.7414 40.1851 11.6038 39.9739 11.4293 39.5216C11.2878 39.1287 11.1811 38.7245 11.1105 38.3135C11.0425 37.9191 11.078 37.514 11.2137 37.1368C11.3493 36.7596 11.5806 36.4227 11.8857 36.1581C12.342 35.828 13.3655 35.9666 13.8688 36.135C14.7379 36.4254 14.9259 37.1879 14.5634 37.9306C14.4161 38.2651 14.2231 38.5783 13.9896 38.8615C13.7313 39.1519 13.3789 39.2411 13.1038 39.4853C12.8286 39.7296 12.7682 40.2049 12.6306 40.4987C12.4528 40.9377 12.2951 41.38 12.1071 41.819C12.8991 41.819 14.7346 41.786 14.9259 42.8093C15.1507 44.0174 13.4058 44.4993 12.4964 44.4927C11.8488 44.4927 11.2884 44.2749 10.624 44.364C9.95954 44.4531 9.74814 44.7337 9.44949 45.2948C9.11393 45.9187 8.7985 46.5557 8.48307 47.1895C8.16764 47.8233 7.79181 48.3877 7.7247 49.0644C8.15758 48.7904 8.49649 48.4471 9.01661 48.3514C9.5198 48.2689 10.0359 48.3085 10.5199 48.4669C11.3186 48.7079 12.5333 49.3119 12.1138 50.322C11.8488 50.9822 10.8119 51.6423 10.1206 51.3981C9.60745 51.1974 9.11242 50.9545 8.64079 50.6719C8.33207 50.4969 7.93275 50.0117 7.57034 50.2791C7.20794 50.5465 7.19787 51.1142 7.13076 51.4806C7.01667 52.088 6.91264 52.6986 6.81533 53.306C6.63748 54.4481 6.83546 55.567 6.94284 56.7025C7.06918 57.8494 7.08491 59.0054 6.98982 60.1552C6.98182 60.6565 6.88882 61.1529 6.71466 61.6241C6.58044 61.9047 6.26165 62.238 6.04354 61.8089C5.88582 61.4789 6.11065 60.8451 6.17105 60.5348C6.30163 59.9503 6.37023 59.3541 6.37574 58.7557C6.37574 58.1219 6.2885 57.4914 6.21467 56.861C6.19119 56.5771 6.12743 55.2436 5.82207 55.2535ZM6.57373 42.0699C6.16098 42.2349 5.9026 42.2217 5.82207 42.7036C5.75755 43.0822 5.77239 43.4697 5.86569 43.8424C5.94943 44.1486 6.10917 44.4296 6.33056 44.66C6.55196 44.8905 6.82807 45.0632 7.13411 45.1628C7.36901 45.242 7.67772 45.3707 7.80524 45.1199C7.93275 44.869 7.64417 44.1296 7.59719 43.8887C7.46968 43.1658 7.50994 42.2019 6.57373 42.0699ZM3.7181 50.8039C3.12415 50.4078 2.41276 49.708 1.63426 49.8896C1.48233 49.9229 1.33905 49.9868 1.21346 50.0772C1.08786 50.1677 0.982659 50.2827 0.904484 50.4151C0.826308 50.5475 0.77685 50.6944 0.759224 50.8465C0.741597 50.9987 0.756184 51.1527 0.802067 51.2991C1.25172 52.5732 3.26844 51.5433 3.7181 50.8039ZM2.71141 46.9551C2.92282 46.2323 3.14764 45.4698 2.94966 44.7139C2.77181 44.024 2.33223 43.7599 1.71815 44.2088C1.47964 44.3705 1.30591 44.609 1.2269 44.8831C1.14788 45.1573 1.16853 45.4499 1.28528 45.7107C1.55037 46.3214 2.1678 46.6218 2.71141 46.9551ZM12.0333 39.4985C12.5434 39.0793 13.1742 38.7955 13.4863 38.1782C13.748 37.6765 14.0098 36.9272 13.3017 36.6697C13.0513 36.5952 12.7828 36.6058 12.5393 36.6999C12.2957 36.7939 12.0915 36.9658 11.9595 37.1879C11.5535 37.8943 11.8521 38.7889 12.0333 39.4985ZM8.36227 49.8731C8.75488 50.0876 9.14413 50.3121 9.54009 50.5333C9.83203 50.6884 10.1642 50.9327 10.5132 50.8633C11.0333 50.7676 11.5535 49.8302 11.1172 49.4044C10.8387 49.1271 10.0434 49.0743 9.68103 49.0743C9.40374 49.0541 9.12705 49.1205 8.8903 49.2639C8.65354 49.4073 8.46878 49.6204 8.36227 49.8731ZM10.6005 43.7071C10.7112 43.9415 11.4159 43.7698 11.6776 43.7995C12.0937 43.849 12.4091 43.9943 12.8353 43.9052C13.2615 43.816 14.4494 43.344 13.899 42.7367C13.5266 42.3241 12.483 42.4297 12.0132 42.6442C11.4696 42.9116 11.1239 43.4232 10.6005 43.7071ZM2.50336 56.2503C2.71477 56.455 2.77517 56.6827 3.09731 56.6794C3.41358 56.6298 3.70846 56.491 3.94628 56.28C4.31875 55.9995 4.98652 55.3558 4.89592 54.831C4.78518 54.2137 3.95635 54.5999 3.63756 54.7913C3.12751 55.095 2.57719 55.6298 2.50336 56.2437V56.2503Z" fill="#ADD0F0"/>
<path d="M63.7299 13.1281C63.9313 12.7287 64.1964 12.7056 64.5957 12.798C65.0755 12.9267 65.5487 13.0555 66.0285 13.1677C66.4988 13.3262 66.9799 13.4519 67.4681 13.544C67.9916 13.5935 68.4949 13.3757 69.0016 13.2997C68.666 11.9794 68.5117 10.6855 69.1929 9.43115C69.5586 8.77098 70.1157 8.60263 70.8271 8.39468C71.2532 8.27255 72.025 8.01178 72.4378 8.30886C72.7733 8.55642 72.619 8.96903 72.5619 9.29911C72.468 9.86686 72.733 10.4181 72.5955 10.9924C72.2868 12.2798 70.5318 12.7188 70.0284 13.884C71.3371 14.1514 73.2532 14.9997 74.2766 13.7354C74.6961 13.2139 74.8538 12.5769 75.384 12.1279C75.9142 11.679 76.6558 11.514 77.3772 11.339C77.9678 11.1971 78.7597 11.009 79.1255 11.6328C79.5517 12.3755 79.0315 12.9531 78.5517 13.4912C78.141 14.0194 77.5409 14.3736 76.8739 14.4814C76.0048 14.6036 75.1759 14.663 74.3169 14.8643L78.5215 16.8448C78.7664 16.9604 78.7463 16.934 78.9678 16.8448C79.1568 16.7534 79.3357 16.6428 79.5013 16.5148C79.8369 16.3035 80.1926 16.0956 80.5416 15.8909C81.1017 15.5263 81.7725 15.3631 82.4408 15.4288C83.0281 15.4618 83.8401 15.4288 84.0817 16.0889C84.1567 16.3358 84.1779 16.5954 84.1437 16.8508C84.1096 17.1062 84.021 17.3516 83.8838 17.571C83.518 18.086 82.7093 18.1091 82.1321 18.1487C81.388 18.1791 80.6429 18.1181 79.9141 17.9671C80.555 18.5943 81.1355 19.3205 81.9509 19.7364C82.6825 20.1061 83.461 20.2018 84.1153 20.7266C85.2461 21.6542 85.8703 23.8558 83.8804 24.1793C83.5291 24.2497 83.1658 24.2377 82.8201 24.1442C82.4744 24.0507 82.1559 23.8784 81.8905 23.6413C81.2194 22.9613 81.3805 22.1823 81.414 21.3307C81.4476 20.4791 80.451 19.5548 79.8402 18.9343C79.1132 18.2332 78.2582 17.6733 77.3202 17.2839C77.6557 17.944 78.1624 18.4259 78.4007 19.1356C78.5953 19.71 78.7799 20.5451 78.5785 21.1425C78.3772 21.74 77.7832 21.7433 77.2363 21.7499C76.9443 21.7499 76.6021 21.8159 76.3773 21.5849C76.1974 21.3073 76.0827 20.9938 76.0417 20.6672C75.808 19.8857 75.7082 19.0714 75.7464 18.2576C75.79 17.5974 75.8873 16.9835 75.3873 16.4388C74.8874 15.8942 74.1357 15.6301 73.4478 15.4189C72.6786 15.1195 71.8803 14.8983 71.0653 14.7587C71.5385 15.4882 72.1928 16.1352 72.6324 16.8745C72.7462 17.1153 72.8075 17.377 72.8121 17.6425C72.8167 17.908 72.7646 18.1716 72.6592 18.416C72.478 18.9244 72.176 19.3832 71.6056 19.1125C71.0351 18.8419 70.515 18.6537 70.213 18.1388C69.8237 17.4786 69.9445 16.5379 69.8774 15.8084C69.8103 15.0789 69.3137 14.696 68.6258 14.3923C67.0855 13.7751 65.3104 13.7321 63.7299 13.1281ZM82.2999 20.8191C82.1422 21.4792 81.8704 22.3407 82.3268 22.9415C82.5173 23.1752 82.7673 23.3551 83.0513 23.4629C83.3354 23.5707 83.6435 23.6027 83.9442 23.5555C85.9542 23.232 82.8603 21.1689 82.2999 20.8191ZM71.7197 9.08786C71.3103 9.22979 70.8875 9.34532 70.4848 9.50706C70.0821 9.66881 70.0284 9.83715 69.8908 10.2068C69.6022 10.9934 69.574 11.8495 69.8103 12.6528C70.2739 12.215 70.6516 11.6969 70.9244 11.1245L71.7197 9.08786ZM80.0718 17.3664C80.7429 17.5083 83.5113 18.1784 83.4677 16.9142C83.4475 16.3167 82.4274 16.4223 82.018 16.452C81.206 16.5049 80.7362 16.9472 80.0718 17.3664ZM75.3739 13.7354C76.998 13.8345 78.2463 13.2733 78.5215 12.3359C77.5752 11.8837 75.733 12.6825 75.3873 13.7288L75.3739 13.7354ZM76.6491 18.0265C76.6054 18.5085 76.592 21.5716 77.6323 21.0468C78.6725 20.522 77.2329 18.4226 76.6625 18.0364L76.6491 18.0265ZM70.9445 16.2375C70.8018 16.6833 70.8018 17.1615 70.9445 17.6073C71.0653 17.8978 71.4479 18.3401 71.817 18.2972C72.8471 18.1883 71.1391 16.4619 70.9445 16.2474V16.2375Z" fill="#ADD0F0"/>
<path d="M12.1843 54.5801C12.7783 54.656 13.7984 54.5801 14.1977 55.1181C14.597 55.6562 14.1239 56.2536 13.7346 56.6167C13.2532 57.0477 12.6238 57.2836 11.9729 57.2769C11.5309 57.3177 11.0931 57.395 10.6642 57.5079C10.3824 57.5707 9.93605 57.7588 9.64076 57.6796C8.8589 57.465 9.1542 56.3956 9.32533 55.9103C9.58707 55.1676 9.84545 54.2863 10.332 53.646C10.6038 53.2796 11.5132 52.4345 12.0098 52.6359C12.7816 52.9363 12.3185 54.052 12.1843 54.5801ZM10.5367 56.6068C10.8723 56.5837 11.238 56.5177 11.5904 56.5276C11.8559 56.5557 12.1243 56.5424 12.3857 56.488C12.6977 56.3989 13.7917 55.8278 13.5031 55.3987C13.2145 54.9696 12.2481 55.237 11.9058 55.4218C11.3936 55.7496 10.9324 56.1487 10.5367 56.6068ZM11.6743 53.306C10.9461 53.5865 9.81861 54.8343 9.99646 55.676C10.7548 55.1247 11.9293 54.4349 11.6743 53.3027V53.306Z" fill="#ADD0F0"/>
<path d="M62.5588 16.8911C62.4078 17.2971 62.3441 17.9737 61.8139 18.0397C61.2837 18.1058 60.5522 17.6667 60.2569 17.2706C59.8441 16.7128 59.9213 15.9503 59.871 15.3099C59.8206 14.6696 59.4716 13.95 60.2804 13.7453C60.3609 14.2174 60.4481 14.6927 60.5186 15.168C60.54 15.59 60.6029 16.009 60.7065 16.419C60.8206 16.726 61.4481 17.4885 61.8038 17.099C62.4749 16.386 59.5455 13.6199 61.2971 13.577C61.9246 13.5605 62.73 13.983 63.2434 14.2999C63.8311 14.6611 64.3463 15.1254 64.7635 15.6697C65.2265 16.2705 65.4044 16.9505 64.6494 17.4324C63.8944 17.9143 63.1796 17.3334 62.5588 16.8911ZM62.0219 14.4319C61.8441 14.6894 62.2233 15.0558 62.3843 15.3066C62.5454 15.5575 62.7501 15.8975 62.9783 16.1748C63.2065 16.452 63.9548 17.2277 64.3876 16.8778C65.3071 16.1352 62.4615 14.6696 62.0219 14.4319Z" fill="#ADD0F0"/>
<path d="M90.7561 80.4389C90.7561 81.1849 91.0111 82.5052 90.3332 83.0598C89.746 83.5351 89.0246 82.5349 88.7796 82.0695C88.3736 81.2905 88.6051 80.5544 88.7225 79.7391C88.8088 79.3556 88.8471 78.9632 88.8366 78.5706C88.8031 78.2868 88.642 78.0788 88.9306 77.8708C89.3601 77.5639 90.3668 77.7454 90.8366 77.8708C91.4695 78.0559 92.0211 78.444 92.4037 78.9733C92.756 79.4619 93.1419 80.3168 92.6184 80.8449C92.0949 81.373 91.2225 80.7789 90.7561 80.4389ZM91.9808 80.5016C92.3701 79.9504 91.8164 79.3694 91.3768 79.036C90.8644 78.6637 90.2285 78.4941 89.595 78.5607C89.6094 78.74 89.662 78.9144 89.7494 79.0724C89.9768 79.269 90.2295 79.4355 90.501 79.5675C91.001 79.8811 91.4909 80.2111 91.9808 80.5016ZM89.3467 79.8415C89.2352 80.3285 89.1935 80.8284 89.2225 81.3268C89.2527 81.5744 89.538 82.5481 89.8937 82.3699C90.1823 82.2247 90.0111 81.3961 89.9809 81.1651C89.9296 80.6646 89.7058 80.1963 89.3467 79.8382V79.8415Z" fill="#ADD0F0"/>
<path d="M89.1185 21.2218C89.5279 21.4693 90.4843 21.9777 90.0547 22.5421C89.6621 23.0735 88.9306 23.0207 88.34 22.9019C87.6635 22.7509 87.0597 22.377 86.6287 21.8423C86.437 21.6309 86.184 21.4823 85.9038 21.4165C85.6455 21.3274 85.4273 21.2119 85.5683 20.9049C85.7092 20.5979 86.179 20.5286 86.4474 20.4197C86.797 20.2592 87.1335 20.0727 87.4541 19.8618C88.1077 19.4125 88.8533 19.1094 89.6386 18.9739C90.2494 18.9046 90.9574 19.0003 90.7493 19.8024C90.5782 20.4032 89.6219 20.9181 89.1185 21.2218ZM87.8635 20.5055C88.6185 20.5055 89.2762 20.5055 89.7829 19.875C89.4357 19.8385 89.0846 19.8758 88.7534 19.9846C88.4222 20.0934 88.1187 20.2711 87.8635 20.5055ZM87.7092 21.532C87.4441 22.1922 88.7863 22.3011 89.1923 22.1328L87.7092 21.532Z" fill="#ADD0F0"/>
<path d="M98.3767 51.4938C98.9391 51.1723 99.574 50.9933 100.224 50.9732C100.874 50.953 101.519 51.0922 102.101 51.3783C102.504 51.5763 102.83 51.88 102.695 52.3685C102.561 52.8571 101.84 53.0287 101.41 53.2399C102.152 53.6195 102.474 54.8376 101.95 55.501C101.152 56.5111 100.162 55.501 99.5679 54.8409C98.8758 54.0349 98.2968 53.1412 97.8465 52.1837C97.7156 51.9163 97.5948 51.6489 97.4673 51.3783C97.3968 51.2297 97.3331 51.1835 97.4169 51.0647C97.4994 50.9808 97.6107 50.9302 97.729 50.9228C98.0679 50.9029 98.182 51.2792 98.3767 51.4938ZM99.2692 53.1145C99.2088 53.3753 99.5343 53.6261 99.6954 53.8242C99.9337 54.1246 100.172 54.4216 100.417 54.7154C100.662 55.0092 101.249 55.9367 101.575 55.1775C102.125 53.9001 100.051 53.4314 99.2692 53.1079V53.1145ZM98.531 51.9196C99.0302 52.3348 99.6481 52.5874 100.299 52.6425C100.759 52.7151 101.42 52.8802 101.803 52.5105C102.138 52.2035 101.924 52.0648 101.588 51.913C101.292 51.7825 100.973 51.7129 100.648 51.7084C99.937 51.6786 99.2424 51.8833 98.531 51.913V51.9196Z" fill="#ADD0F0"/>
<path d="M52.549 90.381C52.6363 89.8529 52.7302 89.0805 53.3745 88.932C53.9584 88.7966 54.4114 89.3149 54.6161 89.7803C54.9315 90.5032 55.106 91.2558 54.7604 91.9985C54.5876 92.2872 54.4351 92.5871 54.304 92.8963C54.2235 93.1472 54.2604 93.6423 53.9886 93.7908C53.4114 94.1209 52.8846 93.2264 52.5322 92.9392C51.9592 92.4894 51.4219 91.9972 50.9249 91.467C50.5424 91.0511 49.8847 90.3579 50.69 89.9618C51.4048 89.6054 51.9685 90.0312 52.549 90.381ZM53.492 89.6615C53.2614 90.0618 53.164 90.5231 53.2134 90.9807C53.2627 91.4382 53.4563 91.8691 53.7671 92.213C54.0619 91.8339 54.1977 91.358 54.1465 90.8833C54.0953 90.4086 53.861 89.9713 53.492 89.6615ZM52.6195 92.4144C52.7168 91.7971 51.7571 90.5989 51.0692 90.4801C50.9752 90.9653 51.5692 91.708 52.6195 92.4243V92.4144Z" fill="#ADD0F0"/>
<path d="M27.6503 84.938C27.287 84.846 26.9649 84.6382 26.7343 84.3471C26.5105 84.043 26.3309 83.7097 26.2007 83.3568C25.9759 82.7825 25.637 81.9936 25.6907 81.3763C25.6995 81.2384 25.7385 81.104 25.8051 80.9824C25.8718 80.8607 25.9644 80.7547 26.0766 80.6716C26.1888 80.5885 26.318 80.5302 26.4553 80.5009C26.5926 80.4716 26.7347 80.4718 26.8718 80.5016C27.496 80.5973 27.5866 81.2179 27.6302 81.7328C28.0362 81.3466 28.5127 80.7624 29.1402 81.0727C29.3936 81.2385 29.6008 81.464 29.7432 81.7285C29.8856 81.9931 29.9586 82.2884 29.9557 82.5877C29.8953 83.2479 29.3248 83.7662 28.9121 84.2382C28.7007 84.4725 28.4188 84.9479 28.1268 85.0766C27.8953 85.1822 27.8316 85.0733 27.6503 84.938ZM27.9289 83.9675C29.0631 83.0829 29.2376 82.5052 28.6302 81.7526C28.0228 82.3534 27.8517 83.0763 27.9289 83.9675ZM27.1269 83.7265C27.1 82.8155 27.0866 81.9375 26.6403 81.109C26.1974 81.4886 26.4826 82.9112 27.1269 83.7265Z" fill="#ADD0F0"/>
<path d="M55.6228 101.284C55.1731 101.389 54.1497 101.868 53.804 101.363C53.5154 100.944 53.8711 100.152 54.1597 99.8182C54.6194 99.29 55.2167 99.3164 55.814 99.0623C56.012 98.9764 56.1496 98.8906 56.1496 98.6695C56.1664 98.5341 56.0791 98.4252 56.0724 98.2965C56.0807 98.1388 56.1077 97.9826 56.153 97.8311C56.7899 98.4062 57.2216 99.1677 57.3845 100.003C57.5556 100.703 57.72 101.558 57.3643 102.228C57.1563 102.637 56.5221 103.469 55.9684 103.297C55.2939 103.083 55.5724 101.785 55.6228 101.284ZM55.8979 99.6333C55.3744 99.6069 54.2537 99.9865 54.4819 100.699C54.71 101.412 55.7033 99.8545 55.8979 99.6267V99.6333ZM56.7167 100.313L56.5254 100.277C56.4415 100.937 56.361 101.62 56.2771 102.294C56.8711 101.749 56.814 101.026 56.71 100.307L56.7167 100.313Z" fill="#ADD0F0"/>
<path d="M69.1056 88.6811C68.26 88.4468 68.062 87.7239 67.5989 87.0967C67.0956 86.4167 66.297 85.8457 65.4077 86.0503C65.7433 86.9053 66.5218 87.1561 67.2902 87.5258C67.6258 87.681 68.109 87.8559 67.703 88.2223C67.3092 88.4848 66.8337 88.6018 66.3607 88.5524C65.8507 88.5524 65.3373 88.5293 64.8272 88.5062C64.448 88.4897 63.8943 88.5722 63.5554 88.3543C63.0655 88.0242 63.0353 87.0109 63.4816 86.6478C63.7433 86.4365 64.1863 86.6016 64.5051 86.6478C64.9849 86.7039 64.891 86.6313 64.8205 86.2154C64.6762 85.3869 65.4916 85.268 66.1628 85.4133C67.8137 85.7665 68.411 87.3707 69.1056 88.6811ZM66.1057 87.846C65.1997 87.3509 64.5118 87.265 63.8507 87.5423C64.0923 87.9318 65.3306 88.1035 66.1057 87.846Z" fill="#ADD0F0"/>
<path d="M4.18789 35.2074C4.14091 34.4648 3.87246 33.1807 4.43285 32.5404C4.90599 31.999 5.67107 32.8902 5.91939 33.2797C6.25303 33.8341 6.38554 34.4835 6.29521 35.1216C6.24824 35.5738 6.13415 36.0194 6.08046 36.4717C6.04085 36.6528 6.03291 36.8392 6.05697 37.0229C6.09388 37.1945 6.22475 37.3299 6.24152 37.5081C6.28515 37.9273 5.93616 37.858 5.62074 37.7887C5.23148 37.6996 4.8523 37.6369 4.46305 37.5609C3.81933 37.4191 3.23438 37.0889 2.78524 36.6136C2.4027 36.2241 2.04029 35.6233 2.24499 35.0589C2.51008 34.3591 3.75501 35.049 4.18789 35.2074ZM5.12746 33.0586C4.51674 33.6957 4.83888 35.7521 5.59054 36.2208C5.78516 35.1249 6.12408 34.0257 5.12746 33.0586ZM2.94295 35.2999C2.80537 36.1251 3.94964 36.98 4.98317 36.8381C4.83217 36.0789 3.8389 35.3197 2.94295 35.2999Z" fill="#ADD0F0"/>
<path d="M91.1822 51.2759C90.7024 51.2 89.9641 51.2033 90.0145 50.5531C90.083 50.0372 90.3266 49.5592 90.7057 49.1964C91.1438 48.8498 91.6239 48.5582 92.1352 48.3283C92.5412 48.0972 93.105 47.8629 93.2392 48.4834C93.336 49.1275 93.3439 49.7815 93.2627 50.4276C93.2124 51.0515 93.1184 51.781 92.7258 52.2959C92.4607 52.626 91.9607 53.1046 91.4943 52.8307C91.0279 52.5567 91.1252 51.7348 91.1822 51.2759ZM92.5983 49.6255C92.1553 50.4078 91.803 51.2066 92.0312 52.1672C92.7795 51.408 92.6889 50.5036 92.6151 49.6288L92.5983 49.6255ZM91.9674 49.1337C91.4473 49.4638 90.7628 49.8764 90.9104 50.5498C91.4574 50.3088 91.6788 49.642 91.9674 49.137V49.1337Z" fill="#ADD0F0"/>
<path d="M59.126 95.9628C58.6126 95.6327 58.814 95.2333 59.2871 94.9098C59.6428 94.6655 60.4448 94.2892 60.8911 94.3487C61.3374 94.4081 61.2568 95.1178 61.0052 95.3587C60.6025 95.7515 59.6529 95.8208 59.126 95.9628Z" fill="#ADD0F0"/>
<path d="M100.279 44.3376C100.799 43.2384 102.054 43.6477 102.665 44.4597C103.001 44.8987 102.789 45.2816 102.246 45.1199C101.578 44.9119 100.93 44.5983 100.279 44.3376Z" fill="#ADD0F0"/>
<path d="M4.55365 65.6874C4.07044 65.3574 3.33892 65.0471 2.96645 64.6015C2.59397 64.1558 3.01343 63.8918 3.4765 63.9413C4.28185 64.037 5.39256 64.9613 4.55365 65.6874Z" fill="#ADD0F0"/>
<path d="M63.9246 101.069C63.8675 101.521 63.391 102.34 62.9179 102.462C62.3642 102.597 62.4011 101.914 62.5186 101.591C62.6637 101.144 62.9279 100.744 63.2836 100.432C63.7568 100.072 63.9313 100.65 63.9246 101.069Z" fill="#ADD0F0"/>
<path d="M97.6485 47.4635C97.3465 47.886 97.1015 48.2062 96.5814 47.7638C96.2895 47.4394 96.1325 47.0186 96.1418 46.5854C96.1418 46.2257 96.3935 45.8692 96.813 46.0771C97.2324 46.2851 97.4438 47.0839 97.6485 47.4635Z" fill="#ADD0F0"/>
<path d="M10.5501 61.4954C10.5501 61.8089 10.436 62.4856 9.98975 62.0862C9.62357 61.636 9.37166 61.1064 9.25486 60.5414C9.21124 60.0628 9.69445 59.9341 10.0468 60.1618C10.4797 60.449 10.5568 61.0266 10.5501 61.4954Z" fill="#ADD0F0"/>
<path d="M95.1049 46.7142C95.2964 46.8404 95.4574 47.0062 95.5768 47.2001C95.6962 47.3939 95.7711 47.6111 95.7962 47.8365C95.8734 48.1897 96.0277 48.8597 95.4136 48.7739C94.9271 48.7046 94.5848 48.1401 94.558 47.711C94.5383 47.5102 94.5798 47.3082 94.6772 47.1307C94.7746 46.9532 94.9235 46.8082 95.1049 46.7142Z" fill="#ADD0F0"/>
<path d="M62.8239 10.6161C63.5258 10.7387 64.2194 10.9029 64.901 11.108C65.354 11.2598 65.4816 11.3621 65.2668 11.8144C65.099 12.1642 65.0353 12.1906 64.6494 12.0586C64.3828 11.9646 64.1291 11.8382 63.8944 11.6823C63.6595 11.5305 63.438 11.3522 63.2232 11.1905C63.0085 11.0288 62.6964 10.9495 62.8239 10.6161Z" fill="#ADD0F0"/>
<path d="M15.4359 35.257C15.4661 34.6496 16.7782 33.5834 16.9661 34.5968C16.9699 34.8275 16.9195 35.056 16.8188 35.2644C16.7181 35.4728 16.5698 35.6555 16.3855 35.7983C15.8755 36.0954 15.654 35.6068 15.4359 35.257Z" fill="#ADD0F0"/>
<path d="M9.3958 63.1821C8.85219 62.9576 7.83879 61.8849 8.34214 61.2643C8.62736 60.9111 9.11057 61.1653 9.32198 61.4756C9.62063 61.908 9.3958 62.6903 9.3958 63.1821Z" fill="#ADD0F0"/>
<path d="M5.51671 64.07C4.98653 64.07 3.50334 63.1524 4.3154 62.5615C4.68117 62.2909 5.1778 62.6309 5.39591 62.9246C5.53493 63.0793 5.62131 63.2729 5.64297 63.4783C5.66463 63.6837 5.62048 63.8905 5.51671 64.07Z" fill="#ADD0F0"/>
<path d="M15.6976 10.8142C15.1708 10.9561 14.9493 11.0651 14.5769 10.5666C14.3722 10.2927 14.04 9.6523 14.1507 9.31561C14.2816 8.91621 14.7346 8.98553 14.9393 9.2529C15.2782 9.68201 15.4661 10.329 15.6976 10.8142Z" fill="#ADD0F0"/>
<path d="M65.2936 3.91543C65.3641 4.67793 64.5185 5.7177 63.6695 5.23577C62.8206 4.75385 64.8541 3.91543 65.2936 3.91543Z" fill="#ADD0F0"/>
<path d="M22.1807 11.613C22.5583 11.133 22.9746 10.6837 23.4256 10.2696C23.7612 9.99889 24.0968 10.1606 24.137 10.6261C24.1456 10.796 24.0951 10.9638 23.9939 11.1018C23.8927 11.2398 23.7467 11.3397 23.58 11.3852C23.3115 11.481 23.0397 11.5569 22.7746 11.6625C22.5096 11.7681 22.3787 11.9101 22.1807 11.613Z" fill="#ADD0F0"/>
<path d="M81.7966 74.0815C82.1992 73.5401 83.6187 73.4741 83.6019 74.3753C83.6019 74.8374 83.0214 74.9265 82.6556 74.8473C82.457 74.8042 82.2733 74.711 82.1227 74.5766C81.972 74.4423 81.8596 74.2716 81.7966 74.0815Z" fill="#ADD0F0"/>
<path d="M16.9661 9.31892C16.8553 9.72162 16.8117 10.3521 16.5735 10.702C16.2614 11.1674 16.0131 10.7548 15.9225 10.4049C15.8525 10.1971 15.8309 9.97643 15.8593 9.7593C15.8878 9.54216 15.9656 9.33412 16.0869 9.15057C16.1406 9.08456 16.4225 8.79738 16.5164 8.80068C16.6104 8.80398 16.899 9.243 16.9661 9.31892Z" fill="#ADD0F0"/>
<path d="M87.5816 83.3602C87.9373 83.6143 88.4675 83.8586 88.6756 84.2613C88.7221 84.3356 88.7499 84.4197 88.7566 84.5067C88.7634 84.5937 88.749 84.6811 88.7145 84.7615C88.68 84.8419 88.6266 84.913 88.5585 84.969C88.4904 85.0249 88.4098 85.0641 88.3232 85.0832C87.9407 85.1591 87.6521 84.829 87.481 84.532C87.3562 84.3315 87.2793 84.1058 87.2562 83.8718C87.2696 83.6605 87.4642 83.512 87.5816 83.3602Z" fill="#ADD0F0"/>
<path d="M83.32 72.6489C82.9643 72.4311 82.4006 72.2759 82.2194 71.8633C82.0382 71.4507 82.3804 71.3748 82.7328 71.3682C83.0851 71.3616 83.622 71.4177 83.8569 71.7511C84.1824 72.2198 83.6522 72.398 83.32 72.6489Z" fill="#ADD0F0"/>
<path d="M62.6561 99.5937C62.6092 100.069 61.8776 101.244 61.3139 100.891C60.8273 100.584 61.2736 99.9634 61.6025 99.6993C61.8239 99.5178 62.6696 98.9566 62.6561 99.5937Z" fill="#ADD0F0"/>
<path d="M39.5963 15.5146C39.5796 14.9072 40.0997 15.1416 40.442 15.3199C40.6735 15.442 41.3715 15.7292 41.254 16.1022C41.1648 16.2841 41.0061 16.424 40.8125 16.4914C40.619 16.5587 40.4062 16.5482 40.2205 16.4619C40.0558 16.3547 39.9154 16.2153 39.808 16.0523C39.7006 15.8893 39.6286 15.7062 39.5963 15.5146Z" fill="#ADD0F0"/>
<path d="M64.8104 2.72383C64.4749 3.03081 64.0353 3.62826 63.6091 3.80321C63.545 3.83902 63.4721 3.85668 63.3984 3.85423C63.3248 3.85178 63.2532 3.82932 63.1917 3.78934C63.1302 3.74935 63.0812 3.6934 63.05 3.62768C63.0189 3.56197 63.0068 3.48905 63.0152 3.41701C63.0353 3.08692 63.5353 2.69082 63.787 2.50267C64.2064 2.18909 64.5252 2.31123 64.8104 2.72383Z" fill="#ADD0F0"/>
<path d="M21.8653 10.6723C21.8653 11.0387 21.8183 11.372 21.4022 11.4744C20.9861 11.5767 20.6069 11.3423 20.6874 10.8934C20.7378 10.6029 20.8821 10.0022 21.2176 9.90317C21.7076 9.77773 21.8988 10.3026 21.8653 10.6723Z" fill="#ADD0F0"/>
<path d="M100.974 45.955C100.867 47.107 99.4907 45.8196 99.4001 45.2948C99.3297 44.8756 99.8464 44.8261 100.098 44.9878C100.488 45.2097 100.795 45.5487 100.974 45.955Z" fill="#ADD0F0"/>
<path d="M25.194 91.741C24.9955 91.7612 24.7949 91.7376 24.6069 91.672C24.4188 91.6063 24.248 91.5002 24.1068 91.3614C23.8216 91.0313 23.8619 90.6055 24.3585 90.5263C24.7681 90.5343 25.1597 90.6933 25.4558 90.9719C25.6672 91.2723 25.3954 91.5627 25.194 91.741Z" fill="#ADD0F0"/>
<path d="M77.441 23.5819C77.3873 23.8228 77.6457 24.1364 77.5014 24.3543C77.3068 24.6546 76.6692 24.4632 76.4947 24.2354C76.3202 24.0077 76.2262 23.3145 76.5215 23.0768C76.6096 23.0066 76.717 22.964 76.8299 22.9545C76.9429 22.9449 77.0561 22.9688 77.1551 23.0232C77.254 23.0775 77.3341 23.1598 77.3851 23.2594C77.4361 23.359 77.4555 23.4713 77.441 23.5819Z" fill="#ADD0F0"/>
<path d="M6.30863 28.8005C6.64419 29.0877 7.20794 29.4211 7.40592 29.8172C7.6039 30.2133 7.23478 30.4542 6.85895 30.4278C6.08381 30.3684 5.94622 29.3055 6.30863 28.8005Z" fill="#ADD0F0"/>
<path d="M57.0657 88.0606C57.2289 87.9122 57.426 87.8048 57.6404 87.7473C57.8548 87.6899 58.0801 87.6841 58.2972 87.7305C58.5992 87.8361 58.9381 88.1365 58.7737 88.46C58.6691 88.6034 58.5223 88.7119 58.3532 88.7709C58.184 88.8299 58.0005 88.8366 57.8274 88.79C57.4717 88.7075 57.2536 88.3444 57.0657 88.0606Z" fill="#ADD0F0"/>
<path d="M64.1393 9.05485C64.5722 9.16048 65.5923 9.38493 64.8507 9.95268C64.2366 10.4082 63.7299 9.87016 63.3306 9.45425C63.3944 9.41464 64.1427 9.04825 64.1393 9.05485Z" fill="#ADD0F0"/>
<path d="M102.732 58.7557C102.529 58.749 102.331 58.693 102.156 58.5928C101.98 58.4926 101.832 58.3513 101.726 58.1813C101.511 57.8512 101.541 57.3495 102.061 57.3363C102.397 57.3363 102.732 57.6664 102.88 57.9338C103.088 58.3067 103.017 58.4718 102.732 58.7557Z" fill="#ADD0F0"/>
<path d="M73.6827 22.1427C73.9344 21.7895 74.0182 21.4825 74.4511 21.7862C74.5879 21.8812 74.7012 22.0053 74.7826 22.1493C74.8639 22.2934 74.9112 22.4536 74.9209 22.618C74.9276 22.7037 74.9276 22.7898 74.9209 22.8755C74.9746 23.0405 74.9209 23.0933 74.7632 23.0405C74.6163 23.072 74.4636 23.0652 74.3202 23.0207C73.978 22.8953 73.8438 22.4134 73.6827 22.1427Z" fill="#ADD0F0"/>
<path d="M60.0656 93.1802C59.6797 93.4838 58.1965 94.3751 58.3878 93.2858C58.4415 92.9722 58.6999 92.553 59.0589 92.5662C59.418 92.5794 59.8139 93.0085 60.0656 93.1802Z" fill="#ADD0F0"/>
<path d="M57.8878 90.896C57.6261 90.7375 57.1395 90.5857 57.0187 90.2787C56.8476 89.8562 57.163 89.6978 57.522 89.6846C57.6955 89.6561 57.8737 89.6781 58.0347 89.7479C58.1956 89.8177 58.3324 89.9322 58.4281 90.0774C58.6294 90.4933 58.1663 90.6649 57.8878 90.896Z" fill="#ADD0F0"/>
<path d="M43.0493 16.4388C42.8618 16.446 42.6764 16.3981 42.5168 16.301C42.3572 16.204 42.2306 16.0624 42.1533 15.8942C42.0392 15.5938 42.103 15.1845 42.4889 15.1548C42.6505 15.1687 42.8066 15.2192 42.9451 15.3022C43.0837 15.3852 43.2008 15.4986 43.2875 15.6334C43.5526 16.0097 43.3278 16.1484 43.0493 16.4388Z" fill="#ADD0F0"/>
<path d="M11.4327 78.3066C11.3723 78.3957 11.1944 78.7753 11.0971 78.7984C10.9998 78.8215 10.6642 78.5871 10.5971 78.5508C10.3622 78.432 9.8421 78.2207 9.89243 77.8676C9.9327 77.5837 10.4595 77.5771 10.7112 77.653C10.8781 77.6924 11.032 77.7731 11.1583 77.8875C11.2846 78.0019 11.379 78.1461 11.4327 78.3066Z" fill="#ADD0F0"/>
<path d="M7.04687 27.358C7.32874 27.599 7.88913 27.8928 8.05355 28.2361C8.11529 28.391 8.11529 28.5631 8.05355 28.718C8.08711 28.8632 8.02671 28.9028 7.87906 28.8401C7.79659 28.85 7.71322 28.85 7.63075 28.8401C6.88245 28.6124 6.79184 27.9687 7.04687 27.358Z" fill="#ADD0F0"/>
<path d="M23.939 93.6786C23.731 93.5003 23.0968 93.1604 23.0632 92.8435C23.0297 92.5266 23.5162 92.4375 23.7578 92.4804C23.9994 92.5233 24.429 92.7148 24.4961 92.992C24.5867 93.3254 24.1605 93.4904 23.939 93.6786Z" fill="#ADD0F0"/>
<path d="M17.6171 31.8703C17.8419 32.1707 18.0063 32.2598 17.9526 32.6526C17.9224 32.9827 17.815 33.3491 17.4459 33.4217C16.5332 33.6164 17.1137 32.0188 17.6171 31.8703Z" fill="#ADD0F0"/>
<path d="M86.3434 18.0463C86.0918 17.7163 86.0347 17.5842 86.3199 17.2508C86.4709 17.0693 86.7327 16.8316 86.9911 16.8613C87.0633 16.873 87.1318 16.9014 87.1907 16.9441C87.2497 16.9868 87.2975 17.0427 87.3302 17.1071C87.363 17.1716 87.3797 17.2427 87.3791 17.3147C87.3785 17.3868 87.3605 17.4576 87.3266 17.5215C87.2249 17.687 87.0801 17.8228 86.9073 17.915C86.7346 18.0073 86.5399 18.0526 86.3434 18.0463Z" fill="#ADD0F0"/>
<path d="M10.1206 76.0785C9.89915 75.9861 8.24818 75.4744 8.90924 75.0585C9.09715 74.9364 9.91592 75.1674 10.0803 75.3193C10.1361 75.365 10.1816 75.4216 10.214 75.4854C10.2465 75.5492 10.2652 75.619 10.269 75.6902C10.2728 75.7615 10.2615 75.8328 10.236 75.8996C10.2105 75.9664 10.1712 76.0273 10.1206 76.0785Z" fill="#ADD0F0"/>
<path d="M86.4474 86.5983C86.877 86.5983 87.7528 87.407 87.1488 87.7338C86.8468 87.8955 86.4374 87.6447 86.2931 87.4037C86.1018 87.0571 86.2595 86.869 86.4474 86.5983Z" fill="#ADD0F0"/>
<path d="M19.9671 55.7983H17.3188V55.496L18.3057 55.2896V48.3148L17.3188 48.1084V47.8061H19.7573C20.6184 47.8061 21.2971 47.9814 21.7934 48.332C22.2898 48.6843 22.538 49.1668 22.538 49.7796C22.538 50.2645 22.3806 50.6766 22.0658 51.0158C21.7493 51.3549 21.3329 51.6048 20.8166 51.7653L23.1925 55.3387L24.0045 55.496V55.7983H22.5754L20.1145 52.0086H19.0427V55.2773L19.9671 55.496V55.7983ZM19.8422 48.2288H19.0427V51.5835H19.9172C20.4335 51.5835 20.8624 51.4278 21.2038 51.1165C21.5436 50.8069 21.7135 50.4136 21.7135 49.9369C21.7135 49.4126 21.5453 48.9972 21.2088 48.6909C20.8724 48.3828 20.4168 48.2288 19.8422 48.2288Z" fill="#ADD0F0"/>
<path d="M28.1394 55.9187C27.4998 55.9187 26.9276 55.7671 26.423 55.464C25.9183 55.1626 25.5219 54.7472 25.2337 54.218C24.9473 53.6888 24.804 53.0851 24.804 52.4068C24.804 51.7285 24.9473 51.1231 25.2337 50.5906C25.5219 50.0581 25.9183 49.6403 26.423 49.3372C26.9276 49.0341 27.4998 48.8825 28.1394 48.8825C28.7806 48.8825 29.3536 49.0341 29.8583 49.3372C30.3629 49.6403 30.761 50.0581 31.0525 50.5906C31.3423 51.1231 31.4872 51.7285 31.4872 52.4068C31.4872 53.0851 31.3423 53.6888 31.0525 54.218C30.761 54.7472 30.3629 55.1626 29.8583 55.464C29.3536 55.7671 28.7806 55.9187 28.1394 55.9187ZM28.3617 55.496C28.8464 55.496 29.2753 55.3829 29.6484 55.1568C30.0215 54.9307 30.3105 54.6096 30.5153 54.1935C30.7202 53.7773 30.8226 53.2866 30.8226 52.7213C30.8226 52.0283 30.6961 51.4254 30.4429 50.9125C30.188 50.3997 29.8449 50.0016 29.4135 49.7181C28.9838 49.4363 28.4975 49.2954 27.9545 49.2954C27.4631 49.2954 27.0284 49.4085 26.6503 49.6346C26.2722 49.8607 25.9766 50.1818 25.7634 50.598C25.5502 51.0125 25.4436 51.5024 25.4436 52.0676C25.4436 52.7623 25.5752 53.3661 25.8383 53.8789C26.1015 54.3917 26.4521 54.789 26.8902 55.0708C27.3299 55.3543 27.8204 55.496 28.3617 55.496Z" fill="#ADD0F0"/>
<path d="M37.0411 55.7983H34.4678V55.496L35.4272 55.3141V52.5763L33.1636 49.5019L32.4116 49.32V49.0177H34.6527V49.32L33.9256 49.465V49.5142L35.9319 52.2126L37.7182 49.5142V49.4773L36.9662 49.32V49.0177H39.0224V49.32L38.2953 49.465L36.0793 52.6132V55.3141L37.0411 55.496V55.7983Z" fill="#ADD0F0"/>
<path d="M41.1385 55.7983H39.1198V55.496L39.7119 55.3731L42.4077 48.9563H42.665L45.3358 55.3264L46.0129 55.496V55.7983H43.7243V55.496L44.6113 55.3485L43.7368 53.2424H41.0661L40.2166 55.3608L41.1385 55.496V55.7983ZM42.3952 49.9737L41.2259 52.8663H43.5894L42.3952 49.9737Z" fill="#ADD0F0"/>
<path d="M52.3163 55.7983H47.2196V55.496L48.0441 55.3141V49.5019L47.2196 49.32V49.0177H49.6705V49.32L48.6987 49.5019V55.3977H51.6018L52.0715 53.6184H52.3163V55.7983Z" fill="#ADD0F0"/>
<path d="M59.814 55.7983H57.0558V55.496L58.0152 55.2896V48.3148L57.0558 48.1084V47.8061H59.814V48.1084L58.7547 48.3148V51.463H63.4067V48.3148L62.3499 48.1084V47.8061H65.1056V48.1084L64.1462 48.3148V55.2896L65.1056 55.496V55.7983H62.3499V55.496L63.4067 55.2896V51.8858H58.7547V55.2896L59.814 55.496V55.7983Z" fill="#ADD0F0"/>
<path d="M68.331 55.7983H66.3123V55.496L66.9044 55.3731L69.6002 48.9563H69.8576L72.5283 55.3264L73.2054 55.496V55.7983H70.9169V55.496L71.8038 55.3485L70.9294 53.2424H68.2586L67.4091 55.3608L68.331 55.496V55.7983ZM69.5877 49.9737L68.4185 52.8663H70.7819L69.5877 49.9737Z" fill="#ADD0F0"/>
<path d="M79.5088 55.7983H74.4121V55.496L75.2366 55.3141V49.5019L74.4121 49.32V49.0177H76.863V49.32L75.8887 49.5019V55.3977H78.7943L79.264 53.6184H79.5088V55.7983Z" fill="#ADD0F0"/>
<path d="M86.267 55.7983H81.1703V55.496L81.9947 55.3141V49.5019L81.1703 49.32V49.0177H83.6212V49.32L82.6468 49.5019V55.3977H85.5525L86.0196 53.6184H86.267V55.7983Z" fill="#ADD0F0"/>
</svg>
