<svg width="141" height="144" viewBox="0 0 141 144" fill="none" xmlns="http://www.w3.org/2000/svg">
<path d="M60.9206 11.8565C62.8177 10.6728 64.7976 9.5713 67.0117 9.11426C69.4555 8.61609 71.9223 8.94972 74.3615 9.34735C74.2282 9.0777 73.4427 7.84826 73.824 7.73857C74.0123 7.68372 74.6279 8.01736 74.8208 8.08592L75.3445 8.26873L75.7579 8.41499C75.9095 8.52011 76.0014 8.46069 76.0335 8.23217C76.4929 7.74314 76.7869 6.90218 77.1544 6.32174C77.4722 5.79954 77.8601 5.32288 78.3074 4.90492C79.1973 4.08658 80.3762 3.65125 81.5872 3.69376C82.7494 3.74404 84.2561 4.3976 84.8349 5.47165C84.9584 5.74226 85.0286 6.03395 85.0416 6.33088C85.0738 6.58683 85.0094 7.17184 85.161 7.37751C85.2529 7.50091 85.6617 7.60146 85.8041 7.69286C86.1852 7.93055 86.4894 8.27256 86.68 8.67788C86.8707 9.08321 86.9398 9.53464 86.8791 9.97806C86.7964 10.6088 86.2911 11.0064 85.8547 11.4177C85.4183 11.8291 85.3632 12.085 85.455 12.7112C85.5655 13.3639 85.435 14.0343 85.0875 14.5987C84.7159 15.188 84.2098 15.6817 83.6104 16.0399C83.011 16.398 82.3351 16.6105 81.6377 16.66C80.0621 16.756 78.4498 15.5951 77.306 14.6033C76.7565 14.1497 76.3189 13.5769 76.0266 12.9288C75.7344 12.2807 75.5953 11.5746 75.6201 10.8647C75.2205 11.3675 74.242 13.1042 73.3692 12.4826C72.4965 11.8611 73.6311 10.8144 74.1226 10.4899C71.2662 9.6188 68.2022 9.69742 65.3947 10.7139C62.8019 11.7515 60.4926 13.385 58.6559 15.4808C60.4934 15.0009 62.0919 14.1645 64.0166 14.1097C65.9414 14.0549 67.7926 14.7221 69.63 15.3848C70.511 15.7098 71.4241 15.9412 72.354 16.075C72.8215 16.1382 73.2925 16.1718 73.7643 16.1755C73.9771 16.1389 74.1946 16.1389 74.4074 16.1755C74.513 16.2212 74.9173 16.5366 74.9173 16.6554C74.9173 17.3136 73.1442 17.4781 72.7261 17.5695C71.7403 17.8612 70.7712 18.206 69.823 18.6024C68.0912 19.2834 66.4099 19.9735 64.5219 20.0695C62.634 20.1655 60.6403 19.6125 58.8029 19.0869C56.9655 18.5613 55.128 17.8117 53.1757 18.383C52.7439 18.5156 51.4669 19.2468 51.4164 18.3282C51.3658 17.4872 53.0747 17.3547 53.5662 16.9571C53.727 16.8291 53.8831 16.8931 53.7913 16.66C53.4284 16.5447 53.0542 16.4681 52.675 16.4315C52.1559 16.3355 51.6369 16.2715 51.1132 16.2212C50.1439 16.1253 48.9037 15.8373 47.9528 16.0795C47.0019 16.3218 46.2807 17.1125 45.6192 17.7477C45.2288 18.1271 44.8475 18.5156 44.4662 18.9041C44.1906 19.1874 43.5751 19.5759 43.6118 20.0055C44.4341 19.585 45.238 19.0503 46.1889 19.0914C47.0319 19.0472 47.8721 19.2204 48.628 19.5942C48.9486 19.7871 49.2228 20.0474 49.4315 20.3569C49.6402 20.6664 49.7783 21.0176 49.8362 21.3858C49.9694 22.2999 49.2803 22.8529 48.4902 23.086C47.6257 23.3733 46.7067 23.4608 45.803 23.3419C44.8475 23.1774 44.1171 22.5741 43.226 22.2496C41.1451 21.4818 39.4133 23.0677 37.8101 24.1874C39.3765 24.7907 40.8694 25.33 41.9168 26.724C42.4359 27.4187 42.4818 27.862 41.8387 28.4562C41.3793 28.8767 40.8327 29.6308 40.1161 29.3703C39.7624 29.2377 39.5786 28.9635 39.1974 28.8767C38.8161 28.7898 38.49 28.7944 38.1271 28.6984C37.4349 28.5362 36.7999 28.1903 36.2896 27.6975C35.8303 27.2405 35.5592 26.6326 35.008 26.2944C34.7324 26.1503 34.4303 26.0634 34.12 26.0391C33.8096 26.0147 33.4976 26.0534 33.2027 26.1527C31.5995 26.564 30.2352 27.5924 28.9628 28.6024C28.3549 29.0355 27.782 29.5154 27.2494 30.0375C26.7211 30.6226 26.5006 31.4955 25.977 32.0394C25.7611 32.2633 25.8989 32.2542 25.5819 32.2131C25.5176 32.2131 25.3568 32.2131 25.3155 32.1354C25.2144 31.9982 25.2833 31.9206 25.3155 31.756C25.4971 31.0028 25.8704 30.3087 26.3996 29.7405C27.3835 28.642 28.4918 27.6604 29.7024 26.8154C31.1406 25.8041 32.7088 24.9894 34.3649 24.3931C35.8073 23.8355 37.3875 23.4059 38.4991 22.2999C38.9585 21.8428 39.3673 21.2898 39.1836 20.5997C38.9999 19.9095 38.3613 19.2286 37.9847 18.6115C37.1119 17.1307 37.4885 15.8053 38.2189 14.3382C38.5864 13.7121 38.8391 13.255 39.5786 13.1088C40.1804 12.9991 41.1497 13.0768 41.5631 13.5933C41.9765 14.1097 41.7744 14.7861 41.7285 15.3391C41.6458 16.3355 41.5769 17.3364 41.4666 18.3282C41.4333 18.804 41.3533 19.2755 41.2277 19.7359C41.0383 20.0949 40.8845 20.4715 40.7684 20.8602C40.7179 21.4315 41.3058 20.7048 41.5126 20.5174C41.9719 20.1152 42.3899 19.7084 42.8355 19.3108C44.0666 18.1911 45.2977 17.0987 46.2072 15.6865C47.2454 14.0731 45.0542 12.5878 44.526 11.1389C44.2538 10.4053 44.2168 9.60585 44.42 8.85044C44.6232 8.09504 45.0566 7.42081 45.6606 6.92046C45.9458 6.69857 46.275 6.53909 46.6264 6.45245C46.9779 6.36582 47.3438 6.35398 47.7001 6.41772C48.5867 6.64624 48.9037 7.78884 48.8026 8.58866C48.6832 9.50274 48.0125 10.2888 47.6404 11.1207C47.2362 12.0347 47.2178 12.9488 47.0846 13.9177C48.1228 13.1591 49.0093 11.7697 49.6111 10.6408C50.2818 9.38391 50.268 7.83455 50.6217 6.48171C50.9111 5.3711 51.5909 4.19651 52.845 4.07311C53.9337 3.96342 55.0224 4.53015 55.2015 5.65446C55.3005 6.24017 55.262 6.84071 55.0891 7.40917C54.9161 7.97763 54.6135 8.49862 54.2047 8.93144C53.8795 9.37735 53.4357 9.72401 52.9231 9.93236C52.3015 10.0503 51.7116 10.2963 51.1913 10.6545C50.6903 11.0765 50.2291 11.5431 49.8132 12.0485C49.5606 12.3364 49.3125 12.6289 49.0644 12.9214C48.8164 13.2139 48.4994 13.6435 49.1655 13.3145C50.3001 12.7569 51.3153 12.0942 52.6383 12.4369C53.1667 12.5902 53.6508 12.8666 54.0503 13.2434C54.4498 13.6202 54.7531 14.0864 54.9351 14.6033C55.0117 14.8637 55.0246 15.1386 54.9727 15.4049C54.9207 15.6713 54.8054 15.9214 54.6365 16.1344C54.5582 16.2411 54.492 16.356 54.439 16.4772C54.4757 16.7697 54.6824 16.5549 54.8065 16.5092C55.189 16.3202 55.5535 16.0969 55.8951 15.8419C56.3132 15.5814 57.1584 15.2249 57.2732 14.7267C57.4386 14.0869 56.9425 13.2139 56.9241 12.5466C56.8594 11.0926 57.1362 9.64349 57.7326 8.31444C58.3665 7.13527 58.9683 5.86013 59.9605 4.93691C60.9617 4.02592 62.0654 3.23304 63.2495 2.57401C65.9046 1.05207 68.9318 0.663587 71.8855 0.0602945C72.3449 -0.0311135 73.53 -0.127092 73.0155 0.654447C72.6434 1.21661 71.6375 1.61423 71.077 1.989C69.6163 2.97621 68.1325 3.94056 66.7223 5.0009C65.5319 5.88316 64.4414 6.89152 63.47 8.00822C62.5342 9.2325 61.6825 10.5182 60.9206 11.8565ZM79.272 15.0558C80.8293 15.5631 82.189 15.9973 83.6589 14.9781C84.3572 14.4982 85.5607 12.734 84.0402 12.5238C83.5808 12.4598 82.6943 12.5603 82.4738 11.989C82.2533 11.4177 82.9331 11.1709 83.3282 11.1984C84.0163 11.2709 84.7066 11.0833 85.2621 10.6728C85.7812 10.2843 86.2819 9.56673 85.7674 8.95886C85.2329 8.4724 84.5301 8.21038 83.8059 8.2276C83.2914 8.25502 81.7755 9.14168 81.3805 8.58409C80.4618 7.26325 85.1105 7.31352 83.9162 6.06123C82.8459 4.93234 81.3024 4.57128 79.9794 5.41223C79.354 5.7813 78.8102 6.27259 78.3809 6.85648C78.2431 7.05758 77.8526 7.6563 77.9629 7.92138C78.0731 8.18647 79.1021 8.52011 79.3409 8.65265C80.0989 9.05941 80.5445 9.36106 79.9611 10.1654C79.612 10.6499 79.0699 11.0475 79.5936 11.5686C80.1173 12.0896 80.9717 12.2907 80.8522 13.2093C80.7695 13.9497 79.7957 14.5622 79.272 15.0421V15.0558ZM66.9336 2.7157C62.5467 3.49267 57.7464 7.54204 58.0358 12.3135C59.1658 10.4123 60.1626 8.3053 61.6234 6.6371C63.0841 4.9689 65.0824 3.88572 66.9336 2.69742V2.7157ZM58.564 17.5786C58.8994 17.1216 60.0983 17.4507 60.6403 17.5466C61.288 17.6609 61.9036 17.8437 62.5605 17.9031C63.965 17.9898 65.3723 17.7876 66.6947 17.309C66.2354 16.9845 65.4774 16.9571 64.9308 16.8931C63.9254 16.7864 62.9146 16.7391 61.9036 16.7514C60.9225 16.7461 59.9421 16.8026 58.9683 16.9205C58.4308 16.9936 57.5902 17.0485 57.186 17.4507C59.1796 18.6801 61.8668 18.9223 64.159 18.9132C65.6979 18.9132 68.7527 18.9132 69.6714 17.373C67.7964 17.9116 65.8953 18.3555 63.9753 18.703C63.0434 18.8207 62.0976 18.7633 61.187 18.5339C60.2866 18.3282 59.2071 18.2185 58.564 17.5786ZM35.3709 25.3666C35.8027 25.8236 36.2391 26.2807 36.6709 26.7377C37.0906 27.2097 37.6451 27.543 38.2603 27.6929C38.862 27.8803 41.3013 28.7944 41.0164 27.2862C40.8832 26.5092 39.6016 25.8556 38.9218 25.5951C37.8285 25.1792 36.5285 25.3666 35.3709 25.3666ZM51.3199 9.39762C52.2649 9.28433 53.1316 8.81887 53.7453 8.09506C54.2047 7.4872 54.6135 6.31717 54.3149 5.57677C54.2205 5.36057 54.0601 5.17938 53.8565 5.05882C53.6529 4.93826 53.4164 4.88442 53.1803 4.90492C52.6842 5.0009 52.4821 5.5402 52.2616 5.91498C51.5811 6.94547 51.2525 8.1667 51.3245 9.39762H51.3199ZM40.2401 19.6536C40.7638 18.5384 40.6627 17.1902 40.7362 15.9653C40.7822 15.2523 41.1956 13.447 39.868 14.0366C38.9493 14.4342 38.6691 15.819 38.7518 16.6966C38.8529 17.8254 39.5695 18.7898 40.2401 19.6536ZM43.5751 21.2715C44.4568 21.8637 45.4885 22.1963 46.5517 22.2313C47.2132 22.2313 48.674 21.8748 48.5775 20.947C48.4811 20.0192 46.9973 20.0329 46.3588 20.1335C45.3637 20.3286 44.4174 20.7185 43.5751 21.2807V21.2715ZM46.2853 11.9708C46.6482 11.3263 49.0415 7.21297 47.1719 7.32266C46.2532 7.37751 45.7662 8.33729 45.5641 9.15082C45.4502 9.64549 45.4562 10.16 45.5816 10.652C45.707 11.1439 45.9482 11.599 46.2853 11.9799V11.9708ZM79.0102 9.74497L77.1268 8.73034C77.1291 9.07316 77.1833 9.41367 77.2876 9.7404C77.4162 10.0192 77.6551 10.1974 77.5402 10.5219C77.4254 10.8464 77.0441 10.8967 76.9109 11.1755C76.8028 11.5379 76.8028 11.9237 76.9109 12.2861C77.0595 12.9431 77.4152 13.5356 77.9261 13.9772C77.9996 14.0457 78.2614 14.3245 78.3441 14.3245C78.4268 14.3245 78.7208 13.9909 78.8035 13.9269L79.8462 13.0128C79.3317 12.7934 78.0639 12.5192 77.9491 11.8474C77.8342 11.1755 78.7162 10.2431 79.0102 9.74497ZM61.0951 15.7733L69.2258 16.3721C67.324 15.0055 62.6753 14.5119 61.0951 15.7733ZM49.0369 15.0055C50.1579 15.1335 51.2849 15.2021 52.4132 15.2112C53.2354 15.2112 54.0899 15.0146 53.3916 14.0777C52.133 12.3775 50.1439 14.1143 49.0415 15.0055H49.0369ZM57.9852 13.9909L58.3619 14.2514C59.5746 12.4232 60.6587 10.4945 61.8393 8.64808C62.318 7.85604 62.8867 7.12146 63.5343 6.45885C63.86 6.14926 64.2154 5.87219 64.5954 5.63161C64.7333 5.5402 65.7255 4.81808 65.2799 4.71753C65.1191 4.68554 64.4301 5.44423 64.2693 5.5722C63.9156 5.85099 63.5205 6.02924 63.153 6.29432C62.4046 6.89591 61.7806 7.63629 61.3156 8.4744C60.158 10.2873 59.0494 12.1262 57.9898 13.9909H57.9852Z" fill="white"/>
<path d="M110.123 122.62C108.434 124.12 106.468 125.28 104.335 126.034C103.226 126.418 102.097 126.743 100.954 127.008C99.7922 127.313 98.6495 127.685 97.5316 128.123C98.1196 128.443 98.7995 128.904 98.703 129.668C98.579 130.637 97.5132 129.96 97.0079 129.736C97.4673 132.529 96.2822 136.094 93.8338 137.698C93.2596 138.053 92.6421 138.334 91.9963 138.534C91.3762 138.745 90.8985 139.288 90.2048 139.247C89.7455 139.22 88.6889 138.973 88.496 138.479C88.3031 137.986 88.8221 136.893 88.9554 136.386C87.5773 136.29 86.1211 136.551 85.4321 135.111C85.1065 134.537 84.976 133.873 85.06 133.219C85.2208 132.524 85.7398 132.012 86.1625 131.468C84.936 131.011 83.714 130.39 83.9162 128.863C84.0256 128.128 84.2973 127.427 84.712 126.809C85.1266 126.191 85.6737 125.672 86.314 125.289C87.7702 124.544 89.5066 124.727 91.0638 125.001C91.9237 125.176 92.7651 125.432 93.5765 125.765C94.337 126.081 94.9951 126.599 95.4783 127.264C95.7171 126.528 95.8228 126.167 96.4337 125.687C96.7484 126.116 96.8997 126.642 96.861 127.172C98.7397 126.482 100.637 125.961 102.557 125.39C104.403 124.91 106.144 124.095 107.693 122.986C109.025 121.953 110.123 120.467 111.101 119.105C112.178 117.594 112.978 115.904 113.462 114.115C112.314 115.17 111.216 116.336 109.861 117.131C108.455 117.877 106.959 118.44 105.41 118.808C103.738 119.288 102.052 119.722 100.393 120.276C99.6153 120.53 98.8728 120.881 98.1839 121.322C97.6281 121.683 97.2652 122.131 96.6542 122.46C96.5027 122.003 96.3143 121.797 96.4843 121.299C96.6542 120.801 96.9436 120.193 97.1458 119.645C97.5722 118.537 98.0741 117.458 98.6479 116.418C99.8101 114.38 101.404 113.118 103.444 112.017C103.957 111.71 104.499 111.452 105.061 111.244C105.626 111.071 106.237 111.034 106.815 110.902C108.019 110.627 109.218 110.339 110.44 110.129C111.023 110.029 111.611 109.942 112.194 109.841C112.778 109.741 113.448 109.722 113.894 109.384C114.454 108.968 114.307 107.707 115.304 107.986C116.301 108.265 115.686 109.736 115.534 110.458C115.367 110.949 115.255 111.456 115.199 111.971C115.199 112.373 115.589 112.885 115.658 113.319C115.856 114.412 115.929 115.527 116.117 116.624C116.348 117.798 116.392 119.001 116.246 120.189C115.994 122.376 115.315 124.494 114.248 126.423C113.168 128.251 111.565 129.622 110.247 131.254C109.845 131.672 109.533 132.166 109.328 132.707C109.218 133.077 109.112 133.434 108.625 133.351C107.706 133.191 108.46 131.034 108.561 130.463C108.814 129.055 109.057 127.652 109.305 126.244C109.42 125.563 109.544 124.873 109.663 124.206C109.787 123.653 110.012 123.173 110.123 122.62ZM95.2486 133.132C94.5504 133.132 93.526 133.342 92.8691 133.05C92.2122 132.757 92.2719 132.136 92.3225 131.551C92.3638 131.135 92.5981 130.436 92.2949 130.065C91.9228 129.608 90.9903 129.663 90.4942 129.439C88.813 128.671 91.7942 125.783 89.4561 125.783C88.5373 125.783 87.5084 125.678 86.6677 126.13C86.2535 126.352 85.888 126.653 85.5929 127.017C85.2979 127.382 85.0791 127.801 84.9497 128.251C84.3526 130.655 87.4716 129.841 88.5373 128.932C88.744 128.754 88.7486 128.667 88.9645 128.726C89.0978 128.763 89.2769 129.051 89.3412 129.16C89.4405 129.305 89.4973 129.475 89.5055 129.65C89.5136 129.825 89.4726 129.999 89.3872 130.152C88.9599 130.87 87.6875 131.13 87.0444 131.665C86.484 132.122 85.896 132.808 85.9649 133.58C85.9774 133.755 86.0244 133.926 86.1032 134.082C86.182 134.239 86.2911 134.379 86.4243 134.494C86.8836 134.878 87.3154 134.718 87.8483 134.64C88.7681 134.544 89.6515 134.23 90.4253 133.726C90.6963 133.543 91.1006 133.054 91.4589 133.159C91.8172 133.265 91.9826 133.959 91.9182 134.284C91.7069 135.175 90.6045 135.609 90.0808 136.295C89.92 136.514 89.4698 137.268 89.649 137.547C89.8281 137.826 90.4804 137.483 90.7836 137.364C91.8351 136.986 92.8219 136.45 93.7097 135.774C94.487 135.084 95.0256 134.167 95.2486 133.155V133.132ZM113.623 111.619C112.679 112.502 111.653 113.293 110.559 113.982C109.578 114.518 108.56 114.986 107.514 115.381C106.535 115.774 105.561 116.327 104.523 116.432C103.963 116.491 103.457 117.003 103.021 117.346C102.497 117.748 101.983 118.159 101.459 118.562C103.962 118.249 106.405 117.57 108.708 116.546C109.7 116.076 110.615 115.46 111.423 114.718C112.296 113.798 113.038 112.763 113.628 111.642L113.623 111.619ZM98.7627 118.831L98.9602 119.028C102.114 115.746 105.946 113.184 110.192 111.519C107.762 111.976 105.318 112.501 103.127 113.699C100.935 114.896 99.9892 116.797 98.7627 118.831ZM93.4709 131.765C94.0267 131.706 95.1797 131.82 95.6207 131.423C96.0617 131.025 95.4232 130.093 95.2578 129.668C94.7984 128.466 94.1002 127.067 92.8324 126.542C92.5441 126.409 92.231 126.339 91.9137 126.336C91.5324 126.363 91.6656 126.313 91.4864 126.596C91.3945 126.809 91.3282 127.031 91.2889 127.259C91.1189 127.835 90.6091 128.63 91.4129 128.822C91.8723 128.927 92.3822 128.795 92.837 128.909C93.0198 128.946 93.186 129.04 93.3116 129.177C93.4371 129.314 93.5155 129.488 93.5352 129.672C93.7097 130.349 93.3698 131.053 93.4801 131.752L93.4709 131.765ZM111.198 128.315C112.414 127.185 113.382 125.818 114.041 124.297C114.307 123.69 115.727 120.001 115.084 119.727L111.198 128.315ZM114.629 114.777C114.335 115.691 113.972 116.605 113.756 117.52C113.696 117.694 113.674 117.88 113.692 118.063C113.733 118.251 113.954 118.297 113.986 118.52C114.018 118.744 113.775 119.019 113.655 119.224C113.16 120.134 112.728 121.076 112.36 122.044C112.13 122.606 111.9 123.169 111.689 123.735C111.556 124.101 111.161 124.878 111.23 125.253C111.308 125.815 111.689 124.796 111.772 124.631C111.992 124.138 112.208 123.639 112.429 123.146C112.819 122.178 113.262 121.232 113.756 120.312C114.194 119.454 114.51 118.541 114.698 117.597C114.946 116.596 115.212 115.682 114.638 114.764L114.629 114.777ZM103.517 116.089C103.549 116.171 103.581 116.254 103.609 116.336C105.148 115.659 106.705 115.02 108.203 114.297C108.941 113.946 109.659 113.552 110.352 113.118L111.322 112.501C111.436 112.428 111.735 112.309 111.809 112.195C111.974 111.93 111.845 111.916 111.551 111.994C110.888 112.251 110.245 112.556 109.627 112.908C108.938 113.214 108.249 113.516 107.559 113.822C106.14 114.442 104.785 115.202 103.517 116.089ZM110.169 127.597L110.279 127.698C110.568 127.076 110.862 126.455 111.152 125.838C111.009 125.838 110.692 125.746 110.587 125.806C110.481 125.865 110.44 126.071 110.394 126.322C110.32 126.765 110.247 127.191 110.169 127.616V127.597Z" fill="white"/>
<path d="M16.8449 98.3467C17.1848 98.301 18.1495 97.9994 18.2597 98.4839C18.3699 98.9683 17.1986 99.2654 16.8816 99.3979C18.1678 101.103 19.6378 102.743 20.5565 104.677C21.512 106.692 22.325 108.79 23.2208 110.815C24.0706 112.748 25.0215 114.617 26.5144 116.148C27.2264 116.88 28.0579 117.474 28.8112 118.155C29.6078 118.938 30.5241 119.591 31.526 120.088C30.4328 118.831 29.1052 117.826 28.0671 116.496C27.0608 115.222 26.2412 113.812 25.6324 112.309C24.9664 110.627 24.9664 108.914 24.5759 107.172C24.1855 105.431 23.7491 103.694 23.2713 101.98C23.1644 101.562 23.0103 101.157 22.812 100.774C22.665 100.504 22.2929 100.157 22.3205 99.8367C22.3939 98.9912 23.2805 99.4071 23.5883 99.8001C24.5667 101.057 25.9816 101.834 27.2632 102.725C29.7304 104.343 31.5519 106.768 32.4126 109.581C33.0156 111.526 33.4158 113.528 33.607 115.554C33.6759 116.605 33.7815 117.652 33.8734 118.694C33.8885 118.896 33.9286 119.096 33.9928 119.288C34.0755 119.512 34.2041 119.485 34.3006 119.681C34.4935 120.084 34.3649 120.28 34.0571 120.637L36.0645 121.669C35.7522 122.063 37.2313 122.446 37.4426 122.492C38.1638 122.643 39.1285 122.657 39.7394 123.05C40.1115 123.278 40.4836 123.877 39.8634 124.023C39.2433 124.169 38.2787 123.694 37.6815 123.539C36.9412 123.284 36.1673 123.14 35.3847 123.109C34.561 123.16 33.7441 123.291 32.9455 123.498C32.2427 123.662 31.526 124.078 30.8094 124.078C30.0011 124.009 29.1984 123.885 28.407 123.708C26.7854 123.479 25.0491 123.397 23.625 122.538C22.2929 121.733 20.7127 120.902 19.6332 119.768C18.6456 118.735 18.1357 117.387 17.3961 116.19C17.0187 115.665 16.5843 115.184 16.1007 114.754C15.7286 114.371 15.8251 113.575 16.4958 113.626C16.7989 113.626 17.171 113.978 17.4145 114.124C17.7957 114.352 18.1816 114.581 18.5858 114.768C19.4173 115.17 20.2947 115.499 21.1537 115.833C22.0127 116.167 22.9911 116.542 23.942 116.857C24.7275 117.122 25.8667 117.716 26.6982 117.648C25.9549 116.98 25.2767 116.244 24.6724 115.449C24.0798 114.535 23.5056 113.621 22.9773 112.707C21.8978 110.783 21.2042 108.69 20.2212 106.711C19.2381 104.732 18.3424 102.757 16.8311 101.19C16.5876 100.938 16.3717 100.732 15.9767 100.838C15.5816 100.943 15.4714 101.372 15.012 101.295C14.2403 101.18 14.6813 99.8641 14.7777 99.3797C13.7855 99.5259 12.8438 99.9372 11.8195 99.8367C10.8619 99.6987 9.96346 99.2929 9.22866 98.6667C7.56118 97.3321 6.05907 95.248 6.16473 93.004C6.21066 92.0899 7.01454 91.8613 7.82761 91.939C7.93327 91.939 8.43856 92.0899 8.53043 92.0259C8.62231 91.9619 8.66824 91.45 8.70959 91.3266C8.80325 90.9795 8.94224 90.646 9.12301 90.3348C9.94527 89.0186 11.5301 89.5761 12.6922 90.0835C13.1516 88.9317 13.8269 87.6611 15.2693 87.6383C16.7117 87.6154 17.488 89.1922 17.9657 90.312C18.5261 91.6237 19.2014 93.1959 19.0957 94.6539C19.0406 95.3943 18.5169 95.9701 18.0851 96.5323C17.8187 96.8933 16.7025 97.94 16.8449 98.3467ZM18.0805 93.6118C17.6855 92.3687 16.8357 87.8714 14.741 88.5249C13.7442 88.8403 13.565 89.9783 13.8223 90.8421C13.9325 91.2261 14.1852 91.7562 13.9647 92.1401C13.6615 92.6795 13.0735 92.195 12.7979 91.8614C12.1778 91.1118 11.5301 89.9601 10.3495 90.408C9.08626 90.8878 9.81664 92.3824 10.2347 93.1776C10.4643 93.6118 10.7859 94.439 10.0509 94.3659C9.49969 94.3157 9.30675 93.8266 8.94845 93.4518C8.59015 93.0771 8.28238 92.6749 7.77249 92.7252C7.2626 92.7754 7.35447 93.1502 7.34988 93.5661C7.34988 94.5899 8.20888 95.8239 8.82443 96.6146C9.55783 97.5615 10.5545 98.2735 11.6908 98.6621C11.6908 97.8486 11.3555 96.2992 11.8792 95.6091C12.4028 94.9189 13.5834 95.5405 14.2081 95.7325C14.3337 95.1913 14.4166 94.6412 14.4562 94.0871C14.4517 93.8867 14.5045 93.6892 14.6087 93.5176C14.7128 93.3461 14.8638 93.2075 15.0442 93.1182C15.5035 92.9171 15.9399 93.1182 16.3763 93.237C16.9413 93.3696 17.5109 93.4793 18.0805 93.6118ZM31.7236 118.69C32.1829 118.461 31.2183 117.446 31.0024 117.154C30.6211 116.642 30.2169 116.144 29.8723 115.609C29.1576 114.444 28.5927 113.194 28.1911 111.889C27.3229 109.311 26.7211 106.647 25.1915 104.357C24.9664 104.919 25.3201 105.796 25.4257 106.363C25.5681 107.122 25.7151 107.885 25.8483 108.648C26.025 109.994 26.3835 111.31 26.9141 112.561C27.5223 113.705 28.2099 114.806 28.972 115.856C29.7173 116.952 30.6484 117.911 31.7236 118.69ZM32.0084 123.045C32.0497 122.186 29.684 122.072 29.0777 121.953C28.4713 121.834 27.8558 121.669 27.2402 121.496C26.6247 121.322 26.1377 120.979 25.5544 120.783C24.4669 120.497 23.44 120.018 22.5226 119.371C21.4706 118.575 20.3636 117.876 19.2703 117.136C20.2441 119.393 22.1459 120.577 24.2314 121.706C26.5282 122.981 29.4497 123.182 32.0084 123.045ZM25.4946 102.835C25.2328 103.054 25.6646 103.402 25.83 103.644L26.3123 104.334C26.6936 104.873 27.084 105.399 27.4929 105.915C28.3102 106.89 29.0768 107.906 29.7897 108.959C30.419 109.956 30.8462 111.062 31.402 112.099C31.7061 112.623 31.9613 113.174 32.1646 113.744C32.3575 114.339 32.3667 114.956 32.5504 115.55C32.8674 115.184 32.4448 114.11 32.3575 113.676C32.2335 113.068 32.1002 112.456 31.9441 111.848C31.6174 110.55 31.1556 109.289 30.566 108.086C29.4451 105.746 27.5618 104.357 25.4946 102.835ZM12.8117 98.7215C14.1166 98.4721 15.334 97.8894 16.3442 97.0305C16.7762 96.6246 17.1502 96.1617 17.4558 95.6548C17.8371 95.0286 17.5615 94.7773 16.9459 94.4893C16.5693 94.3111 15.5678 93.918 15.3519 94.3019C15.136 94.6859 15.3106 95.3394 15.2417 95.7142C15.214 96.0659 15.0758 96.4001 14.8466 96.6694C14.5389 96.9299 14.2862 96.7882 13.9279 96.6694C13.7074 96.5917 12.9587 96.1484 12.7382 96.2124C12.2926 96.2855 12.7657 98.3467 12.8117 98.7215ZM32.0497 117.049C31.4755 113.516 29.8448 110.467 27.8098 107.602C28.6045 111.062 29.7621 114.311 32.0497 117.067V117.049ZM29.2292 120.984C27.0565 119.288 24.7413 117.917 21.8381 117.593C23.9696 119.64 26.643 120.262 29.2292 121.002V120.984ZM32.1554 118.653L31.9349 118.831L32.578 119.553C32.8444 119.85 32.9041 120.189 33.2624 119.869L32.1554 118.653Z" fill="white"/>
<path d="M48.3938 133.182C49.8408 135.244 49.0231 139.051 45.9684 138.548C44.7924 138.356 43.6991 137.396 44.0574 136.13C44.2029 135.54 44.5229 135.007 44.9761 134.599C45.2701 134.357 45.5917 134.17 45.8949 133.918C46.3037 133.553 46.4139 133.292 45.7295 133.461C44.9026 133.649 44.0758 133.859 43.2397 134.023C42.4577 134.103 41.6873 134.27 40.943 134.521C39.6384 135.097 38.8391 136.217 37.2681 136.176C36.1886 136.153 34.6405 135.568 34.1995 134.494C34.0402 134.013 34.0528 133.492 34.2353 133.018C34.4178 132.545 34.7589 132.15 35.2009 131.898C36.8776 130.883 38.8345 131.738 40.4928 132.309C41.315 132.588 42.1281 132.936 43.0009 132.73C43.8915 132.556 44.7717 132.333 45.6376 132.063C44.48 131.784 43.3408 131.583 42.3578 130.906C41.6412 130.422 40.649 129.462 41.0119 128.516C41.2829 127.803 42.0776 126.807 42.8998 126.82C43.8186 126.82 44.65 127.529 45.1966 128.214C45.7433 128.9 45.9821 129.759 46.3404 130.6C46.7998 131.743 48.1779 131.807 49.216 131.651C51.7648 131.356 54.3318 131.246 56.8966 131.322C55.3249 130.581 53.8256 129.697 52.4178 128.68C51.7981 128.206 51.2161 127.685 50.6768 127.122C50.1256 126.551 49.6984 126.267 48.9358 126.706C47.6588 127.446 46.639 128.735 45.1369 127.739C43.6348 126.743 44.4479 125.202 45.904 124.718C46.7493 124.435 47.4613 124.654 48.2789 124.892C48.7153 125.015 49.0369 125.042 48.5867 124.581C48.2543 124.236 47.8965 123.917 47.5164 123.626C46.8595 123.127 46.4277 122.794 45.5917 122.798C44.8551 122.829 44.1189 122.727 43.4189 122.497C42.2154 122.04 40.6903 120.737 41.2645 119.297C41.594 118.628 42.1213 118.075 42.7758 117.712C43.3684 117.401 44.2687 117.629 44.8843 117.862C45.2647 118.009 45.6059 118.241 45.8809 118.541C46.1559 118.84 46.3572 119.2 46.4691 119.59C46.6555 120.388 47.025 121.133 47.5486 121.765C48.1595 122.465 48.844 123.095 49.4411 123.808C50.0383 124.521 50.3599 125.586 51.1775 125.975C50.9938 124.316 50.9295 121.212 53.1344 120.755C54.0531 120.563 54.7192 121.254 54.9718 122.076C55.2245 122.899 54.9351 124.028 54.5538 124.818C54.3608 125.228 54.1186 125.614 53.8326 125.966C53.4835 126.395 53.1298 126.615 53.2355 127.218C53.4008 128.159 54.3609 128.767 55.1234 129.202C57.1538 130.367 59.4552 130.915 61.7061 131.487C60.6863 130.047 59.1566 127.547 60.7873 125.934C62.3216 124.393 64.2923 125.851 64.3198 127.762C64.263 128.81 64.0541 129.844 63.6997 130.833C63.4424 131.747 63.6721 132.035 64.6184 132.154C65.8434 132.315 67.0592 132.459 68.2657 132.584C69.4463 132.702 70.5947 132.584 71.7753 132.606C72.9558 132.629 74.1318 132.652 75.3032 132.757C75.6752 132.794 78.1696 133.096 77.6 133.978C77.283 134.435 75.666 133.813 75.2251 133.74C74.6784 133.644 74.1226 133.548 73.5668 133.489C73.0515 133.373 72.5207 133.344 71.9958 133.402C71.7936 133.461 71.5961 133.694 71.3664 133.767C71.1476 133.824 70.922 133.852 70.6958 133.85C70.3145 133.85 69.9332 133.786 69.5474 133.799C68.7113 133.799 67.4848 134.115 66.8877 134.741C66.7407 134.896 66.2262 135.513 66.2767 135.737C66.3272 135.961 67.1311 136.427 67.2965 136.615C67.8535 137.221 68.2457 137.959 68.4357 138.758C68.7159 140.129 68.1463 142.506 66.2813 141.994C65.2799 141.715 64.6184 140.477 64.4439 139.521C64.2601 138.383 64.6368 137.127 64.8665 136.011C64.1774 136.436 63.3092 136.583 62.8545 137.319C62.3997 138.054 61.8852 138.818 62.069 139.791C62.3182 140.65 62.2795 141.566 61.9587 142.401C61.8278 142.758 61.6093 143.078 61.3229 143.33C61.0365 143.582 60.6914 143.759 60.3188 143.845C59.9048 143.995 59.4592 144.037 59.0243 143.967C58.5894 143.898 58.1796 143.719 57.8337 143.447C56.9149 142.698 57.0435 142.031 57.6453 141.13C57.9393 140.673 58.2517 140.248 58.564 139.814C58.6658 139.621 58.8099 139.454 58.9856 139.324C59.1614 139.194 59.3643 139.105 59.5792 139.064C59.9581 138.971 60.2927 138.75 60.5255 138.438C60.7425 138.151 60.9332 137.845 61.0951 137.524C59.4644 137.958 56.993 138.795 55.7528 137.131C54.6778 135.687 55.7298 134.019 57.2503 133.475C57.6353 133.295 58.0692 133.247 58.4846 133.338C58.8999 133.429 59.2735 133.654 59.5471 133.978C60.1075 134.553 60.746 135.669 61.4994 135.984C62.2527 136.299 63.4976 135.659 64.1728 135.294C65.054 134.774 65.9065 134.208 66.7269 133.598C65.3166 133.347 63.9018 133.141 62.4962 132.867C61.159 132.56 59.7892 132.415 58.417 132.437C55.6287 132.547 52.7761 132.351 50.0015 132.73C49.3257 132.766 48.6616 132.92 48.0401 133.187C47.5395 133.505 47.0864 133.891 46.6942 134.334C46.2348 134.791 45.826 135.225 45.4033 135.678C44.9807 136.13 44.7373 136.491 45.238 136.999C45.5343 137.255 45.9199 137.385 46.3116 137.361C46.7034 137.337 47.07 137.161 47.3327 136.871C47.6818 136.455 47.668 135.833 47.7415 135.321C47.8661 134.583 48.0853 133.865 48.3938 133.182ZM40.0702 133.287C39.0182 133.063 38.049 132.373 36.9419 132.433C36.2575 132.456 34.5716 133.045 35.1045 133.978C36.2575 135.874 39.0779 134.549 40.0702 133.287ZM42.05 119.745C42.8952 121.116 44.4111 122.072 46.0694 121.574C45.7341 120.618 45.5182 119.489 44.5489 118.959C43.4557 118.347 42.7804 118.946 42.05 119.745ZM60.7368 136.441C60.0524 135.915 59.2669 135.038 58.44 134.745C58.0818 134.653 57.7041 134.668 57.3543 134.788C57.0045 134.909 56.6983 135.129 56.4739 135.422C55.9135 136.29 56.9747 136.697 57.6545 136.848C58.699 137.09 59.7963 136.94 60.7368 136.427V136.441ZM62.5329 130.614C63.1071 129.768 63.8513 127.131 62.6018 126.537C62.4117 126.453 62.1979 126.44 61.9985 126.498C61.7991 126.557 61.6271 126.684 61.5131 126.857C61.2237 127.204 61.3202 127.616 61.3524 128.045C61.4305 129.023 61.6785 129.988 62.5329 130.6V130.614ZM58.0771 142.085C58.6835 142.543 59.5976 143 60.3326 142.543C60.9573 142.159 61.0216 141.245 60.9481 140.591C60.9324 140.413 60.9001 140.237 60.8517 140.065C60.7552 139.727 60.8011 139.732 60.4888 139.732C60.1075 139.793 59.7511 139.959 59.4598 140.212C58.8561 140.713 58.382 141.351 58.0771 142.072V142.085ZM52.3673 125.957C53.3778 126.025 54.9764 122.373 53.6075 121.921C52.8128 121.66 52.3351 122.789 52.257 123.356C52.1789 124.224 52.216 125.098 52.3673 125.957ZM45.1966 130.714C45.3253 129.709 43.7542 127.515 42.5921 128.137C41.7376 128.594 42.3486 129.357 42.8539 129.741C43.5153 130.298 44.3335 130.638 45.1966 130.714ZM65.9643 136.505C65.5818 137.253 65.4421 138.101 65.5647 138.932C65.6474 139.499 65.9184 140.463 66.4834 140.76C67.1954 141.121 67.347 139.681 67.2 139.234C66.8408 138.297 66.4283 137.381 65.9643 136.491V136.505ZM48.1549 126.039C48.0768 125.614 47.7323 125.696 47.3327 125.641C46.9995 125.568 46.6566 125.55 46.3175 125.586C45.9454 125.664 45.3253 126.043 45.4493 126.5C45.5449 126.667 45.6824 126.806 45.8483 126.904C46.0142 127.002 46.2028 127.055 46.3956 127.058C46.9927 126.976 47.6726 126.322 48.1549 126.025V126.039Z" fill="white"/>
<path d="M125.897 52.9078C125.669 52.987 125.422 52.9967 125.188 52.9357C124.954 52.8746 124.743 52.7456 124.583 52.5651C124.074 52.1504 123.506 51.8131 122.898 51.5641C121.593 51.0202 120.279 50.5861 119.19 49.6446C117.067 47.7866 115.552 45.3383 114.84 42.6153C114.179 40.0924 114.082 37.6198 112.024 35.7597C111.597 35.3666 111.106 35.0833 110.646 34.7313C110.105 34.2664 109.641 33.7206 109.268 33.1134C109.006 32.7524 108.809 32.3776 109.245 32.012C109.783 31.5549 110.072 32.5924 110.32 32.926C111.864 35.0924 114.537 36.6875 117.238 36.4909C118.667 36.3858 119.971 35.81 121.372 35.522C122.874 35.1956 124.426 35.1677 125.939 35.4398C127.344 35.7214 128.695 36.226 129.94 36.9343C131.175 37.5578 132.322 38.34 133.353 39.2606C134.175 40.0829 134.819 41.0644 135.245 42.1445C135.47 42.7021 136.518 45.1656 135.199 45.1062C134.593 45.0696 133.674 44.3338 133.215 44.0093C132.545 43.5622 131.898 43.0817 131.276 42.5696C130.054 41.517 128.738 40.5777 127.344 39.7634C124.62 38.2688 121.097 36.4178 117.932 37.7021C119.342 38.2597 120.84 38.5476 122.213 39.2012C123.533 39.8382 124.729 40.7033 125.746 41.7561C127.996 44.0412 129.03 47.1308 130.091 50.0879C130.237 49.8171 130.408 49.5601 130.601 49.3201C130.799 49.1098 130.89 49.0138 131.106 49.1738C131.497 49.4755 131.157 50.4672 131.106 50.8557C133.077 51.1071 134.758 51.5824 136.159 53.0769C137.216 54.2104 138.479 56.1254 137.942 57.7433C137.801 58.1177 137.579 58.4568 137.293 58.7371C137.006 59.0174 136.662 59.232 136.283 59.3658C136.078 59.3929 135.875 59.4372 135.677 59.4983C135.581 59.5806 135.539 59.9005 135.489 60.0331C135.385 60.3339 135.245 60.6209 135.071 60.8877C134.258 62.0258 132.673 61.0614 131.731 60.6044C131.474 61.2214 131.299 62.076 130.684 62.4325C130.068 62.789 129.42 62.5468 128.846 62.2726C127.684 61.69 126.782 60.6954 126.32 59.4846C126.053 58.8402 125.599 58.2415 125.553 57.5422C125.497 56.7224 125.549 55.8987 125.709 55.0925C125.849 54.2747 126.162 53.4958 126.628 52.8073C127.046 52.2314 127.799 51.8932 128.391 51.5001C127.785 51.2031 126.297 50.7643 126.958 49.832C127.546 49.0047 128.557 50.3621 129.131 50.6546C128.414 47.6793 127.243 44.7451 125.116 42.4782C122.989 40.2113 120.063 39.4617 117.234 38.6253C119.53 40.289 122.287 41.98 123.757 44.4846C124.495 45.751 125.039 47.1206 125.369 48.5477C125.539 49.2881 125.612 50.0422 125.828 50.7735C125.964 51.1194 126.06 51.4798 126.113 51.8475C126.093 52.2094 126.02 52.5665 125.897 52.9078ZM125.961 37.8255L125.718 37.4416C126.752 37.3822 127.679 37.7615 128.63 38.086C127.027 37.044 125.102 36.8612 123.251 36.6418C123.725 36.9467 124.224 37.2098 124.744 37.4279C125.005 37.5382 125.274 37.6283 125.548 37.6975C125.754 37.7631 125.946 37.867 126.113 38.0037C126.94 38.5476 127.891 38.9178 128.745 39.4571C130.583 40.5906 131.892 42.4462 133.826 43.4654C134.285 43.7076 134.795 44.1509 134.639 43.4151C134.519 42.8712 134.285 42.8529 133.853 42.6336C133.515 42.4222 133.212 42.1584 132.958 41.852C132.619 41.5554 132.258 41.2849 131.878 41.0431C131.068 40.4315 130.225 39.8655 129.352 39.3474C128.277 38.7396 127.087 38.3008 125.961 37.8072V37.8255ZM126.88 56.4545C126.421 58.0632 127.386 60.385 128.8 61.3037C129.567 61.8018 130.279 61.7973 130.224 60.7872C130.192 60.2159 130.105 59.6492 130.059 59.0779C130.059 58.8859 129.935 58.31 130.114 58.1638C130.417 57.9078 131.07 58.2278 131.258 58.4746C131.446 58.7214 131.593 59.2013 131.818 59.5258C132.03 59.8454 132.308 60.1152 132.635 60.3165C132.962 60.5178 133.329 60.6457 133.711 60.6912C134.708 60.7963 134.795 59.9508 134.694 59.1327C134.623 58.6525 134.467 58.1884 134.235 57.7616C134.104 57.5608 134.016 57.3358 133.975 57.1002C133.934 56.8647 133.941 56.6232 133.996 56.3905C134.455 56.5047 134.662 56.4453 134.937 56.811C135.085 56.999 135.212 57.2028 135.314 57.4188C135.42 57.6519 135.36 57.9353 135.443 58.1364C135.787 58.9956 136.779 58.3557 136.779 57.6428C136.689 57.131 136.495 56.6427 136.21 56.2077C135.953 55.7066 135.661 55.224 135.337 54.7634C134.8 53.9682 134.198 53.2186 133.196 53.0358C133.196 53.9819 133.421 54.864 132.218 54.9325C131.584 54.9645 130.982 54.7086 130.633 55.353C130.243 56.0705 130.454 57.0623 129.512 57.3457C128.571 57.6291 127.597 57.0806 126.885 56.4362L126.88 56.4545ZM116.774 44.4206C118.795 47.9398 120.449 49.6491 124.069 50.682C123.623 49.1418 118.483 45.4489 116.788 44.4023L116.774 44.4206ZM115.957 40.5038C115.667 40.8146 116.517 42.076 116.719 42.437C117.062 43.0818 117.53 43.652 118.097 44.1144C119.475 45.2478 120.927 46.299 122.346 47.3868C121.115 44.3338 118.483 42.4188 115.97 40.4855L115.957 40.5038ZM131.961 53.6162C131.754 52.9124 131.818 52.1354 130.835 52.2863C130.408 52.3502 130.211 52.7022 129.825 52.8164C129.481 52.8652 129.141 52.9338 128.805 53.0221C128.445 53.1656 128.118 53.3795 127.842 53.6511C127.567 53.9227 127.349 54.2466 127.202 54.6035C126.917 55.5175 128.231 55.9106 128.855 56.2945C128.957 55.5449 129.012 54.6446 129.489 54.0093C130.096 53.214 131.138 53.3466 131.975 53.598L131.961 53.6162ZM124.331 49.4206C124.726 49.2469 124.441 48.9316 124.331 48.5797C124.253 48.3329 124.175 48.0861 124.101 47.8393C123.93 47.2757 123.716 46.7257 123.463 46.1939C122.981 45.1631 122.292 44.2421 121.437 43.4882C119.627 41.9571 118.033 40.2021 115.874 39.1144C116.503 40.0787 117.711 40.7597 118.575 41.4727C119.473 42.1713 120.301 42.955 121.046 43.8127C122.452 45.4901 123.237 47.533 124.345 49.4023L124.331 49.4206Z" fill="white"/>
<path d="M23.478 28.0631C23.1289 32.2176 21.5901 36.107 19.5046 39.6719C21.3099 38.3877 23.2254 37.2588 25.0812 36.0522C26.5328 35.1107 27.943 34.0504 28.8296 32.5376C29.243 31.8337 29.3946 31.0156 29.8218 30.33C30.543 29.1646 30.667 31.8154 30.69 32.1993C30.8675 34.2887 30.7563 36.3924 30.3593 38.4516C29.9596 40.2387 28.8847 41.1482 27.277 41.9343C25.3937 42.8462 23.4321 43.5881 21.4155 44.1509C19.5321 44.6811 17.5982 45.065 15.8113 45.8968C14.1163 46.6601 13.3629 47.7524 12.7887 49.4755C12.4039 50.52 12.1629 51.6116 12.0721 52.7204C12.0445 53.214 12.4442 54.7406 11.6127 54.7223C10.5057 54.7223 11.1534 52.8621 11.2682 52.3C11.3831 51.7378 11.5025 51.1528 11.5898 50.5723C11.6342 50.3111 11.6557 50.0466 11.6541 49.7817C11.6541 49.3932 11.6862 49.2835 11.3142 49.2012C11.9879 48.2049 12.6647 47.2101 13.3445 46.2168C13.9417 45.3484 14.8283 44.5303 14.5343 43.4151C13.9463 41.1665 13.3583 39.0092 13.3905 36.6601C13.4226 34.3749 14.1576 32.2359 14.7456 30.0558C15.0534 28.9041 15.3382 27.7478 15.6276 26.5915C15.77 26.011 15.8986 25.426 16.064 24.8501C16.2281 24.3533 16.5507 23.9233 16.9827 23.6253C17.3869 24.1013 17.648 24.6811 17.736 25.298C17.8738 26.0659 17.9887 26.8383 18.1311 27.5832C18.4159 29.0732 18.8201 30.5403 19.1509 32.0211C19.5333 33.3892 19.6179 34.8227 19.3989 36.2259C19.1325 37.5559 18.4802 38.7624 17.8968 39.9919C18.9533 39.0778 19.624 37.6747 20.1936 36.4498C20.9336 34.8873 21.548 33.2689 22.0311 31.6098C22.2274 30.9858 22.3869 30.351 22.5088 29.7085C22.5547 29.4434 22.7477 28.6847 22.5501 28.4333C22.2607 28.0494 20.7127 29.6491 20.2533 28.6938C19.7526 27.6427 21.5901 27.5695 22.1367 27.4233C20.901 26.4224 19.8858 25.5266 19.2611 24.0229C18.6281 22.6042 18.3658 21.0493 18.4986 19.5028C18.6364 18.3922 19.1417 16.1115 20.7678 16.7285C21.2226 16.9114 21.5901 17.7295 22.0494 17.5055C22.2745 17.405 22.4629 16.9388 22.6282 16.7377C22.8328 16.4784 23.076 16.2519 23.3494 16.0658C23.6162 15.8752 23.9197 15.7417 24.2409 15.6737C24.5622 15.6058 24.8941 15.6048 25.2157 15.671C25.5373 15.7371 25.8416 15.8689 26.1095 16.058C26.3773 16.2471 26.6028 16.4895 26.7717 16.7697C26.9107 17.0344 27.0054 17.3201 27.0519 17.6152C27.1621 18.1682 27.1989 18.0722 27.7731 18.0722C28.1171 18.0212 28.4682 18.0486 28.8001 18.1523C29.1319 18.256 29.4357 18.4334 29.6886 18.671C30.5798 19.585 30.5706 21.1984 30.373 22.3273C30.083 23.7633 29.3547 25.0752 28.2876 26.0841C27.6871 26.6865 26.9821 27.1758 26.2066 27.5284C25.6279 27.7889 24.6127 27.8575 25.1455 28.6527C25.3385 28.9315 25.5773 29.1372 25.412 29.4937C25.3063 29.7268 24.925 29.9964 24.6678 29.9004C24.4105 29.8045 24.3462 29.2514 24.2544 29.0321C24.0921 28.643 23.8231 28.3072 23.478 28.0631ZM20.7219 23.6298C21.1812 23.0951 21.7325 22.1216 22.5318 22.0485C22.7364 22.049 22.938 22.0977 23.12 22.1906C23.3021 22.2836 23.4594 22.4181 23.5791 22.5832C23.7904 22.8163 23.9558 23.2459 24.3187 23.2825C25.0858 23.3602 25.5589 22.2084 26.3996 22.6655C26.7354 22.9201 27.0258 23.2291 27.2586 23.5796C27.6123 24 27.9706 24.416 28.3289 24.8319C28.9708 24.1753 29.4436 23.374 29.707 22.4964C29.8999 21.7103 30.0331 20.522 29.707 19.7541C29.4865 19.224 28.701 18.7578 28.1497 19.0732C27.8144 19.2605 27.6904 19.6902 27.4423 19.9552C27.3289 20.0686 27.1988 20.1642 27.0565 20.2386C26.7579 20.4031 26.7946 20.4077 26.5971 20.2386C25.9172 19.6079 26.4639 18.2231 26.1377 17.4324C25.8438 16.7103 24.8837 16.5914 24.2268 16.8428C22.5455 17.4827 22.6696 19.8136 22.2424 21.2395C21.783 20.9973 21.5487 20.9196 21.4109 20.3894C21.2731 19.8593 21.5074 19.2423 21.512 18.6618C21.5166 18.0814 20.63 17.2313 20.3039 18.0311C20.2221 18.436 20.2112 18.8519 20.2717 19.2605C20.2717 19.7816 20.1063 20.266 20.0971 20.7871C20.1075 21.7667 20.3185 22.734 20.7173 23.6298H20.7219ZM28.8342 34.7359C28.5264 34.4891 28.43 34.7359 28.1451 34.9416C27.8603 35.1473 27.6353 35.3118 27.3826 35.5037C26.836 35.9151 26.2985 36.331 25.7473 36.7286C24.7091 37.469 23.5745 38.0494 22.5318 38.7442C21.47 39.4527 20.4458 40.2155 19.4632 41.0294C18.4526 41.852 17.3134 42.6747 16.5555 43.735C18.9487 42.5056 21.2685 41.1345 23.6067 39.7908C24.6272 39.2398 25.5891 38.5875 26.4777 37.8438C27.4745 36.9526 28.0992 35.8374 28.8342 34.7359ZM16.4314 40.65C18.7558 37.2862 17.8509 33.0951 17.2675 29.352C17.2399 29.1692 17.295 28.8447 17.0056 28.9635C16.9138 29.0001 16.8495 29.5988 16.8311 29.6856C16.7162 30.2158 16.629 30.746 16.5555 31.2807C16.4331 32.2986 16.3656 33.3223 16.3534 34.3474C16.2982 36.4498 16.4268 38.5476 16.4131 40.65H16.4314ZM25.9448 23.6024C25.5819 23.9772 25.2374 24.5165 24.677 24.5805C24.1166 24.6445 23.8042 24.2743 23.4321 23.9041C23.1473 23.6161 22.9727 23.415 22.5685 23.5796C22.1643 23.7441 21.5304 24.352 21.5028 24.7039C21.4385 25.618 23.3173 26.331 23.9925 26.4955C25.3201 26.8291 26.3169 26.3812 27.4102 25.6682C26.9648 24.9459 26.469 24.2556 25.9264 23.6024H25.9448ZM26.4042 38.9087L18.1311 43.8767C19.811 43.7832 21.4423 43.2815 22.8822 42.4154C24.322 41.5493 25.5266 40.3453 26.3904 38.9087H26.4042ZM25.0996 41.8063C26.4779 41.5371 27.6986 40.749 28.5073 39.6064C29.316 38.4637 29.6503 37.0547 29.4405 35.6728C28.8709 38.3374 26.4823 39.6994 25.0858 41.8063H25.0996ZM15.453 32.8346C14.9615 32.8346 14.7456 34.6628 14.6767 35.1198C14.5534 35.964 14.5103 36.8179 14.5481 37.6701C14.6512 39.3959 14.9596 41.1034 15.4668 42.757L15.453 32.8346Z" fill="white"/>
<path d="M125.02 95.9793C125.874 97.3138 126.972 98.5615 127.317 100.138C127.588 101.295 127.28 103.251 125.847 103.52C124.537 103.763 123.61 102.021 123.366 100.979C123.214 100.317 123.214 99.6301 123.366 98.9683C123.453 98.5798 123.577 98.2005 123.678 97.812C123.807 97.3275 123.784 96.9619 123.343 97.5286C122.424 98.6941 121.202 99.9007 120.633 101.281C120.316 102.053 120.523 102.679 120.5 103.47C120.486 104.147 120.306 104.811 119.976 105.403C119.333 106.555 117.959 107.602 116.636 106.848C115.465 106.18 115.465 104.69 116.048 103.612C116.756 102.296 118.304 101.637 119.292 100.563C120.541 99.2014 121.783 97.8303 123.017 96.45C121.607 96.7014 119.071 97.5652 117.831 96.4911C117.602 96.2369 117.417 95.9465 117.284 95.6319C117.188 95.472 116.963 95.3303 116.912 95.1749C116.862 95.0195 116.953 94.9189 117.096 94.7178C117.557 94.0626 118.193 93.5494 118.933 93.237C120.619 92.6017 122.507 93.4244 124.239 93.4793C125.217 93.5067 125.686 92.9857 126.292 92.2681C126.9 91.5628 127.384 90.7609 127.725 89.8961C126.609 90.0012 125.7 90.1246 124.597 89.8321C123.821 89.6264 122.76 89.4665 122.195 88.822C121.949 88.5644 121.817 88.2203 121.826 87.8655C121.836 87.5108 121.987 87.1742 122.245 86.9299C122.943 86.2215 123.954 86.194 124.873 86.354C126.329 86.6099 128.911 87.4966 129.714 85.7507C130.569 83.886 130.831 81.971 131.093 79.9692C129.425 81.2306 127.606 83.3101 125.314 82.2544C124.331 81.7973 123.747 80.801 124.198 79.7452C124.648 78.6894 125.778 78.7991 126.687 78.6529C127.298 78.5523 127.909 78.4152 128.525 78.3329C128.801 78.2867 129.081 78.2653 129.361 78.269C129.535 78.269 129.701 78.3787 129.861 78.3924C130.381 78.4381 130.367 77.8851 130.528 77.4554C130.747 77.0688 130.881 76.6405 130.923 76.1986C130.863 74.9097 130.394 73.5706 130.169 72.3C130.045 71.6236 129.93 70.9289 129.839 70.2708C129.747 69.6126 129.838 69.5669 130.266 69.0733C130.552 69.3943 130.722 69.8014 130.748 70.2296C130.803 70.8329 130.826 71.4408 130.909 72.0578C131.114 73.2185 131.404 74.3626 131.777 75.481C132.145 76.5997 132.378 77.7581 132.471 78.9317C132.57 80.1582 132.734 81.3787 132.962 82.588C132.994 82.7754 132.962 83.1822 133.118 83.3284C133.275 83.4747 133.435 83.3924 133.716 83.3284C134.251 83.1826 134.804 83.1088 135.36 83.109C136.279 83.109 137.514 83.3878 138.144 84.1145C138.394 84.4328 138.577 84.798 138.682 85.1883C138.787 85.5786 138.812 85.986 138.756 86.3862C138.699 86.7863 138.562 87.171 138.353 87.5173C138.144 87.8636 137.866 88.1643 137.537 88.4016C136.435 89.1145 135.475 88.0816 134.63 87.4555C134.164 87.1449 133.755 86.7568 133.422 86.3083C133.17 85.8579 132.861 85.4417 132.503 85.0697C132.397 87.3549 131.543 89.7041 132.043 91.9985C132.149 92.4555 132.227 92.3915 132.691 92.3687L133.523 92.3138C134.076 92.2612 134.632 92.2612 135.185 92.3138C136.269 92.4642 137.279 92.943 138.079 93.6849C138.709 94.3339 138.383 95.3897 138.02 96.0981C137.56 97.0122 137.032 97.7069 135.948 97.5972C135.003 97.4828 134.116 97.0824 133.408 96.45C133.071 96.1573 132.776 95.8206 132.53 95.4491C132.291 95.0926 132.2 94.535 131.722 94.4756C131.947 95.6822 131.984 97.1127 132.48 98.2462C132.902 99.2197 133.881 99.9098 134.492 100.755C135.539 102.209 136.058 105.262 133.66 105.678C132.043 105.961 130.321 104.553 130.822 102.935C131.002 102.446 131.155 101.947 131.281 101.441C131.396 100.851 131.699 100.289 131.74 99.6904C131.86 98.5067 131.396 97.1127 131.065 95.9884C129.687 97.0762 128.208 98.4839 126.43 97.195C126.279 97.1048 126.148 96.9853 126.045 96.8438C125.941 96.7022 125.867 96.5414 125.828 96.3709C125.788 96.2004 125.783 96.0236 125.813 95.8512C125.843 95.6787 125.908 95.514 126.003 95.3668C126.462 94.6584 127.574 94.5122 128.254 94.0506C129.005 93.5245 129.689 92.9107 130.293 92.2224C130.978 91.4729 130.969 90.5359 131.097 89.5624C131.41 87.2452 131.929 84.8275 131.809 82.4874C130.518 87.3641 128.001 91.8659 125.02 95.9793ZM132.544 93.6941C133.003 94.6082 133.463 95.4857 134.349 96.0707C134.983 96.4866 136.417 96.9848 136.835 96.0707C137.253 95.1566 137.202 94.2974 136.187 93.8815C134.979 93.3741 133.803 93.6072 132.544 93.6941ZM133.49 84.4344C133.718 85.2824 134.24 86.0225 134.965 86.5231C135.53 86.9299 136.89 88.1319 137.381 86.9802C137.698 86.2489 137.712 85.2343 137.023 84.695C136.196 84.0962 134.46 84.4482 133.49 84.4482V84.4344ZM132.572 100.541C132.471 101.112 132.406 101.692 132.269 102.259C132.137 102.614 132.052 102.984 132.016 103.36C132.079 103.658 132.216 103.935 132.414 104.166C132.613 104.398 132.866 104.576 133.15 104.686C134.014 104.951 134.097 103.237 134.092 102.679C134.077 102.215 133.925 101.765 133.655 101.387C133.384 101.008 133.008 100.717 132.572 100.55V100.541ZM123.568 94.6081C122.7 94.3568 121.731 93.9409 120.812 93.9546C120.086 93.9546 119.048 94.3659 118.75 95.0926C118.29 96.1895 120.128 95.6913 120.587 95.5999C121.624 95.4153 122.628 95.0812 123.568 94.6081ZM125.479 102.542C126.265 101.336 125.81 98.8358 124.684 97.972C123.881 100.056 123.991 101.852 125.498 102.552L125.479 102.542ZM119.315 102.506C118.563 102.803 117.901 103.286 117.39 103.909C117.105 104.311 116.591 105.399 117.077 105.838C117.698 106.395 118.63 105.449 118.915 104.983C119.365 104.243 119.515 103.361 119.333 102.515L119.315 102.506ZM129.655 79.3247C128.663 79.5167 127.661 79.6858 126.674 79.9052C126.012 80.0469 124.836 80.4216 125.663 81.2077C126.958 82.4143 128.993 80.3439 129.673 79.3339L129.655 79.3247ZM127.758 87.8577C126.798 87.7068 125.787 87.4006 124.808 87.5012C124.041 87.5743 122.865 87.9582 124.11 88.5021C125.622 89.1511 126.623 89.0688 127.776 87.8668L127.758 87.8577ZM130.188 93.4975C129.499 94.0551 128.81 94.6036 128.12 95.1703C127.82 95.3681 127.571 95.6345 127.395 95.9473C127.206 96.3586 127.482 96.482 127.909 96.5506C128.571 96.6603 129.085 95.9062 129.476 95.4537C129.739 95.2064 129.942 94.9023 130.068 94.5647C130.195 94.2272 130.242 93.8652 130.206 93.5067L130.188 93.4975Z" fill="white"/>
<path d="M7.97002 76.5048C7.66684 78.1319 5.43894 80.0331 3.71633 79.4116C1.31847 78.5478 2.8757 75.9609 4.42375 75.1474C4.79258 74.9492 5.19127 74.8118 5.60431 74.7406C5.93505 74.6812 6.72055 74.8229 6.91349 74.6355C7.32691 74.2287 6.71137 72.7251 6.52303 72.3183C6.44034 72.1401 6.11879 71.4042 5.87074 71.4042C5.62268 71.4042 5.08982 72.1127 4.90608 72.2452C4.08631 72.799 3.09162 73.0363 2.10857 72.9125C-0.165268 72.6428 -0.68894 70.2708 0.973947 68.8448C1.2896 68.5529 1.68142 68.3553 2.10464 68.2744C2.52785 68.1936 2.96538 68.2329 3.36722 68.3878C3.77379 68.544 4.15706 68.7547 4.50643 69.0139C4.68559 69.1465 5.04848 69.5669 5.2506 69.4298C5.45272 69.2927 5.06226 68.694 4.94742 68.4518C4.69018 67.8896 4.43294 67.3274 4.1711 66.7653C3.90926 66.2031 3.54178 66.002 2.99514 65.6364C2.1591 65.0834 1.15769 64.6309 0.79939 63.63C0.23897 62.0212 1.21282 59.9737 3.12376 60.0559C3.55247 60.0847 3.95999 60.2521 4.28424 60.5326C4.60848 60.8132 4.83169 61.1914 4.91986 61.6099C5.27816 62.9033 4.54318 64.1327 4.80043 65.4033C5.06685 66.7744 5.76968 68.1181 6.28875 69.3978C6.82113 70.8022 7.46154 72.1636 8.20429 73.4701C8.45234 72.0258 8.60393 70.5587 8.9898 69.1465C9.35728 67.821 9.95445 66.5642 10.4506 65.289C10.5884 64.9371 10.8686 64.4298 10.6113 64.0687C10.3541 63.7077 9.49509 63.6117 9.09086 63.4335C8.15137 62.9846 7.37235 62.2605 6.85836 61.3585C6.21066 60.0422 6.85836 57.3045 8.64068 57.3457C9.09785 57.3618 9.54128 57.5053 9.92052 57.7598C10.2998 58.0144 10.5996 58.3697 10.7859 58.7854C10.9468 59.3613 11.0575 59.9501 11.1166 60.545C11.259 61.3219 11.4198 62.0943 11.576 62.8667C12.3202 61.7698 13.0873 60.7004 13.8728 59.64C14.6583 58.5797 15.5265 57.5605 15.8848 56.3173C16.0731 55.6409 15.8848 55.3484 15.6459 54.7223C15.4522 54.1783 15.3062 53.6186 15.2095 53.0495C15.1165 52.5033 15.1651 51.9425 15.3508 51.4202C15.5365 50.898 15.8531 50.4315 16.2707 50.065C16.8954 49.608 18.2965 49.8 18.9855 50.033C20.1752 50.4352 20.4325 51.491 19.9364 52.5193C19.7347 52.9825 19.4704 53.4161 19.1509 53.8082C18.7972 54.2104 18.3148 54.3338 17.9381 54.672C17.5615 55.0102 17.4788 55.6683 17.2904 56.0751C17.047 56.683 16.8311 57.2954 16.5738 57.9033C17.6579 57.9033 20.1706 57.8576 20.4325 59.2744C20.7403 60.9472 18.3516 61.6144 17.1067 61.6053C16.2201 61.6053 15.453 61.3036 14.5435 61.427C13.6339 61.5504 13.3445 61.9389 12.9357 62.7159C12.4763 63.5797 12.0445 64.4618 11.6127 65.3393C11.1809 66.2168 10.6665 66.9984 10.5746 67.9353C11.1672 67.556 11.6311 67.0806 12.3431 66.9481C13.032 66.8338 13.7384 66.8887 14.4011 67.1081C15.4943 67.4417 17.1572 68.2781 16.583 69.6766C16.2201 70.5907 14.8007 71.5048 13.8544 71.1666C13.1519 70.8887 12.4743 70.5523 11.8286 70.1611C11.406 69.9188 10.8594 69.247 10.3633 69.6172C9.86718 69.9874 9.8534 70.7735 9.76152 71.2808C9.60534 72.1218 9.46294 72.9673 9.32972 73.8083C9.08626 75.3896 9.35729 76.939 9.50428 78.5112C9.67722 80.0992 9.69876 81.6998 9.56859 83.2918C9.55763 83.9859 9.43032 84.6733 9.19192 85.3257C9.00817 85.7142 8.57178 86.1758 8.27319 85.5816C8.05729 85.1246 8.36507 84.247 8.44775 83.8174C8.6265 83.0081 8.72041 82.1826 8.72796 81.354C8.72796 80.4765 8.60853 79.6035 8.50747 78.7306C8.47531 78.3375 8.38803 76.4911 7.97002 76.5048ZM8.99898 58.2506C8.43397 58.4791 8.08026 58.4609 7.97002 59.1281C7.88169 59.6523 7.90201 60.1889 8.02973 60.7049C8.14437 61.1289 8.36304 61.5179 8.66611 61.837C8.96918 62.1561 9.34717 62.3953 9.76612 62.5331C10.0877 62.6428 10.5103 62.821 10.6848 62.4737C10.8594 62.1263 10.4643 61.1026 10.4 60.7689C10.2255 59.768 10.2806 58.4334 8.99898 58.2506ZM5.08982 70.3439C4.27675 69.7955 3.30291 68.8265 2.23719 69.0779C2.02921 69.124 1.83307 69.2125 1.66114 69.3377C1.4892 69.4629 1.34519 69.6222 1.23818 69.8055C1.13116 69.9889 1.06346 70.1923 1.03933 70.4029C1.0152 70.6135 1.03517 70.8269 1.09797 71.0295C1.71352 72.7936 4.47428 71.3677 5.08982 70.3439ZM3.71174 65.0148C4.00114 64.0139 4.30891 62.9581 4.03789 61.9115C3.79442 60.9563 3.19266 60.5907 2.35203 61.2122C2.02552 61.4361 1.7877 61.7663 1.67954 62.1459C1.57138 62.5255 1.59964 62.9307 1.75945 63.2918C2.12235 64.1373 2.96757 64.5532 3.71174 65.0148ZM16.4728 54.6903C17.171 54.1098 18.0346 53.7168 18.4618 52.8621C18.8201 52.1674 19.1784 51.1299 18.2092 50.7734C17.8664 50.6703 17.4987 50.685 17.1654 50.8152C16.832 50.9454 16.5525 51.1834 16.3717 51.491C15.8159 52.4691 16.2247 53.7076 16.4728 54.6903ZM11.4474 69.055C11.9848 69.3521 12.5177 69.6629 13.0597 69.9691C13.4594 70.1839 13.9141 70.5221 14.3919 70.4262C15.1039 70.2936 15.8159 68.9956 15.2187 68.4061C14.8375 68.0221 13.7488 67.949 13.2527 67.949C12.8731 67.9211 12.4943 68.0129 12.1702 68.2115C11.8461 68.4101 11.5932 68.7052 11.4474 69.055ZM14.5113 60.5175C14.6629 60.842 15.6276 60.6044 15.9859 60.6455C16.5555 60.7141 16.9873 60.9152 17.5707 60.7918C18.154 60.6684 19.7802 60.0148 19.0268 59.1738C18.5169 58.6025 17.0883 58.7488 16.4452 59.0459C15.7011 59.4161 15.2279 60.1245 14.5113 60.5175ZM3.42693 77.8851C3.71633 78.1684 3.79902 78.4838 4.24 78.4792C4.67296 78.4105 5.07662 78.2184 5.40219 77.9262C5.91208 77.5377 6.82621 76.6465 6.70218 75.9198C6.55059 75.0651 5.41597 75.5999 4.97958 75.8649C4.28135 76.2854 3.52799 77.0258 3.42693 77.8759V77.8851Z" fill="white"/>
<path d="M87.242 18.1774C87.5176 17.6243 87.8805 17.5923 88.4271 17.7203C89.084 17.8986 89.7317 18.0768 90.3886 18.2322C91.0324 18.4516 91.6909 18.6257 92.3592 18.7532C93.0758 18.8218 93.7649 18.5201 94.4585 18.415C93.9991 16.5869 93.7878 14.7953 94.7203 13.0585C95.221 12.1444 95.9836 11.9113 96.9574 11.6234C97.5408 11.4543 98.5974 11.0932 99.1624 11.5046C99.6217 11.8474 99.4104 12.4187 99.3323 12.8757C99.2037 13.6618 99.5666 14.4251 99.3783 15.2203C98.9557 17.0028 96.5532 17.6106 95.8642 19.224C97.6557 19.5942 100.279 20.7688 101.68 19.0183C102.254 18.2962 102.47 17.4141 103.196 16.7925C103.921 16.171 104.937 15.9424 105.924 15.7002C106.733 15.5037 107.817 15.2432 108.317 16.107C108.901 17.1353 108.189 17.9351 107.532 18.6801C106.97 19.4115 106.148 19.9019 105.235 20.0512C104.045 20.2203 102.911 20.3026 101.735 20.5814L107.491 23.3236C107.826 23.4836 107.798 23.447 108.102 23.3236C108.36 23.197 108.605 23.0439 108.832 22.8666C109.291 22.5741 109.778 22.2861 110.256 22.0028C111.023 21.498 111.941 21.2719 112.856 21.3629C113.66 21.4086 114.771 21.3629 115.102 22.277C115.205 22.6188 115.234 22.9782 115.187 23.3319C115.14 23.6855 115.019 24.0254 114.831 24.3291C114.33 25.0421 113.223 25.0741 112.433 25.1289C111.415 25.171 110.395 25.0866 109.397 24.8776C110.274 25.7459 111.069 26.7514 112.185 27.3273C113.187 27.8392 114.252 27.9717 115.148 28.6984C116.696 29.9827 117.551 33.0312 114.827 33.4791C114.346 33.5765 113.848 33.5599 113.375 33.4305C112.902 33.301 112.466 33.0625 112.103 32.7341C111.184 31.7926 111.404 30.714 111.45 29.5348C111.496 28.3556 110.132 27.0759 109.296 26.2167C108.301 25.2459 107.13 24.4707 105.846 23.9315C106.305 24.8456 106.999 25.5128 107.325 26.4955C107.592 27.2907 107.844 28.447 107.569 29.2743C107.293 30.1015 106.48 30.1061 105.731 30.1152C105.332 30.1152 104.863 30.2066 104.555 29.8867C104.309 29.5025 104.152 29.0684 104.096 28.6162C103.776 27.5341 103.639 26.4065 103.692 25.2798C103.751 24.3657 103.885 23.5156 103.2 22.7615C102.516 22.0074 101.487 21.6417 100.545 21.3492C99.4921 20.9347 98.3992 20.6284 97.2836 20.4351C97.9313 21.4452 98.827 22.341 99.4288 23.3648C99.5847 23.6982 99.6685 24.0604 99.6748 24.4281C99.6811 24.7957 99.6098 25.1606 99.4655 25.4991C99.2175 26.203 98.8041 26.8383 98.0232 26.4635C97.2422 26.0887 96.5302 25.8282 96.1168 25.1152C95.5839 24.2011 95.7493 22.8986 95.6574 21.8885C95.5656 20.8785 94.8857 20.3483 93.944 19.9278C91.8356 19.0732 89.4055 19.0137 87.242 18.1774ZM112.663 28.8264C112.447 29.7405 112.075 30.9333 112.7 31.7652C112.961 32.0887 113.303 32.3378 113.692 32.4871C114.081 32.6364 114.502 32.6806 114.914 32.6152C117.665 32.1674 113.43 29.3109 112.663 28.8264ZM98.1793 12.5832C97.6189 12.7797 97.0401 12.9397 96.4889 13.1636C95.9377 13.3876 95.8642 13.6207 95.6758 14.1326C95.2807 15.2216 95.2421 16.4071 95.5656 17.5192C96.2002 16.913 96.7173 16.1957 97.0907 15.4031L98.1793 12.5832ZM109.613 24.0458C110.532 24.2423 114.321 25.1701 114.262 23.4196C114.234 22.5924 112.838 22.7386 112.277 22.7798C111.165 22.8529 110.522 23.4653 109.613 24.0458ZM103.182 19.0183C105.405 19.1554 107.114 18.3785 107.491 17.0805C106.195 16.4543 103.673 17.5604 103.2 19.0092L103.182 19.0183ZM104.927 24.9598C104.868 25.6271 104.849 29.8684 106.273 29.1417C107.697 28.4151 105.727 25.5083 104.946 24.9735L104.927 24.9598ZM97.1182 22.4827C96.9229 23.1 96.9229 23.7621 97.1182 24.3794C97.2836 24.7816 97.8073 25.394 98.3126 25.3346C99.7228 25.1838 97.3846 22.7935 97.1182 22.4964V22.4827Z" fill="white"/>
<path d="M16.6795 75.5724C17.4926 75.6776 18.889 75.5724 19.4357 76.3174C19.9823 77.0624 19.3346 77.8896 18.8017 78.3924C18.1427 78.9892 17.2812 79.3157 16.3901 79.3065C15.785 79.363 15.1857 79.47 14.5986 79.6264C14.2127 79.7132 13.6018 79.9737 13.1975 79.8641C12.1272 79.567 12.5315 78.0862 12.7657 77.4143C13.124 76.386 13.4778 75.1657 14.1438 74.279C14.5159 73.7717 15.7608 72.6017 16.4406 72.8805C17.4972 73.2964 16.8632 74.8412 16.6795 75.5724ZM14.424 78.3787C14.8834 78.3467 15.3841 78.2553 15.8664 78.269C16.23 78.3079 16.5974 78.2894 16.9551 78.2141C17.3823 78.0907 18.8798 77.3001 18.4848 76.7059C18.0897 76.1118 16.7668 76.4819 16.2982 76.7379C15.597 77.1917 14.9657 77.7444 14.424 78.3787ZM15.9813 73.8083C14.9845 74.1968 13.441 75.9244 13.6845 77.0898C14.7226 76.3266 16.3304 75.3713 15.9813 73.8037V73.8083Z" fill="white"/>
<path d="M85.6388 23.3876C85.432 23.9498 85.3448 24.8867 84.619 24.9781C83.8932 25.0695 82.8918 24.4617 82.4875 23.9132C81.9225 23.1408 82.0282 22.085 81.9593 21.1984C81.8904 20.3117 81.4127 19.3154 82.5197 19.032C82.63 19.6856 82.7494 20.3437 82.8459 21.0019C82.8751 21.5862 82.9613 22.1663 83.1031 22.734C83.2593 23.1591 84.1183 24.2149 84.6052 23.6755C85.5239 22.6883 81.5137 18.8583 83.9116 18.7989C84.7706 18.7761 85.873 19.3611 86.5759 19.7999C87.3804 20.3 88.0857 20.9429 88.6568 21.6966C89.2907 22.5284 89.5341 23.4699 88.5006 24.1372C87.467 24.8044 86.4886 24 85.6388 23.3876ZM84.9038 19.9827C84.6603 20.3392 85.1794 20.8465 85.3999 21.1938C85.6204 21.5412 85.9006 22.0119 86.213 22.3958C86.5253 22.7797 87.5497 23.8538 88.1423 23.3693C89.4009 22.341 85.5056 20.3117 84.9038 19.9827Z" fill="white"/>
<path d="M124.239 111.377C124.239 112.41 124.588 114.238 123.66 115.006C122.856 115.664 121.869 114.279 121.533 113.635C120.977 112.556 121.294 111.537 121.455 110.408C121.573 109.877 121.626 109.334 121.611 108.79C121.565 108.397 121.345 108.109 121.74 107.821C122.328 107.396 123.706 107.647 124.349 107.821C125.215 108.077 125.971 108.615 126.494 109.348C126.977 110.024 127.505 111.208 126.788 111.939C126.072 112.67 124.877 111.848 124.239 111.377ZM125.916 111.464C126.448 110.701 125.69 109.896 125.089 109.435C124.387 108.919 123.517 108.684 122.649 108.776C122.669 109.025 122.741 109.266 122.861 109.485C123.172 109.757 123.518 109.988 123.89 110.17C124.574 110.605 125.245 111.062 125.916 111.464ZM122.31 110.55C122.157 111.224 122.1 111.916 122.14 112.606C122.181 112.949 122.571 114.297 123.058 114.051C123.453 113.85 123.219 112.702 123.178 112.382C123.107 111.689 122.801 111.041 122.31 110.545V110.55Z" fill="white"/>
<path d="M121.997 29.384C122.558 29.7268 123.867 30.4306 123.279 31.2121C122.741 31.948 121.74 31.8748 120.931 31.7103C120.005 31.5012 119.179 30.9836 118.589 30.2432C118.326 29.9504 117.98 29.7447 117.597 29.6536C117.243 29.5302 116.944 29.3703 117.137 28.9452C117.33 28.5202 117.973 28.4242 118.341 28.2734C118.819 28.0512 119.28 27.793 119.719 27.501C120.613 26.8788 121.634 26.4592 122.709 26.2715C123.545 26.1756 124.514 26.3081 124.23 27.4187C123.995 28.2505 122.686 28.9635 121.997 29.384ZM120.279 28.3922C121.313 28.3922 122.213 28.3922 122.907 27.5193C122.431 27.4686 121.951 27.5204 121.497 27.671C121.044 27.8216 120.629 28.0676 120.279 28.3922ZM120.068 29.8136C119.705 30.7277 121.542 30.8785 122.098 30.6454L120.068 29.8136Z" fill="white"/>
<path d="M134.671 71.2991C135.441 70.8539 136.31 70.6062 137.2 70.5782C138.09 70.5503 138.973 70.7431 139.77 71.1391C140.321 71.4134 140.767 71.8339 140.583 72.5103C140.399 73.1867 139.412 73.4243 138.824 73.7169C139.839 74.2424 140.28 75.9289 139.563 76.8476C138.47 78.2461 137.115 76.8476 136.302 75.9335C135.354 74.8176 134.562 73.5801 133.945 72.2543C133.766 71.8841 133.601 71.5139 133.426 71.1391C133.33 70.9335 133.242 70.8695 133.357 70.705C133.47 70.5888 133.622 70.5188 133.784 70.5084C134.248 70.481 134.405 71.002 134.671 71.2991ZM135.893 73.5432C135.81 73.9042 136.256 74.2516 136.476 74.5258C136.802 74.9417 137.129 75.3531 137.464 75.7598C137.799 76.1666 138.603 77.4509 139.049 76.3997C139.802 74.6309 136.963 73.9819 135.893 73.534V73.5432ZM134.882 71.8887C135.566 72.4636 136.411 72.8133 137.303 72.8896C137.932 72.9902 138.837 73.2187 139.361 72.7068C139.82 72.2817 139.526 72.0898 139.067 71.8796C138.662 71.6989 138.225 71.6025 137.781 71.5962C136.807 71.5551 135.856 71.8384 134.882 71.8796V71.8887Z" fill="white"/>
<path d="M71.936 125.143C72.0555 124.412 72.1841 123.342 73.0661 123.137C73.8654 122.949 74.4855 123.667 74.7657 124.311C75.1975 125.312 75.4364 126.354 74.9632 127.382C74.7267 127.782 74.518 128.198 74.3385 128.626C74.2282 128.973 74.2788 129.659 73.9067 129.864C73.1166 130.321 72.3954 129.083 71.9131 128.685C71.1286 128.062 70.3931 127.381 69.7127 126.647C69.1891 126.071 68.2887 125.111 69.3912 124.563C70.3696 124.069 71.1413 124.659 71.936 125.143ZM73.2268 124.147C72.9113 124.701 72.778 125.34 72.8455 125.973C72.9131 126.607 73.1781 127.203 73.6035 127.68C74.0071 127.155 74.1929 126.496 74.1229 125.838C74.0528 125.181 73.7321 124.576 73.2268 124.147ZM72.0325 127.958C72.1657 127.104 70.8519 125.445 69.9103 125.28C69.7816 125.952 70.5947 126.98 72.0325 127.972V127.958Z" fill="white"/>
<path d="M37.8514 117.606C37.3541 117.479 36.9131 117.191 36.5974 116.788C36.2911 116.367 36.0453 115.906 35.867 115.417C35.5592 114.622 35.0953 113.53 35.1688 112.675C35.1808 112.484 35.2343 112.298 35.3255 112.129C35.4167 111.961 35.5434 111.814 35.6971 111.699C35.8507 111.584 36.0276 111.503 36.2155 111.463C36.4034 111.422 36.598 111.423 36.7857 111.464C37.6401 111.596 37.7642 112.456 37.8239 113.169C38.3797 112.634 39.032 111.825 39.891 112.254C40.2378 112.484 40.5215 112.796 40.7164 113.163C40.9114 113.529 41.0113 113.938 41.0073 114.352C40.9246 115.266 40.1437 115.984 39.5786 116.637C39.2892 116.962 38.9034 117.62 38.5037 117.798C38.1868 117.945 38.0995 117.794 37.8514 117.606ZM38.2327 116.263C39.7854 115.038 40.0242 114.238 39.1928 113.196C38.3613 114.028 38.1271 115.029 38.2327 116.263ZM37.1348 115.929C37.0981 114.668 37.0797 113.452 36.4688 112.305C35.8624 112.83 36.2529 114.8 37.1348 115.929Z" fill="white"/>
<path d="M76.1438 140.239C75.5282 140.385 74.1272 141.048 73.6541 140.349C73.259 139.768 73.7459 138.671 74.141 138.21C74.7703 137.479 75.588 137.515 76.4056 137.163C76.6767 137.044 76.865 136.925 76.865 136.619C76.8879 136.432 76.7685 136.281 76.7593 136.103C76.7706 135.884 76.8076 135.668 76.8696 135.458C77.7414 136.255 78.3326 137.309 78.5554 138.466C78.7897 139.435 79.0148 140.618 78.5279 141.546C78.2431 142.113 77.3749 143.265 76.6169 143.027C75.6936 142.73 76.0749 140.934 76.1438 140.239ZM76.5205 137.954C75.8039 137.917 74.2696 138.443 74.582 139.43C74.8943 140.417 76.254 138.26 76.5205 137.945V137.954ZM77.6413 138.895L77.3795 138.845C77.2646 139.759 77.1544 140.705 77.0395 141.638C77.8526 140.883 77.7745 139.883 77.6321 138.886L77.6413 138.895Z" fill="white"/>
<path d="M94.6009 122.789C93.4433 122.465 93.1723 121.464 92.5384 120.595C91.8493 119.654 90.756 118.863 89.5387 119.147C89.9981 120.33 91.0638 120.678 92.1158 121.19C92.5751 121.404 93.2366 121.647 92.6808 122.154C92.1418 122.517 91.4908 122.679 90.8433 122.611C90.1451 122.611 89.4423 122.579 88.744 122.547C88.225 122.524 87.467 122.638 87.0031 122.337C86.3324 121.88 86.2911 120.477 86.902 119.974C87.2603 119.681 87.8667 119.91 88.3031 119.974C88.96 120.052 88.8313 119.951 88.7349 119.375C88.5373 118.228 89.6536 118.063 90.5723 118.265C92.8324 118.754 93.65 120.975 94.6009 122.789ZM90.4942 121.633C89.2539 120.947 88.3122 120.829 87.4073 121.212C87.738 121.752 89.4331 121.989 90.4942 121.633Z" fill="white"/>
<path d="M5.73293 48.7488C5.66862 47.7204 5.30113 45.9425 6.06827 45.0559C6.71597 44.3063 7.76331 45.5403 8.10324 46.0796C8.55998 46.8473 8.74137 47.7464 8.61772 48.6299C8.55341 49.2561 8.39723 49.8731 8.32373 50.4992C8.26952 50.75 8.25864 51.0081 8.29157 51.2625C8.3421 51.5001 8.52125 51.6875 8.54422 51.9343C8.60394 52.5148 8.1262 52.4188 7.6944 52.3228C7.16155 52.1994 6.64247 52.1126 6.10961 52.0075C5.22841 51.8111 4.42765 51.3538 3.8128 50.6958C3.28913 50.1564 2.79302 49.3246 3.07323 48.5431C3.43613 47.5742 5.14036 48.5294 5.73293 48.7488ZM7.01914 45.7734C6.18311 46.6555 6.62409 49.5029 7.65306 50.1519C7.91949 48.6345 8.38345 47.1126 7.01914 45.7734ZM4.0287 48.8767C3.84037 50.0193 5.40679 51.2031 6.82162 51.0065C6.61491 49.9553 5.2552 48.9042 4.0287 48.8767Z" fill="white"/>
<path d="M124.822 70.9975C124.165 70.8923 123.155 70.8969 123.224 69.9965C123.318 69.2823 123.651 68.6204 124.17 68.1181C124.77 67.6382 125.427 67.2345 126.127 66.9161C126.683 66.5962 127.454 66.2717 127.638 67.1309C127.771 68.0227 127.781 68.9282 127.67 69.8229C127.601 70.6867 127.473 71.6967 126.935 72.4097C126.572 72.8668 125.888 73.5295 125.249 73.1501C124.611 72.7708 124.744 71.6328 124.822 70.9975ZM126.761 68.7123C126.154 69.7954 125.672 70.9015 125.984 72.2315C127.009 71.1803 126.885 69.928 126.784 68.7168L126.761 68.7123ZM125.897 68.0313C125.185 68.4883 124.248 69.0596 124.45 69.992C125.199 69.6583 125.502 68.7351 125.897 68.0358V68.0313Z" fill="white"/>
<path d="M80.9395 132.872C80.2367 132.415 80.5123 131.861 81.16 131.414C81.6469 131.075 82.7448 130.554 83.3558 130.637C83.9667 130.719 83.8565 131.702 83.5119 132.035C82.9607 132.579 81.6607 132.675 80.9395 132.872Z" fill="white"/>
<path d="M137.276 61.3905C137.988 59.8685 139.706 60.4353 140.542 61.5596C141.001 62.1675 140.712 62.6976 139.967 62.4737C139.053 62.1857 138.167 61.7516 137.276 61.3905Z" fill="white"/>
<path d="M6.23364 90.9518C5.57216 90.4948 4.57076 90.0652 4.06086 89.4482C3.55097 88.8312 4.12517 88.4656 4.75909 88.5341C5.86156 88.6666 7.38204 89.9464 6.23364 90.9518Z" fill="white"/>
<path d="M87.5084 139.942C87.4303 140.568 86.778 141.702 86.1303 141.871C85.3724 142.058 85.4229 141.112 85.5837 140.664C85.7823 140.046 86.144 139.492 86.631 139.06C87.2787 138.562 87.5176 139.362 87.5084 139.942Z" fill="white"/>
<path d="M133.674 65.7187C133.261 66.3037 132.925 66.747 132.213 66.1346C131.814 65.6853 131.599 65.1027 131.612 64.5029C131.612 64.0048 131.956 63.5112 132.53 63.7991C133.105 64.087 133.394 65.1931 133.674 65.7187Z" fill="white"/>
<path d="M14.4424 85.1474C14.4424 85.5816 14.2862 86.5185 13.6753 85.9655C13.174 85.3421 12.8292 84.6089 12.6693 83.8266C12.6096 83.1639 13.271 82.9856 13.7534 83.301C14.346 83.6986 14.4516 84.4984 14.4424 85.1474Z" fill="white"/>
<path d="M130.192 64.6812C130.454 64.8559 130.675 65.0855 130.838 65.3539C131.002 65.6224 131.104 65.9231 131.138 66.2351C131.244 66.7241 131.455 67.6519 130.615 67.5331C129.949 67.4371 129.48 66.6556 129.443 66.0614C129.417 65.7834 129.473 65.5037 129.607 65.2579C129.74 65.0122 129.944 64.8114 130.192 64.6812Z" fill="white"/>
<path d="M86.0017 14.6993C86.9624 14.8689 87.912 15.0964 88.8451 15.3803C89.4653 15.5905 89.6398 15.7322 89.3458 16.3583C89.1161 16.8428 89.0289 16.8794 88.5006 16.6965C88.1356 16.5664 87.7884 16.3914 87.467 16.1755C87.1455 15.9653 86.8423 15.7185 86.5483 15.4945C86.2543 15.2706 85.8271 15.1609 86.0017 14.6993Z" fill="white"/>
<path d="M21.1307 48.8173C21.1721 47.9764 22.9682 46.5001 23.2254 47.9032C23.2306 48.2227 23.1616 48.539 23.0238 48.8276C22.8859 49.1162 22.683 49.3691 22.4307 49.5669C21.7325 49.9782 21.4293 49.3018 21.1307 48.8173Z" fill="white"/>
<path d="M12.8622 87.4829C12.118 87.1721 10.7308 85.6867 11.4198 84.8275C11.8103 84.3385 12.4718 84.6904 12.7612 85.12C13.17 85.7187 12.8622 86.8019 12.8622 87.4829Z" fill="white"/>
<path d="M7.55201 88.7123C6.82622 88.7123 4.79584 87.4418 5.90749 86.6237C6.4082 86.2489 7.08805 86.7197 7.38664 87.1264C7.57694 87.3406 7.69519 87.6087 7.72484 87.893C7.75449 88.1774 7.69406 88.4638 7.55201 88.7123Z" fill="white"/>
<path d="M21.489 14.9735C20.7678 15.17 20.4646 15.3209 19.9547 14.6307C19.6745 14.2514 19.2198 13.3647 19.3714 12.8985C19.5505 12.3455 20.1706 12.4415 20.4509 12.8117C20.9148 13.4059 21.1721 14.3017 21.489 14.9735Z" fill="white"/>
<path d="M89.3826 5.42137C89.479 6.47713 88.3214 7.91681 87.1593 7.24953C85.9971 6.58225 88.7808 5.42137 89.3826 5.42137Z" fill="white"/>
<path d="M30.3639 16.0795C30.8808 15.4149 31.4507 14.7929 32.0681 14.2194C32.5275 13.8446 32.9868 14.0686 33.0419 14.713C33.0537 14.9483 32.9846 15.1806 32.846 15.3717C32.7074 15.5627 32.5076 15.7012 32.2794 15.7642C31.9119 15.8967 31.5398 16.0018 31.1769 16.1481C30.814 16.2944 30.6349 16.4909 30.3639 16.0795Z" fill="white"/>
<path d="M111.974 102.574C112.525 101.825 114.468 101.733 114.445 102.981C114.445 103.621 113.651 103.744 113.15 103.635C112.878 103.575 112.627 103.446 112.42 103.26C112.214 103.074 112.06 102.838 111.974 102.574Z" fill="white"/>
<path d="M23.2254 12.9031C23.0738 13.4607 23.0141 14.3336 22.6879 14.8181C22.2607 15.4625 21.9208 14.8912 21.7968 14.4068C21.7009 14.119 21.6714 13.8135 21.7104 13.5129C21.7493 13.2122 21.8558 12.9242 22.0219 12.67C22.0954 12.5786 22.4812 12.181 22.6099 12.1856C22.7385 12.1901 23.1335 12.798 23.2254 12.9031Z" fill="white"/>
<path d="M119.893 115.422C120.38 115.774 121.106 116.112 121.391 116.669C121.455 116.772 121.493 116.889 121.502 117.009C121.511 117.13 121.491 117.251 121.444 117.362C121.397 117.473 121.324 117.572 121.231 117.649C121.137 117.727 121.027 117.781 120.909 117.808C120.385 117.913 119.99 117.456 119.756 117.044C119.585 116.767 119.479 116.454 119.448 116.13C119.466 115.838 119.733 115.632 119.893 115.422Z" fill="white"/>
<path d="M114.059 100.591C113.573 100.289 112.801 100.074 112.553 99.503C112.305 98.9317 112.773 98.8266 113.256 98.8175C113.738 98.8083 114.473 98.886 114.794 99.3477C115.24 99.9967 114.514 100.243 114.059 100.591Z" fill="white"/>
<path d="M85.772 137.899C85.7077 138.557 84.7063 140.184 83.9345 139.695C83.2685 139.27 83.8794 138.411 84.3296 138.045C84.6328 137.794 85.7904 137.017 85.772 137.899Z" fill="white"/>
<path d="M54.2047 21.4818C54.1817 20.6408 54.8937 20.9653 55.3623 21.2121C55.6792 21.3812 56.6347 21.7788 56.4739 22.2953C56.3518 22.5472 56.1346 22.7409 55.8696 22.8342C55.6046 22.9275 55.3133 22.9129 55.0591 22.7935C54.8337 22.645 54.6415 22.4519 54.4945 22.2262C54.3475 22.0005 54.2488 21.7471 54.2047 21.4818Z" fill="white"/>
<path d="M88.7211 3.77146C88.2617 4.19651 87.66 5.02375 87.0766 5.26598C86.9888 5.31557 86.889 5.34002 86.7882 5.33663C86.6873 5.33324 86.5894 5.30214 86.5052 5.24677C86.421 5.19141 86.3538 5.11394 86.3112 5.02295C86.2685 4.93196 86.252 4.83099 86.2635 4.73124C86.2911 4.2742 86.9755 3.72575 87.32 3.46524C87.8942 3.03105 88.3306 3.20016 88.7211 3.77146Z" fill="white"/>
<path d="M29.9321 14.777C29.9321 15.2843 29.8678 15.7459 29.2981 15.8876C28.7285 16.0293 28.2095 15.7048 28.3197 15.0832C28.3886 14.681 28.5861 13.8492 29.0455 13.7121C29.7162 13.5384 29.978 14.2651 29.9321 14.777Z" fill="white"/>
<path d="M138.226 63.63C138.079 65.2251 136.196 63.4426 136.072 62.7159C135.976 62.1355 136.683 62.0669 137.027 62.2908C137.561 62.5981 137.981 63.0675 138.226 63.63Z" fill="white"/>
<path d="M34.4889 127.026C34.2172 127.054 33.9426 127.021 33.6851 126.93C33.4276 126.839 33.1938 126.693 33.0006 126.5C32.6101 126.043 32.6653 125.454 33.3451 125.344C33.9059 125.355 34.442 125.575 34.8472 125.961C35.1366 126.377 34.7645 126.779 34.4889 127.026Z" fill="white"/>
<path d="M106.011 32.6518C105.938 32.9855 106.292 33.4196 106.094 33.7213C105.828 34.1372 104.955 33.8721 104.716 33.5568C104.477 33.2414 104.349 32.2816 104.753 31.9525C104.873 31.8554 105.02 31.7963 105.175 31.7831C105.33 31.7699 105.485 31.803 105.62 31.8783C105.755 31.9535 105.865 32.0674 105.935 32.2053C106.005 32.3432 106.031 32.4987 106.011 32.6518Z" fill="white"/>
<path d="M8.63609 39.8776C9.09545 40.2752 9.86718 40.7368 10.1382 41.2853C10.4092 41.8337 9.90392 42.1674 9.38944 42.1308C8.32832 42.0486 8.13998 40.5769 8.63609 39.8776Z" fill="white"/>
<path d="M78.119 121.93C78.3424 121.725 78.6123 121.576 78.9058 121.496C79.1992 121.417 79.5076 121.409 79.8049 121.473C80.2183 121.619 80.6823 122.035 80.4572 122.483C80.314 122.682 80.1131 122.832 79.8815 122.914C79.6499 122.995 79.3988 123.005 79.1618 122.94C78.6749 122.826 78.3763 122.323 78.119 121.93Z" fill="white"/>
<path d="M87.8024 12.5375C88.3949 12.6837 89.7914 12.9945 88.7762 13.7806C87.9356 14.4113 87.2419 13.6664 86.6953 13.0905C86.7826 13.0357 87.807 12.5283 87.8024 12.5375Z" fill="white"/>
<path d="M140.633 81.354C140.356 81.3447 140.084 81.2673 139.844 81.1285C139.604 80.9898 139.401 80.7941 139.255 80.5587C138.961 80.1017 139.003 79.407 139.715 79.3887C140.174 79.3887 140.633 79.8458 140.836 80.216C141.12 80.7324 141.024 80.9609 140.633 81.354Z" fill="white"/>
<path d="M100.867 30.6591C101.211 30.1701 101.326 29.745 101.919 30.1655C102.106 30.2971 102.261 30.4689 102.372 30.6683C102.484 30.8677 102.548 31.0895 102.562 31.3173C102.571 31.4359 102.571 31.5551 102.562 31.6737C102.635 31.9023 102.562 31.9754 102.346 31.9023C102.145 31.9459 101.936 31.9364 101.739 31.8748C101.271 31.7012 101.087 31.0339 100.867 30.6591Z" fill="white"/>
<path d="M82.2257 129.019C81.6975 129.439 79.6671 130.673 79.9289 129.165C80.0024 128.731 80.3561 128.15 80.8476 128.169C81.3392 128.187 81.8812 128.781 82.2257 129.019Z" fill="white"/>
<path d="M79.2445 125.856C78.8862 125.637 78.2201 125.426 78.0547 125.001C77.8204 124.416 78.2522 124.197 78.7438 124.179C78.9813 124.139 79.2252 124.17 79.4455 124.266C79.6659 124.363 79.853 124.521 79.984 124.723C80.2596 125.298 79.6257 125.536 79.2445 125.856Z" fill="white"/>
<path d="M58.9315 22.7615C58.6749 22.7714 58.4211 22.705 58.2026 22.5707C57.9841 22.4363 57.8109 22.2402 57.705 22.0074C57.5489 21.5914 57.6361 21.0247 58.1644 20.9836C58.3856 21.0029 58.5993 21.0727 58.789 21.1876C58.9786 21.3026 59.139 21.4596 59.2577 21.6463C59.6206 22.1673 59.3128 22.3593 58.9315 22.7615Z" fill="white"/>
<path d="M15.6505 108.424C15.5678 108.548 15.3244 109.073 15.1912 109.105C15.058 109.137 14.5986 108.813 14.5067 108.763C14.1852 108.598 13.4732 108.306 13.5421 107.817C13.5972 107.424 14.3184 107.414 14.6629 107.52C14.8914 107.574 15.1021 107.686 15.275 107.844C15.4478 108.003 15.5771 108.202 15.6505 108.424Z" fill="white"/>
<path d="M9.64669 37.8804C10.0325 38.214 10.7997 38.6208 11.0248 39.0961C11.1093 39.3106 11.1093 39.5489 11.0248 39.7634C11.0707 39.9645 10.988 40.0193 10.7859 39.9325C10.673 39.9461 10.5589 39.9461 10.446 39.9325C9.4216 39.6171 9.29757 38.7259 9.64669 37.8804Z" fill="white"/>
<path d="M32.7709 129.709C32.4861 129.462 31.6179 128.991 31.572 128.553C31.5261 128.114 32.1921 127.99 32.5229 128.05C32.8536 128.109 33.4416 128.374 33.5335 128.758C33.6575 129.22 33.0741 129.448 32.7709 129.709Z" fill="white"/>
<path d="M24.1166 44.1281C24.4243 44.544 24.6494 44.6674 24.5759 45.2113C24.5346 45.6683 24.3876 46.1756 23.8823 46.2762C22.6328 46.5458 23.4275 44.3338 24.1166 44.1281Z" fill="white"/>
<path d="M118.198 24.9873C117.854 24.5302 117.776 24.3474 118.166 23.8858C118.373 23.6344 118.731 23.3053 119.085 23.3465C119.184 23.3626 119.277 23.4019 119.358 23.4611C119.439 23.5202 119.504 23.5976 119.549 23.6868C119.594 23.776 119.617 23.8745 119.616 23.9743C119.615 24.074 119.591 24.1721 119.544 24.2606C119.405 24.4897 119.207 24.6777 118.97 24.8054C118.734 24.9331 118.467 24.9959 118.198 24.9873Z" fill="white"/>
<path d="M13.8544 105.339C13.5513 105.211 11.2912 104.503 12.1961 103.927C12.4534 103.758 13.5742 104.078 13.7993 104.288C13.8756 104.352 13.9379 104.43 13.9823 104.518C14.0268 104.607 14.0524 104.703 14.0576 104.802C14.0627 104.901 14.0474 104.999 14.0124 105.092C13.9775 105.184 13.9237 105.269 13.8544 105.339Z" fill="white"/>
<path d="M118.341 119.905C118.929 119.905 120.128 121.025 119.301 121.478C118.887 121.701 118.327 121.354 118.129 121.021C117.868 120.541 118.083 120.28 118.341 119.905Z" fill="white"/>
<path d="M27.3336 77.2592H23.7083V76.8406L25.0592 76.5548V66.8975L23.7083 66.6116V66.1931H27.0463C28.2251 66.1931 29.1543 66.4358 29.8337 66.9213C30.5132 67.409 30.8529 68.0771 30.8529 68.9256C30.8529 69.5971 30.6375 70.1676 30.2065 70.6372C29.7733 71.1068 29.2033 71.4528 28.4965 71.6751L31.749 76.6228L32.8606 76.8406V77.2592H30.9042L27.5354 72.012H26.0682V76.5378L27.3336 76.8406V77.2592ZM27.1626 66.7784H26.0682V71.4233H27.2652C27.9721 71.4233 28.5592 71.2077 29.0266 70.7767C29.4917 70.348 29.7243 69.8035 29.7243 69.1434C29.7243 68.4174 29.494 67.8423 29.0334 67.4181C28.5729 66.9916 27.9493 66.7784 27.1626 66.7784Z" fill="white"/>
<path d="M38.5209 77.4259C37.6453 77.4259 36.8621 77.2161 36.1712 76.7964C35.4804 76.379 34.9377 75.8039 34.5433 75.0711C34.1511 74.3384 33.955 73.5024 33.955 72.5632C33.955 71.624 34.1511 70.7858 34.5433 70.0485C34.9377 69.3112 35.4804 68.7327 36.1712 68.3131C36.8621 67.8934 37.6453 67.6835 38.5209 67.6835C39.3987 67.6835 40.1831 67.8934 40.8739 68.3131C41.5648 68.7327 42.1097 69.3112 42.5088 70.0485C42.9055 70.7858 43.1039 71.624 43.1039 72.5632C43.1039 73.5024 42.9055 74.3384 42.5088 75.0711C42.1097 75.8039 41.5648 76.379 40.8739 76.7964C40.1831 77.2161 39.3987 77.4259 38.5209 77.4259ZM38.8253 76.8406C39.4888 76.8406 40.0759 76.6841 40.5866 76.371C41.0974 76.0579 41.493 75.6133 41.7734 75.0371C42.0539 74.4609 42.1941 73.7814 42.1941 72.9988C42.1941 72.0392 42.0208 71.2044 41.6742 70.4943C41.3254 69.7842 40.8557 69.233 40.2651 68.8405C39.6769 68.4503 39.0111 68.2552 38.2678 68.2552C37.5952 68.2552 37.0001 68.4117 36.4825 68.7248C35.9649 69.0379 35.5602 69.4825 35.2683 70.0587C34.9765 70.6327 34.8306 71.311 34.8306 72.0936C34.8306 73.0555 35.0107 73.8915 35.3709 74.6015C35.7312 75.3116 36.2111 75.8617 36.8108 76.2519C37.4128 76.6444 38.0842 76.8406 38.8253 76.8406Z" fill="white"/>
<path d="M50.7068 77.2592H47.1841V76.8406L48.4974 76.5888V72.798L45.3988 68.541L44.3693 68.2892V67.8707H47.4372V68.2892L46.4419 68.49V68.5581L49.1883 72.2944L51.6337 68.5581V68.507L50.6042 68.2892V67.8707H53.419V68.2892L52.4237 68.49L49.3901 72.8491V76.5888L50.7068 76.8406V77.2592Z" fill="white"/>
<path d="M56.3158 77.2592H53.5524V76.8406L54.3629 76.6705L58.0532 67.7856H58.4055L62.0616 76.6058L62.9885 76.8406V77.2592H59.8557V76.8406L61.0698 76.6364L59.8728 73.7202H56.2166L55.0538 76.6534L56.3158 76.8406V77.2592ZM58.0361 69.1944L56.4355 73.1996H59.671L58.0361 69.1944Z" fill="white"/>
<path d="M71.6175 77.2592H64.6404V76.8406L65.7691 76.5888V68.541L64.6404 68.2892V67.8707H67.9956V68.2892L66.6651 68.541V76.7045H70.6393L71.2823 74.2408H71.6175V77.2592Z" fill="white"/>
<path d="M81.8813 77.2592H78.1055V76.8406L79.4188 76.5548V66.8975L78.1055 66.6116V66.1931H81.8813V66.6116L80.4312 66.8975V71.2565H86.7994V66.8975L85.3527 66.6116V66.1931H89.1251V66.6116L87.8118 66.8975V76.5548L89.1251 76.8406V77.2592H85.3527V76.8406L86.7994 76.5548V71.8418H80.4312V76.5548L81.8813 76.8406V77.2592Z" fill="white"/>
<path d="M93.5405 77.2592H90.7771V76.8406L91.5876 76.6705L95.278 67.7856H95.6302L99.2863 76.6058L100.213 76.8406V77.2592H97.0804V76.8406L98.2945 76.6364L97.0975 73.7202H93.4413L92.2785 76.6534L93.5405 76.8406V77.2592ZM95.2608 69.1944L93.6602 73.1996H96.8957L95.2608 69.1944Z" fill="white"/>
<path d="M108.842 77.2592H101.865V76.8406L102.994 76.5888V68.541L101.865 68.2892V67.8707H105.22V68.2892L103.886 68.541V76.7045H107.864L108.507 74.2408H108.842V77.2592Z" fill="white"/>
<path d="M118.094 77.2592H111.117V76.8406L112.245 76.5888V68.541L111.117 68.2892V67.8707H114.472V68.2892L113.138 68.541V76.7045H117.116L117.755 74.2408H118.094V77.2592Z" fill="white"/>
</svg>
