<svg width="40" height="40" viewBox="0 0 40 40" fill="none" xmlns="http://www.w3.org/2000/svg">
<g clip-path="url(#clip0)">
<path d="M7.49875 12.5H4.16539C3.70539 12.5 3.33203 12.8734 3.33203 13.3334C3.33203 13.7934 3.70539 14.1667 4.16539 14.1667H7.49875C7.95875 14.1667 8.33211 13.7934 8.33211 13.3334C8.33211 12.8734 7.95875 12.5 7.49875 12.5Z" fill="#C4A861"/>
<path d="M34.1284 14.7484C33.9701 14.25 30.7901 7.51173 29.6001 6.78837C28.3617 6.03501 20.9534 5.83337 20.0001 5.83337C19.0467 5.83337 11.6384 6.03501 10.4001 6.78837C9.21008 7.51001 6.03009 14.25 5.87173 14.7484C5.73173 15.1867 5.97673 15.655 6.41509 15.795C6.85844 15.9334 7.32344 15.69 7.46173 15.2517C7.72337 14.4233 10.6134 8.7833 11.2484 8.2233C11.9534 7.88666 17.1451 7.50001 20.0001 7.50001C22.8551 7.50001 28.0467 7.88666 28.6934 8.18337C29.3851 8.78337 32.2768 14.4234 32.5384 15.2517C32.6518 15.6067 32.9801 15.8334 33.3334 15.8334C33.4168 15.8334 33.5018 15.8217 33.5868 15.795C34.0234 15.655 34.2684 15.1867 34.1284 14.7484Z" fill="#C4A861"/>
<path d="M7.5 29.1666C7.11 29.1666 6.79664 29.44 6.70664 29.8016L1.66664 28.5416V28.3332C1.66664 27.8732 1.29328 27.4999 0.833281 27.4999C0.373281 27.4999 0 27.8733 0 28.3333V31.6667C0 33.045 1.12164 34.1667 2.5 34.1667H5.83336C7.21172 34.1667 8.33336 33.045 8.33336 31.6667V30C8.33336 29.54 7.96 29.1666 7.5 29.1666Z" fill="#C4A861"/>
<path d="M39.1681 27.5C38.7081 27.5 38.3347 27.8734 38.3347 28.3334V28.5417L33.2947 29.8017C33.2047 29.4401 32.8913 29.1667 32.5013 29.1667C32.0413 29.1667 31.668 29.5401 31.668 30.0001V31.6667C31.668 33.0451 32.7896 34.1667 34.168 34.1667H37.5014C38.8798 34.1667 40.0014 33.0451 40.0014 31.6667V28.3334C40.0014 27.8734 39.6281 27.5 39.1681 27.5Z" fill="#C4A861"/>
<path d="M35.8343 12.5H32.5009C32.0409 12.5 31.6675 12.8734 31.6675 13.3334C31.6675 13.7934 32.0409 14.1667 32.5009 14.1667H35.8343C36.2943 14.1667 36.6676 13.7934 36.6676 13.3334C36.6676 12.8734 36.2943 12.5 35.8343 12.5Z" fill="#C4A861"/>
<path d="M39.9356 20.3617L37.6622 20.8167C37.3822 20.8601 31.7856 21.6667 30.3672 21.6667C30.1639 21.8283 29.9806 22.8983 30.0022 23.9001C35.0822 23.6601 39.0372 23.3417 39.1006 23.3367L39.9989 23.2151C39.9972 22.1101 39.9806 21.1667 39.9356 20.3617Z" fill="#C4A861"/>
<path d="M38.5694 16.6984C38.196 16.59 38.001 16.3184 37.631 15.765L37.346 15.3484C36.8477 14.6534 35.8844 14.6234 34.9527 14.5967C34.6727 14.5884 34.2293 14.5751 34.0193 14.5267C33.9477 14.4217 33.8509 14.3334 33.7343 14.2701C32.1794 13.415 26.2877 12.5 20.001 12.5C13.7144 12.5 7.82266 13.415 6.26766 14.27C6.15102 14.3334 6.0543 14.4216 5.98102 14.5284C5.77102 14.5767 5.32766 14.59 5.04766 14.5984C4.11766 14.625 3.1543 14.6534 2.65602 15.3484L2.37102 15.7667C2.00102 16.3201 1.80602 16.5917 1.43266 16.7001C0.779297 16.8917 0.421016 17.5617 0.222656 18.7801L1.8693 19.1917C1.89594 19.1917 7.33266 20.0001 9.16766 20.0001C9.79766 20.0001 10.3527 20.2401 10.7727 20.6934C11.656 21.6484 11.6977 23.3218 11.676 23.9734C14.3577 24.0851 17.2527 24.1668 20.001 24.1668C22.7527 24.1668 25.6494 24.0852 28.3344 23.9734C28.316 23.2368 28.3577 21.3918 29.1827 20.5201C29.5061 20.1801 29.9144 20.0001 30.3677 20.0001C31.4461 20.0001 35.7977 19.4051 37.3827 19.1751L39.7677 18.6967C39.5677 17.5284 39.2094 16.885 38.5694 16.6984ZM25.8344 22.5H14.1677C13.7077 22.5 13.3343 22.1266 13.3343 21.6666C13.3343 21.2066 13.7077 20.8333 14.1677 20.8333H25.8343C26.2943 20.8333 26.6677 21.2066 26.6677 21.6666C26.6677 22.1266 26.2944 22.5 25.8344 22.5Z" fill="#C4A861"/>
<path d="M39.276 24.9934C39.131 25.005 28.8194 25.8334 19.9994 25.8334C11.1794 25.8334 0.867711 25.005 0.765992 24.9984L0.0426331 24.9234C0.132633 26.7317 0.410992 29.4434 1.27427 29.9034C2.17427 30.3817 12.5859 30.8334 19.9993 30.8334C27.4126 30.8334 37.8243 30.3817 38.7226 29.9017C39.5893 29.4401 39.8676 26.7101 39.956 24.9017L39.276 24.9934Z" fill="#C4A861"/>
<path d="M9.54664 21.8234C9.44328 21.7117 9.33328 21.6667 9.16664 21.6667C7.2 21.6667 1.77328 20.8584 1.54328 20.8251L0.0582813 20.4551C0.0166406 21.245 0.00164062 22.17 0 23.2416L0.918359 23.3366C0.971719 23.3416 4.925 23.6583 10.005 23.9C10.0216 23.2984 9.94164 22.25 9.54664 21.8234Z" fill="#C4A861"/>
</g>
<defs>
<clipPath id="clip0">
<rect width="40" height="40" fill="white"/>
</clipPath>
</defs>
</svg>
