<svg width="40" height="40" viewBox="0 0 40 40" fill="none" xmlns="http://www.w3.org/2000/svg">
<g clip-path="url(#clip0)">
<path d="M6.48736 31.3983C7.61956 31.3983 8.59947 30.9921 9.40025 30.1913C10.201 29.3906 10.6072 28.4103 10.6072 27.2784C10.6072 26.1465 10.201 25.1663 9.40025 24.3652C8.59917 23.5648 7.61925 23.1586 6.48736 23.1586C5.35516 23.1586 4.37493 23.5648 3.57446 24.3655C2.77368 25.1663 2.36749 26.1462 2.36749 27.2784C2.36749 28.4106 2.77338 29.3906 3.57446 30.1913C4.37555 30.9921 5.35546 31.3983 6.48736 31.3983Z" fill="#C4A861"/>
<path d="M12.998 34.9801C12.9358 34.6322 12.8546 34.3014 12.7572 33.9968C12.651 33.6651 12.5073 33.3389 12.33 33.0267C12.1362 32.6861 11.9058 32.3867 11.6449 32.1371C11.3568 31.8615 11.0089 31.6418 10.61 31.4837C10.2145 31.3271 9.78148 31.2478 9.32249 31.2478C8.93767 31.2478 8.63615 31.4233 8.35936 31.6033C8.19365 31.7117 8.00597 31.8325 7.79784 31.9653C7.71025 32.0211 7.54241 32.1084 7.23906 32.2064C6.78862 32.3519 6.36229 32.3519 5.91155 32.2064C5.60851 32.1084 5.44036 32.0211 5.35338 31.9659C5.14464 31.8325 4.95727 31.7117 4.79034 31.6027C4.51446 31.4233 4.21294 31.2478 3.82812 31.2478C3.36913 31.2478 2.93579 31.3271 2.54089 31.4837C2.14233 31.6415 1.79412 31.8615 1.50512 32.1377C1.2445 32.3873 1.0144 32.6864 0.820921 33.027C0.643614 33.3389 0.499877 33.6651 0.393676 33.9971C0.296325 34.3011 0.215454 34.6319 0.152893 34.9798C0.092163 35.3188 0.0506591 35.6429 0.0299071 35.9426C0.0100708 36.2267 0 36.5212 0 36.8182C0 37.9946 0.502624 38.7203 0.924681 39.1219C1.5216 39.6905 2.29461 39.9783 3.22173 39.9783H9.92918C10.8563 39.9783 11.6293 39.6902 12.2265 39.1219C12.6483 38.7206 13.1512 37.9949 13.1512 36.8179C13.1509 36.5191 13.1408 36.2246 13.121 35.9423C13.1003 35.6435 13.0591 35.3198 12.998 34.9801Z" fill="#C4A861"/>
<path d="M29.2188 27.2783C29.2188 28.4105 29.6246 29.3904 30.4257 30.1912C31.2268 30.992 32.2067 31.3982 33.3383 31.3982C34.4705 31.3982 35.4507 30.992 36.2515 30.1912C37.0523 29.3904 37.4582 28.4102 37.4582 27.2783C37.4582 26.1464 37.0523 25.1662 36.2512 24.3651C35.4504 23.5646 34.4702 23.1584 33.3383 23.1584C32.2061 23.1584 31.2262 23.5646 30.4254 24.3654C29.6246 25.1662 29.2188 26.1464 29.2188 27.2783Z" fill="#C4A861"/>
<path d="M39.9687 35.9417C39.9479 35.6429 39.9064 35.3195 39.8457 34.9801C39.7831 34.6322 39.7022 34.3014 39.6046 33.9968C39.4984 33.6651 39.3546 33.3389 39.1773 33.0267C38.9839 32.6861 38.7535 32.3867 38.4925 32.1371C38.2044 31.8615 37.8562 31.6418 37.4574 31.4837C37.0622 31.3271 36.6288 31.2478 36.1701 31.2478C35.785 31.2478 35.4835 31.4233 35.207 31.6033C35.041 31.7117 34.8536 31.8325 34.6455 31.9653C34.5579 32.0211 34.3898 32.1084 34.0867 32.2064C33.6363 32.3519 33.2096 32.3519 32.7589 32.2064C32.4559 32.1084 32.2877 32.0211 32.2007 31.9659C31.992 31.8325 31.8046 31.7117 31.638 31.6027C31.3621 31.4233 31.0606 31.2478 30.6755 31.2478C30.2165 31.2478 29.7834 31.3271 29.3882 31.4837C28.9897 31.6418 28.6415 31.8615 28.3525 32.1377C28.0922 32.387 27.8621 32.6864 27.6683 33.027C27.491 33.3389 27.3472 33.6651 27.241 33.9971C27.1437 34.3014 27.0628 34.6319 27.0002 34.9798C26.9395 35.3191 26.898 35.6429 26.8773 35.9426C26.8574 36.2261 26.8477 36.5209 26.8477 36.8182C26.8477 37.9946 27.3503 38.7203 27.772 39.1219C28.3693 39.6905 29.1423 39.9783 30.0694 39.9783H36.7768C37.704 39.9783 38.4767 39.6902 39.0739 39.1219C39.4959 38.7206 39.9986 37.9949 39.9986 36.8179C39.9986 36.5188 39.9885 36.224 39.9687 35.9417Z" fill="#C4A861"/>
<path d="M19.9119 8.23943C21.0441 8.23943 22.024 7.83354 22.8248 7.03246C23.6256 6.23168 24.0318 5.25176 24.0318 4.11956C24.0318 2.98767 23.6259 2.00775 22.8248 1.20666C22.024 0.406188 21.0438 0 19.9119 0C18.7797 0 17.7998 0.405883 16.999 1.20697C16.1982 2.00775 15.7921 2.98767 15.7921 4.11987C15.7921 5.25176 16.1982 6.23198 16.9993 7.03276C17.8001 7.83354 18.7803 8.23943 19.9119 8.23943Z" fill="#C4A861"/>
<path d="M26.5461 12.7831C26.525 12.4844 26.4838 12.1612 26.4231 11.8215C26.3605 11.4736 26.2796 11.1428 26.182 10.8383C26.0758 10.5065 25.932 10.18 25.7547 9.8684C25.561 9.52752 25.3305 9.22815 25.0699 8.97851C24.7818 8.70294 24.4336 8.48321 24.0345 8.32513C23.639 8.16858 23.2059 8.08923 22.7472 8.08923C22.3621 8.08923 22.0606 8.26471 21.7841 8.44476C21.6184 8.5531 21.4307 8.67395 21.2229 8.8067C21.135 8.86255 20.9668 8.94983 20.6638 9.04779C20.214 9.19305 19.787 9.19336 19.336 9.04748C19.0336 8.94983 18.8654 8.86255 18.7781 8.80701C18.5694 8.67364 18.3817 8.55279 18.2154 8.44446C17.9398 8.26471 17.6383 8.08923 17.2529 8.08923C16.7939 8.08923 16.3608 8.16858 15.9656 8.32513C15.5668 8.48291 15.2186 8.70294 14.9299 8.97912C14.6692 9.22845 14.4391 9.52783 14.2457 9.8681C14.0687 10.1797 13.9249 10.5062 13.8184 10.8386C13.7211 11.1428 13.6399 11.4733 13.5776 11.8212C13.5169 12.1603 13.4754 12.4841 13.4543 12.784C13.4348 13.0676 13.425 13.3621 13.425 13.6593C13.425 14.836 13.9274 15.5614 14.3494 15.9634C14.9467 16.5316 15.7194 16.8197 16.6468 16.8197H23.3539C24.2814 16.8197 25.0541 16.5316 25.6513 15.9634C26.0733 15.5618 26.576 14.8364 26.576 13.659C26.5757 13.3602 26.5659 13.0654 26.5461 12.7831Z" fill="#C4A861"/>
<path d="M23.5789 34.9033H16.2431C15.5955 34.9033 15.0703 35.4282 15.0703 36.0761C15.0703 36.7237 15.5955 37.2489 16.2431 37.2489H23.5789C24.2268 37.2489 24.752 36.7237 24.752 36.0761C24.752 35.4282 24.2268 34.9033 23.5789 34.9033Z" fill="#C4A861"/>
<path d="M12.812 17.6543C12.2856 17.2771 11.5528 17.3982 11.1757 17.9247L9.16485 20.7304C8.78766 21.2569 8.90851 21.9896 9.43524 22.3671C9.64215 22.5154 9.88079 22.5865 10.1173 22.5865C10.4826 22.5865 10.8427 22.4165 11.0719 22.097L13.0824 19.2909C13.4596 18.7645 13.3387 18.0318 12.812 17.6543Z" fill="#C4A861"/>
<path d="M29.7041 22.5865C29.9404 22.5865 30.1793 22.5154 30.3862 22.3668C30.9129 21.9896 31.0338 21.2569 30.6566 20.7304L28.6458 17.9243C28.2686 17.3979 27.5359 17.2768 27.0095 17.6543C26.4827 18.0315 26.3619 18.7642 26.7391 19.2909L28.7496 22.0967C28.9787 22.4165 29.3385 22.5865 29.7041 22.5865Z" fill="#C4A861"/>
</g>
<defs>
<clipPath id="clip0">
<rect width="40" height="39.9999" fill="white"/>
</clipPath>
</defs>
</svg>
