<svg width="40" height="40" viewBox="0 0 40 40" fill="none" xmlns="http://www.w3.org/2000/svg">
<g clip-path="url(#clip0)">
<path d="M3.3549 22.5024L3.32123 38.329C3.32123 39.2508 4.0873 39.9958 5.00491 39.9958H16.6686C17.5862 39.9958 18.3312 39.2508 18.3312 38.329L18.3354 22.4982C18.3354 18.5205 16.2435 15.1657 13.3391 13.8988V3.12743C13.8863 2.87909 14.2483 2.36136 14.2483 1.66684C14.2483 0.749237 13.5875 0 12.7751 0H11.6723H10.0054H9.04153C8.22494 0 7.5641 0.745028 7.5641 1.66684C7.5641 2.29401 7.98502 2.93381 8.4817 3.12322L8.46908 13.8988C5.52264 15.0647 3.3549 18.5121 3.3549 22.5024ZM15.3006 21.6858C15.5405 21.6858 15.7384 21.8794 15.7384 22.1235V34.5954C15.7384 34.8353 15.5447 35.0331 15.3006 35.0331H6.41078C6.17085 35.0331 5.97302 34.8395 5.97302 34.5954V22.1235C5.97302 21.8836 6.16665 21.6858 6.41078 21.6858H15.3006Z" fill="#C4A861"/>
<path d="M26.0324 3.32935L25.0011 14.0754C22.0421 15.4729 20.0048 18.7182 20.0048 22.5023L20.0132 38.333C20.0132 39.2549 20.8172 39.9999 21.8442 39.9999H34.8043C35.8314 39.9999 36.6774 39.2549 36.6774 38.333L36.6648 22.5023C36.6648 18.7603 34.6065 15.5529 31.6685 14.1302L30.4226 3.33356H30.4563C31.3654 3.33356 32.1021 2.59275 32.1021 1.67093C32.1021 0.753328 31.3654 0.00830078 30.4563 0.00830078H26.205C25.2958 0.00830078 24.5592 0.753328 24.5592 1.67514C24.5592 2.53803 25.2032 3.24096 26.0324 3.32935V3.32515C26.0872 3.32935 26.146 3.33777 26.205 3.33777C26.146 3.33356 26.0871 3.33356 26.0324 3.32935ZM33.3311 36.6704H23.3301V33.3451H33.3311V36.6704ZM28.2759 16.6978C30.814 16.6978 32.8976 18.8655 33.2554 21.6856H23.4059C23.7552 18.8655 25.7967 16.6978 28.2759 16.6978Z" fill="#C4A861"/>
</g>
<defs>
<clipPath id="clip0">
<rect width="40" height="40" fill="white"/>
</clipPath>
</defs>
</svg>
