<svg width="40" height="40" viewBox="0 0 40 40" fill="none" xmlns="http://www.w3.org/2000/svg">
<g clip-path="url(#clip0)">
<path d="M34.1653 4.52808H32.9957V33.2625C32.9957 35.1714 31.4418 36.7252 29.5329 36.7252H17.6824H8.25879V37.7904C8.25879 39.0102 9.24877 40.0001 10.4685 40.0001H22.3148H34.1611C35.3808 40.0001 36.3707 39.0102 36.3707 37.7904V6.73777C36.3708 5.51805 35.385 4.52808 34.1653 4.52808Z" fill="#C4A861"/>
<path d="M17.6817 35.472H29.528C30.7477 35.472 31.7377 34.4821 31.7377 33.2624V4.52799V2.20969C31.7377 0.989976 30.7477 0 29.528 0H17.6817H13.7427V0.730995C13.751 0.806183 13.7552 0.885548 13.7552 0.964913V5.78112V7.01755C13.7552 8.73434 12.3601 10.1295 10.6433 10.1295H9.40683H4.59062C4.52796 10.1295 4.46113 10.1253 4.39847 10.1211H3.62988V33.2624C3.62988 34.4821 4.61986 35.472 5.83958 35.472H8.2623H17.6817ZM18.1286 27.9616H10.4052C9.82872 27.9616 9.36088 27.4937 9.36088 26.9173C9.36088 26.3408 9.82872 25.873 10.4052 25.873H18.1328C18.7093 25.873 19.1771 26.3408 19.1771 26.9173C19.1771 27.4937 18.7051 27.9616 18.1286 27.9616ZM25.8563 22.6316H10.4052C9.82872 22.6316 9.36088 22.1638 9.36088 21.5874C9.36088 21.0109 9.82872 20.5431 10.4052 20.5431H25.8563C26.4327 20.5431 26.9006 21.0109 26.9006 21.5874C26.9006 22.1638 26.4327 22.6316 25.8563 22.6316ZM10.4052 14.8831H25.8563C26.4327 14.8831 26.9006 15.3509 26.9006 15.9273C26.9006 16.5038 26.4327 16.9716 25.8563 16.9716H10.4052C9.82872 16.9716 9.36088 16.5038 9.36088 15.9273C9.36088 15.3509 9.82872 14.8831 10.4052 14.8831Z" fill="#C4A861"/>
<path d="M4.59031 8.8764H10.6429C10.6471 8.8764 10.6555 8.8764 10.6596 8.8764C11.6705 8.86804 12.4892 8.04933 12.4976 7.03847C12.4976 7.03429 12.4976 7.02594 12.4976 7.02176V0.964944C12.4976 0.40521 12.0381 0.0334473 11.5619 0.0334473C11.3322 0.0334473 11.1025 0.11699 10.9103 0.309137L3.93032 7.28909C3.34553 7.87389 3.75906 8.8764 4.59031 8.8764Z" fill="#C4A861"/>
</g>
<defs>
<clipPath id="clip0">
<rect width="40" height="40" fill="white"/>
</clipPath>
</defs>
</svg>
