<svg width="40" height="40" viewBox="0 0 40 40" fill="none" xmlns="http://www.w3.org/2000/svg">
<path d="M19.092 6.61686L15.5752 1.83765L13.921 7.536L8.28906 9.40382L13.1973 12.738L13.2333 18.6715L17.921 15.0337L23.5752 16.8331L21.5641 11.2506L25.0226 6.42921L19.092 6.61686Z" fill="#C4A861"/>
<path d="M26.0603 27.593L31.136 26.4235L34.9766 29.9417L35.433 24.7531L39.9659 22.1876L35.1723 20.1502L34.133 15.0464L30.7141 18.9758L25.5391 18.3871L28.2195 22.853L26.0603 27.593Z" fill="#C4A861"/>
<path d="M11.5087 26.6703L12.8998 21.651L8.06961 23.5999L3.72593 20.7258L4.08679 25.9218L0.0111694 29.1649L5.06437 30.4273L6.88929 35.3058L9.65132 30.8899L14.8549 30.6619L11.5087 26.6703Z" fill="#C4A861"/>
<path d="M17.4493 18.5441L19.7766 18.2558L22.3376 38.9311L20.0103 39.2194L17.4493 18.5441Z" fill="#C4A861"/>
<path d="M25.75 38.4434L28.9538 29.1179L31.171 29.8796L27.9672 39.2051L25.75 38.4434Z" fill="#C4A861"/>
<path d="M9.98474 33.5906L11.991 32.3765L15.8227 38.7085L13.8165 39.9226L9.98474 33.5906Z" fill="#C4A861"/>
<path d="M3.51562 7.03125C5.45725 7.03125 7.03125 5.45725 7.03125 3.51562C7.03125 1.574 5.45725 0 3.51562 0C1.574 0 0 1.574 0 3.51562C0 5.45725 1.574 7.03125 3.51562 7.03125Z" fill="#C4A861"/>
<path d="M35.7031 8.59375C38.0762 8.59375 40 6.66997 40 4.29688C40 1.92378 38.0762 0 35.7031 0C33.33 0 31.4062 1.92378 31.4062 4.29688C31.4062 6.66997 33.33 8.59375 35.7031 8.59375Z" fill="#C4A861"/>
<path d="M36.4844 40C38.426 40 40 38.426 40 36.4844C40 34.5427 38.426 32.9688 36.4844 32.9688C34.5427 32.9688 32.9688 34.5427 32.9688 36.4844C32.9688 38.426 34.5427 40 36.4844 40Z" fill="#C4A861"/>
</svg>
