<svg width="40" height="40" viewBox="0 0 40 40" fill="none" xmlns="http://www.w3.org/2000/svg">
<g clip-path="url(#clip0)">
<path d="M23.9426 21.2C23.6041 21.2 23.2656 21.5077 23.2656 22.5385C23.2656 23.5694 23.6041 23.8771 23.9426 23.8771C24.281 23.8771 24.6195 23.5694 24.6195 22.5385C24.6195 21.5077 24.281 21.2 23.9426 21.2Z" fill="#C4A861"/>
<path d="M19.9983 7.48999C13.0892 7.48999 7.48828 13.0909 7.48828 20C7.48828 26.9092 13.0892 32.5101 19.9983 32.5101C26.9074 32.5101 32.5084 26.9091 32.5084 20C32.5084 13.091 26.9075 7.48999 19.9983 7.48999ZM13.1902 17.4614C13.1902 15.5536 14.421 14.4611 16.052 14.4611C17.6829 14.4611 18.9137 15.5535 18.9137 17.4614C18.9137 19.3845 17.6829 20.4616 16.052 20.4616C14.421 20.4616 13.1902 19.3845 13.1902 17.4614ZM17.6213 25.385H15.0211L22.3754 14.6151H24.9755L17.6213 25.385ZM23.9448 25.5388C22.3139 25.5388 21.083 24.4618 21.083 22.5386C21.083 20.6308 22.3139 19.5383 23.9448 19.5383C25.5756 19.5383 26.8065 20.6307 26.8065 22.5386C26.8065 24.4618 25.5756 25.5388 23.9448 25.5388Z" fill="#C4A861"/>
<path d="M16.7289 17.4614C16.7289 16.4306 16.3904 16.1228 16.0519 16.1228C15.7135 16.1228 15.375 16.4306 15.375 17.4614C15.375 18.4922 15.7135 18.7999 16.0519 18.7999C16.3904 18.7999 16.7289 18.4922 16.7289 17.4614Z" fill="#C4A861"/>
<path d="M39.4972 15.5496L36.6511 11.9806L35.6352 7.53019L31.5224 5.54961L28.6763 1.98065H24.1115L19.9985 0L15.8857 1.98065H11.3209L8.47476 5.54961L4.36193 7.53019L3.34611 11.9806L0.5 15.5496L1.51582 20L0.5 24.4504L3.34611 28.0194L4.36193 32.4698L8.47476 34.4505L11.3209 38.0194H15.8857L19.9985 40.0001L24.1114 38.0194H28.6762L31.5223 34.4505L35.6352 32.4698L36.651 28.0194L39.4971 24.4504L38.4813 20L39.4972 15.5496ZM34.8542 20C34.8542 22.0045 34.4611 23.9502 33.6858 25.7832C32.9374 27.5525 31.8666 29.141 30.5031 30.5045C29.1395 31.8681 27.551 32.9389 25.7818 33.6872C23.9487 34.4625 22.003 34.8556 19.9985 34.8556C17.994 34.8556 16.0483 34.4624 14.2153 33.6872C12.446 32.9389 10.8575 31.868 9.49402 30.5045C8.13042 29.1409 7.05964 27.5524 6.31131 25.7832C5.536 23.9502 5.14295 22.0045 5.14295 20C5.14295 17.9955 5.53607 16.0498 6.31131 14.2167C7.05964 12.4474 8.1305 10.859 9.49402 9.49536C10.8576 8.13176 12.4461 7.06098 14.2153 6.31265C16.0483 5.53734 17.994 5.14429 19.9985 5.14429C22.003 5.14429 23.9487 5.53741 25.7818 6.31265C27.551 7.06098 29.1396 8.13184 30.5031 9.49536C31.8667 10.859 32.9374 12.4474 33.6858 14.2167C34.4612 16.0498 34.8542 17.9955 34.8542 20Z" fill="#C4A861"/>
</g>
<defs>
<clipPath id="clip0">
<rect width="40" height="40" fill="white"/>
</clipPath>
</defs>
</svg>
